<svg width="50" height="68" viewBox="0 0 50 68" fill="none" xmlns="http://www.w3.org/2000/svg">
<path d="M35.6172 49.8424H35.0315V49.8975C34.7006 49.9227 34.367 49.9379 34.0307 49.943C25.0775 50.0775 17.7103 42.9366 17.5757 33.9934C17.441 25.0501 24.5898 17.6912 33.543 17.5567C33.8155 17.5526 34.0864 17.5552 34.3558 17.5644V26.3524C34.1189 26.3344 33.6366 26.3325 33.6366 26.3325C29.5363 26.4144 26.2788 29.801 26.3608 33.8968C26.4428 37.9925 29.8333 41.2463 33.9336 41.1644C38.0197 41.0828 41.2689 37.7191 41.2101 33.6424H49.9996C50.0565 41.99 43.769 48.9272 35.6172 49.8424Z" fill="white"/>
<path d="M35.0315 58.6823C34.702 58.6986 34.3708 58.7085 34.038 58.7119C20.2322 58.8544 8.92484 47.7907 8.78218 34.0004C8.63952 20.21 19.7156 8.91524 33.5214 8.77274C33.8005 8.76986 34.0787 8.77155 34.3558 8.77777V0.00461316C34.1011 0.000446933 33.8458 -0.000907476 33.5899 0.000591128C14.9298 0.109706 -0.10865 15.3083 0.000591413 33.9476C0.109828 52.5869 15.3254 67.6085 33.9855 67.4994C34.3355 67.4974 34.6842 67.49 35.0315 67.4774V58.6823Z" fill="white"/>
</svg>
