<?xml version="1.0" encoding="utf-8"?>
<!-- Generator: Adobe Illustrator 20.1.0, SVG Export Plug-In . SVG Version: 6.00 Build 0)  -->
<svg version="1.1" id="Layer_1" xmlns="http://www.w3.org/2000/svg" xmlns:xlink="http://www.w3.org/1999/xlink" x="0px" y="0px"
	 viewBox="0 0 551.6 334.7" style="enable-background:new 0 0 551.6 334.7;" xml:space="preserve">
<style type="text/css">
	.st0{fill:#EC6898;}
	.st1{fill:#5DB139;}
	.st2{fill:#C7D54F;}
	.st3{fill:#FFFFFF;}
	.st4{fill:#1C3761;}
	.st5{fill:#A4D8E6;}
</style>
<path class="st0" d="M476.3,89.2c-40.5,0-73.3,32.8-73.3,73.3s32.8,73.3,73.3,73.3s73.3-32.8,73.3-73.3S516.8,89.2,476.3,89.2z
	 M476.3,207c-24.6,0-44.6-20-44.6-44.6c0-24.6,20-44.6,44.6-44.6s44.6,20,44.6,44.6C520.9,187.1,500.9,207,476.3,207z"/>
<path class="st1" d="M426.3,138.5h-4.1c0-21-16.5-36.7-36.7-36.7s-36.7,15.7-36.7,36.7h-29.9c-19.1,0-35.1,13-39.1,31H229v120h50.1
	c2.2,20,19.2,36,39.8,36h107.5c22,0,39.7-17.9,39.7-39.9V178.1C466,156.1,448.3,138.5,426.3,138.5z"/>
<path class="st2" d="M391.6,162.5c22,0,40.4,18.2,40.4,40.2v107.5c0,5.2-1.2,10.4-3.1,15c-0.9,0.1-2,0.3-2.9,0.3H318.6
	c-22,0-39.6-18.4-39.6-40.4V177.6c0-5.2,0.8-10.3,2.6-14.9c0.9-0.1,1.6-0.2,2.5-0.2H391.6z"/>
<rect x="187.7" y="148.4" transform="matrix(-1 -2.147772e-10 2.147772e-10 -1 418.0959 463.3835)" class="st3" width="42.8" height="166.5"/>
<rect x="-2" y="130.6" transform="matrix(-1 -5.871938e-11 5.871938e-11 -1 187.7518 465.2859)" class="st4" width="191.8" height="204"/>
<polygon class="st5" points="500.8,87.3 450.4,87.7 424.9,44.2 449.8,0.3 500.3,0 525.8,43.5 "/>
<polygon class="st3" points="433.4,45.5 433.3,45.7 452.6,78.6 453.5,78.6 472.4,45.5 "/>
<polygon class="st3" points="479.4,45.5 479.3,45.7 498.6,78.6 499.5,78.6 518.4,45.5 "/>
<polygon class="st3" points="495.8,37.5 495.9,37.4 476.6,4.6 475.7,4.4 456.8,37.5 "/>
</svg>
