<?xml version="1.0" encoding="utf-8"?>
<!-- Generator: Adobe Illustrator 20.1.0, SVG Export Plug-In . SVG Version: 6.00 Build 0)  -->
<svg version="1.1" id="Layer_1" xmlns="http://www.w3.org/2000/svg" xmlns:xlink="http://www.w3.org/1999/xlink" x="0px" y="0px"
	 viewBox="0 0 165 351.9" style="enable-background:new 0 0 165 351.9;" xml:space="preserve">
<style type="text/css">
	.st0{opacity:0.6;fill:#FFFFFF;}
	.st1{fill-rule:evenodd;clip-rule:evenodd;fill:#1F3D71;}
	.st2{fill:#F39224;}
	.st3{fill:#FFFFFF;}
	.st4{opacity:0.1;}
	.st5{clip-path:url(#SVGID_2_);}
	.st6{clip-path:url(#SVGID_4_);fill:#020304;}
	.st7{fill:#DC631F;}
	.st8{clip-path:url(#SVGID_6_);}
	.st9{clip-path:url(#SVGID_8_);fill:#FFFFFF;}
	.st10{clip-path:url(#SVGID_10_);}
	.st11{clip-path:url(#SVGID_12_);fill:#FFFFFF;}
	.st12{clip-path:url(#SVGID_14_);}
	.st13{clip-path:url(#SVGID_16_);fill:#FFFFFF;}
	.st14{opacity:0.2;}
	.st15{clip-path:url(#SVGID_18_);}
	.st16{clip-path:url(#SVGID_20_);fill:#020304;}
	.st17{opacity:0.15;}
	.st18{clip-path:url(#SVGID_22_);}
	.st19{clip-path:url(#SVGID_24_);fill:#FFFFFF;}
	.st20{clip-path:url(#SVGID_26_);}
	.st21{clip-path:url(#SVGID_28_);fill:#FFFFFF;}
	.st22{clip-path:url(#SVGID_30_);}
	.st23{clip-path:url(#SVGID_32_);fill:#020304;}
	.st24{clip-path:url(#SVGID_34_);}
	.st25{clip-path:url(#SVGID_36_);fill:#FFFFFF;}
	.st26{fill:none;stroke:#DC631F;stroke-width:1.055;stroke-linecap:round;stroke-linejoin:round;stroke-miterlimit:10;}
	.st27{clip-path:url(#SVGID_38_);}
	.st28{clip-path:url(#SVGID_40_);fill:#FFFFFF;}
	.st29{fill:#1F3D71;}
	.st30{clip-path:url(#SVGID_42_);}
	.st31{clip-path:url(#SVGID_44_);fill:#FFFFFF;}
	.st32{fill:#EC6898;}
	.st33{fill:#B90F77;}
</style>
<path class="st0" d="M79.5,17.5c-12.4,0-22.9,10.2-22.9,22.6v0.4v1.1L8.2,165.3c55.6,37.3,148.6,4.6,148.6,4.6L102.5,41.5v-1.1v-0.4
	C102.5,27.6,92,17.5,79.5,17.5"/>
<path class="st1" d="M49.6,75.1c0.4,1.5,1.8,2.6,3.5,2.6c2,0,3.6-1.6,3.6-3.6v-0.3V43.4c0-12.6,10.3-22.8,22.9-22.9h0h0h0.1
	c12.6,0,22.8,10.3,22.9,22.9v30.5v0.3c0,2,1.6,3.6,3.6,3.6c1.7,0,3.1-1.1,3.5-2.6c0,0.1,0,0.1,0,0.2c0,3.7-3,6.7-6.7,6.7
	c-0.1,0-0.2,0-0.4,0v0H79.7h-0.1h0H56.7v0c-0.1,0-0.3,0-0.4,0c-3.7,0-6.7-3-6.7-6.7C49.6,75.2,49.6,75.2,49.6,75.1"/>
<path class="st2" d="M62.7,57.6c0,2.3-1.8,4.1-4.1,4.1s-4.1-1.8-4.1-4.1c0-2.3,1.8-4.1,4.1-4.1S62.7,55.4,62.7,57.6"/>
<path class="st3" d="M122.8,141c0,8-6.5,14.5-14.5,14.5H52.1c-8,0-14.5-6.5-14.5-14.5v-40.3c0-8,6.5-14.5,14.5-14.5h56.1
	c8,0,14.5,6.5,14.5,14.5V141z"/>
<g class="st4">
	<g>
		<defs>
			<rect id="SVGID_1_" x="110" y="103.8" width="12.8" height="43.1"/>
		</defs>
		<clipPath id="SVGID_2_">
			<use xlink:href="#SVGID_1_"  style="overflow:visible;"/>
		</clipPath>
		<g class="st5">
			<defs>
				<rect id="SVGID_3_" x="110" y="103.8" width="12.8" height="43.1"/>
			</defs>
			<clipPath id="SVGID_4_">
				<use xlink:href="#SVGID_3_"  style="overflow:visible;"/>
			</clipPath>
			<path class="st6" d="M110,118.2v28.7c6.9-0.5,12.8-6.3,12.8-13.2v-29.9C115.9,104.7,110,110.8,110,118.2"/>
		</g>
	</g>
</g>
<rect x="69.8" y="77.9" class="st7" width="20.8" height="8.2"/>
<path class="st2" d="M57.6,43.6v18.7c0,11.9,10.2,21.6,22.1,21.6c11.9,0,22.1-9.7,22.1-21.6V43.6H57.6z"/>
<path class="st2" d="M105.8,57.6c0,2.3-1.8,4.1-4.1,4.1c-2.3,0-4.1-1.8-4.1-4.1c0-2.3,1.8-4.1,4.1-4.1
	C104,53.5,105.8,55.4,105.8,57.6"/>
<path class="st3" d="M55,62c0,1.2,0.9,2.1,2.1,2.1c1.2,0,2.1-0.9,2.1-2.1c0-1.2-0.9-2.1-2.1-2.1C55.9,59.9,55,60.8,55,62"/>
<path class="st3" d="M100.2,62c0,1.2,0.9,2.1,2.1,2.1c1.2,0,2.1-0.9,2.1-2.1c0-1.2-0.9-2.1-2.1-2.1C101.1,59.9,100.2,60.8,100.2,62"
	/>
<path class="st7" d="M70.4,57.6c0,0.8-0.6,1.4-1.4,1.4s-1.4-0.6-1.4-1.4c0-0.8,0.6-1.4,1.4-1.4S70.4,56.9,70.4,57.6"/>
<path class="st7" d="M91.7,57.6c0,0.8-0.6,1.4-1.4,1.4c-0.8,0-1.4-0.6-1.4-1.4c0-0.8,0.6-1.4,1.4-1.4C91.1,56.3,91.7,56.9,91.7,57.6
	"/>
<g class="st4">
	<g>
		<defs>
			<rect id="SVGID_5_" x="62.9" y="63.9" width="33.6" height="7.9"/>
		</defs>
		<clipPath id="SVGID_6_">
			<use xlink:href="#SVGID_5_"  style="overflow:visible;"/>
		</clipPath>
		<g class="st8">
			<defs>
				<rect id="SVGID_7_" x="62.9" y="63.9" width="33.6" height="7.9"/>
			</defs>
			<clipPath id="SVGID_8_">
				<use xlink:href="#SVGID_7_"  style="overflow:visible;"/>
			</clipPath>
			<path class="st9" d="M96.5,67.9c0,2.2-1.8,4-4,4c-2.2,0-4-1.8-4-4c0-2.2,1.8-4,4-4C94.7,63.9,96.5,65.7,96.5,67.9"/>
			<path class="st9" d="M70.8,67.9c0,2.2-1.8,4-4,4c-2.2,0-4-1.8-4-4c0-2.2,1.8-4,4-4C69,63.9,70.8,65.7,70.8,67.9"/>
		</g>
	</g>
</g>
<path class="st2" d="M63.8,226.6v99.5c0,4.4,3.8,8,8.2,8c4.4,0,8.2-3.6,8.2-8v-99.5H63.8z"/>
<path class="st7" d="M80.2,226.6v99.5c0,4.4,3.8,8,8.2,8c4.4,0,8.2-3.6,8.2-8v-99.5H80.2z"/>
<path class="st3" d="M72,329.3c-4.4,0-8.2-3.6-8.2-8v5.1c0,4.4,3.8,8,8.2,8c4.4,0,8.2-3.6,8.2-8v-5.1
	C80.2,325.8,76.3,329.3,72,329.3"/>
<path class="st3" d="M88.4,329.3c-4.4,0-8.2-3.6-8.2-8v5.1c0,4.4,3.8,8,8.2,8c4.4,0,8.2-3.6,8.2-8v-5.1
	C96.6,325.8,92.8,329.3,88.4,329.3"/>
<polygon class="st3" points="112.5,236.9 47.8,236.9 53,158.9 107.4,158.9 "/>
<g class="st4">
	<g>
		<defs>
			<rect id="SVGID_9_" x="66.1" y="246.4" width="11.7" height="11.7"/>
		</defs>
		<clipPath id="SVGID_10_">
			<use xlink:href="#SVGID_9_"  style="overflow:visible;"/>
		</clipPath>
		<g class="st10">
			<defs>
				<rect id="SVGID_11_" x="66.1" y="246.4" width="11.7" height="11.7"/>
			</defs>
			<clipPath id="SVGID_12_">
				<use xlink:href="#SVGID_11_"  style="overflow:visible;"/>
			</clipPath>
			<path class="st11" d="M77.8,252.3c0,3.2-2.6,5.8-5.8,5.8c-3.2,0-5.8-2.6-5.8-5.8c0-3.2,2.6-5.8,5.8-5.8
				C75.2,246.4,77.8,249.1,77.8,252.3"/>
		</g>
	</g>
</g>
<g class="st4">
	<g>
		<defs>
			<rect id="SVGID_13_" x="82.5" y="246.4" width="11.7" height="11.7"/>
		</defs>
		<clipPath id="SVGID_14_">
			<use xlink:href="#SVGID_13_"  style="overflow:visible;"/>
		</clipPath>
		<g class="st12">
			<defs>
				<rect id="SVGID_15_" x="82.5" y="246.4" width="11.7" height="11.7"/>
			</defs>
			<clipPath id="SVGID_16_">
				<use xlink:href="#SVGID_15_"  style="overflow:visible;"/>
			</clipPath>
			<path class="st13" d="M94.2,252.3c0,3.2-2.6,5.8-5.8,5.8c-3.2,0-5.8-2.6-5.8-5.8c0-3.2,2.6-5.8,5.8-5.8
				C91.6,246.4,94.2,249.1,94.2,252.3"/>
		</g>
	</g>
</g>
<g class="st14">
	<g>
		<defs>
			<rect id="SVGID_17_" x="63.8" y="236.9" width="32.8" height="3.3"/>
		</defs>
		<clipPath id="SVGID_18_">
			<use xlink:href="#SVGID_17_"  style="overflow:visible;"/>
		</clipPath>
		<g class="st15">
			<defs>
				<rect id="SVGID_19_" x="63.8" y="236.9" width="32.8" height="3.3"/>
			</defs>
			<clipPath id="SVGID_20_">
				<use xlink:href="#SVGID_19_"  style="overflow:visible;"/>
			</clipPath>
			<polygon class="st16" points="96.6,240.1 63.8,236.9 96.6,236.9 			"/>
		</g>
	</g>
</g>
<g class="st17">
	<g>
		<defs>
			<rect id="SVGID_21_" x="58.1" y="158.9" width="53" height="51.3"/>
		</defs>
		<clipPath id="SVGID_22_">
			<use xlink:href="#SVGID_21_"  style="overflow:visible;"/>
		</clipPath>
		<g class="st18">
			<defs>
				<rect id="SVGID_23_" x="58.1" y="158.9" width="53" height="51.3"/>
			</defs>
			<clipPath id="SVGID_24_">
				<use xlink:href="#SVGID_23_"  style="overflow:visible;"/>
			</clipPath>
			<path class="st19" d="M107.4,158.9H58.1v8.9c0,23.1,19.7,42.4,42.8,42.4h10.2L107.4,158.9z"/>
		</g>
	</g>
</g>
<path class="st3" d="M105,162.3H55.3c-1.9,0-3.4-1.5-3.4-3.4c0-1.9,1.5-3.4,3.4-3.4H105c1.9,0,3.4,1.5,3.4,3.4
	C108.4,160.8,106.9,162.3,105,162.3"/>
<path class="st3" d="M103.7,114.9l29.6,29.6c3.9,3.9,3.7,10.7-0.2,14.6c-4,4-10.7,4.2-14.6,0.2l-29.6-29.6L103.7,114.9z"/>
<path class="st2" d="M83.5,121.7c-3.7-3.7-3.7-9.8,0-13.5c3.7-3.7,9.6-3.7,13.4-0.2l0,0l6.9,6.9l-10.6,10.6l-1.2-1.2
	C89,124.9,85.8,124,83.5,121.7"/>
<g class="st17">
	<g>
		<defs>
			<rect id="SVGID_25_" x="80.7" y="105.4" width="15.8" height="20.1"/>
		</defs>
		<clipPath id="SVGID_26_">
			<use xlink:href="#SVGID_25_"  style="overflow:visible;"/>
		</clipPath>
		<g class="st20">
			<defs>
				<rect id="SVGID_27_" x="80.7" y="105.4" width="15.8" height="20.1"/>
			</defs>
			<clipPath id="SVGID_28_">
				<use xlink:href="#SVGID_27_"  style="overflow:visible;"/>
			</clipPath>
			<path class="st21" d="M83.5,108.2c2.2-2.2,5.2-3.1,8.1-2.7c0.3,0.2,0.5,0.4,0.8,0.7c5.3,5.3,5.5,13.7,0.8,19.3l-1.2-1.2
				c-3,0.5-6.2-0.3-8.5-2.6C79.8,118,79.8,111.9,83.5,108.2"/>
		</g>
	</g>
</g>
<g class="st4">
	<g>
		<defs>
			<rect id="SVGID_29_" x="37.6" y="101.1" width="12.8" height="43.1"/>
		</defs>
		<clipPath id="SVGID_30_">
			<use xlink:href="#SVGID_29_"  style="overflow:visible;"/>
		</clipPath>
		<g class="st22">
			<defs>
				<rect id="SVGID_31_" x="37.6" y="101.1" width="12.8" height="43.1"/>
			</defs>
			<clipPath id="SVGID_32_">
				<use xlink:href="#SVGID_31_"  style="overflow:visible;"/>
			</clipPath>
			<path class="st23" d="M50.4,115.5v28.7c-6.9-0.5-12.8-6.3-12.8-13.2v-29.9C44.5,102,50.4,108.1,50.4,115.5"/>
		</g>
	</g>
</g>
<path class="st3" d="M56.6,112.2L27,141.9c-3.9,3.9-3.7,10.7,0.2,14.6c4,4,10.7,4.2,14.6,0.2l29.6-29.6L56.6,112.2z"/>
<path class="st2" d="M76.9,119c3.7-3.7,3.7-9.8,0-13.5c-3.7-3.7-9.6-3.7-13.4-0.2l0,0l-6.9,6.9l10.6,10.6l1.2-1.2
	C71.4,122.2,74.6,121.3,76.9,119"/>
<g class="st17">
	<g>
		<defs>
			<rect id="SVGID_33_" x="63.8" y="102.7" width="15.8" height="20.1"/>
		</defs>
		<clipPath id="SVGID_34_">
			<use xlink:href="#SVGID_33_"  style="overflow:visible;"/>
		</clipPath>
		<g class="st24">
			<defs>
				<rect id="SVGID_35_" x="63.8" y="102.7" width="15.8" height="20.1"/>
			</defs>
			<clipPath id="SVGID_36_">
				<use xlink:href="#SVGID_35_"  style="overflow:visible;"/>
			</clipPath>
			<path class="st25" d="M76.9,105.5c-2.2-2.2-5.2-3.1-8.1-2.7c-0.3,0.2-0.5,0.4-0.8,0.7c-5.3,5.3-5.5,13.7-0.8,19.3l1.2-1.2
				c3,0.5,6.2-0.3,8.5-2.6C80.6,115.3,80.6,109.2,76.9,105.5"/>
		</g>
	</g>
</g>
<path class="st2" d="M61.4,86.1c4,5.8,10.8,9.7,18.3,9.7c7.5,0,14.3-3.9,18.3-9.7H61.4z"/>
<path class="st26" d="M65.5,54.1c2-2,5.1-2,7.1,0"/>
<path class="st26" d="M86.8,54.1c2-2,5.1-2,7.1,0"/>
<path class="st3" d="M82.4,101.7c0-1.2-1-2.2-2.2-2.2c-1.2,0-2.2,1-2.2,2.2c0,1.2,1,2.2,2.2,2.2C81.4,103.9,82.4,102.9,82.4,101.7"
	/>
<path class="st7" d="M79.7,74.9c2.5,0,4.6-2,4.6-4.6c0-0.6-0.5-1.1-1.1-1.1c-0.6,0-1.1,0.5-1.1,1.1c0,1.3-1.1,2.4-2.4,2.4
	s-2.4-1.1-2.4-2.4c0-0.6-0.5-1.1-1.1-1.1c-0.6,0-1.1,0.5-1.1,1.1C75.1,72.8,77.2,74.9,79.7,74.9"/>
<g class="st17">
	<g>
		<defs>
			<rect id="SVGID_37_" x="68.3" y="43.6" width="33.4" height="39.6"/>
		</defs>
		<clipPath id="SVGID_38_">
			<use xlink:href="#SVGID_37_"  style="overflow:visible;"/>
		</clipPath>
		<g class="st27">
			<defs>
				<rect id="SVGID_39_" x="68.3" y="43.6" width="33.4" height="39.6"/>
			</defs>
			<clipPath id="SVGID_40_">
				<use xlink:href="#SVGID_39_"  style="overflow:visible;"/>
			</clipPath>
			<path class="st28" d="M85,83.2c9.4-2.4,16.7-10.9,16.7-20.9V43.6H68.3v18.7C68.3,72.3,75.6,80.8,85,83.2"/>
		</g>
	</g>
</g>
<path class="st29" d="M79.7,19.8c-12.4,0-22.9,10.2-22.9,22.6v0.4v1.1v12.3c5.4-2.1,10.6-5.9,14.3-10.6c6,7.5,15.8,12.3,25.4,12.3
	h6.1v-14v-1.1v-0.4C102.6,30,92.1,19.8,79.7,19.8"/>
<g class="st14">
	<g>
		<defs>
			<rect id="SVGID_41_" x="68.9" y="19.8" width="33.7" height="38.1"/>
		</defs>
		<clipPath id="SVGID_42_">
			<use xlink:href="#SVGID_41_"  style="overflow:visible;"/>
		</clipPath>
		<g class="st30">
			<defs>
				<rect id="SVGID_43_" x="68.9" y="19.8" width="33.7" height="38.1"/>
			</defs>
			<clipPath id="SVGID_44_">
				<use xlink:href="#SVGID_43_"  style="overflow:visible;"/>
			</clipPath>
			<path class="st31" d="M79.7,19.8c-3.9,0-7.5,1-10.7,2.7c0,0.1,0,0.2,0,0.3c0,17.8,13.3,32.6,30.4,35h3.2v-14v-1.1v-0.4
				C102.6,30,92.1,19.8,79.7,19.8"/>
		</g>
	</g>
</g>
<g>
	<polygon class="st32" points="79.6,87.1 86.4,97.4 82,107 74,104.7 63.8,101.1 72.8,92.4 	"/>
	<polygon class="st33" points="73.8,89.3 83.4,91.6 86,100.6 79,107.1 69.5,104.8 66.8,95.9 	"/>
	<polygon class="st32" points="80,92.4 83.6,98.2 80.1,104 72.9,104.1 69.2,98.3 72.8,92.4 	"/>
	<polygon class="st33" points="75.3,94.3 79.5,95.3 80.7,99.3 77.6,102.2 73.3,101.1 72.2,97.2 	"/>
</g>
<g>
	<polygon class="st32" points="92.2,93.3 97.2,100.8 94,107.8 88.1,106.1 80.7,103.5 87.2,97.2 	"/>
	<polygon class="st33" points="88,94.9 95,96.6 96.9,103.1 91.8,107.9 84.8,106.2 82.9,99.7 	"/>
	<polygon class="st32" points="92.5,97.1 95.1,101.3 92.5,105.6 87.3,105.6 84.7,101.4 87.2,97.2 	"/>
	<polygon class="st33" points="89,98.5 92.1,99.3 93,102.1 90.7,104.3 87.6,103.5 86.8,100.6 	"/>
</g>
<g>
	<polygon class="st32" points="82.7,99.3 87.7,106.8 84.4,113.8 78.6,112.1 71.2,109.5 77.7,103.2 	"/>
	<polygon class="st33" points="78.5,100.9 85.4,102.6 87.4,109.1 82.3,113.9 75.3,112.2 73.4,105.7 	"/>
	<polygon class="st32" points="83,103.2 85.6,107.4 83,111.6 77.8,111.7 75.1,107.4 77.7,103.2 	"/>
	<polygon class="st33" points="79.5,104.5 82.6,105.3 83.5,108.2 81.2,110.3 78.1,109.5 77.3,106.7 	"/>
</g>
</svg>
