<?xml version="1.0" encoding="utf-8"?>
<!-- Generator: Adobe Illustrator 20.1.0, SVG Export Plug-In . SVG Version: 6.00 Build 0)  -->
<svg version="1.1" id="Layer_1" xmlns="http://www.w3.org/2000/svg" xmlns:xlink="http://www.w3.org/1999/xlink" x="0px" y="0px"
	 viewBox="0 0 916.7 280.2" style="enable-background:new 0 0 916.7 280.2;" xml:space="preserve">
<style type="text/css">
	.st0{fill:#FFFFFF;}
	.st1{opacity:0.4;fill:#A4D8E6;}
	.st2{fill:#0A9AB1;}
	.st3{fill:#7A2382;}
	.st4{fill:#5DB139;}
	.st5{fill:#C7D54F;}
	.st6{fill:#EC6898;}
	.st7{fill:#B90F77;}
</style>
<g>
	<path class="st0" d="M518.5,169.3H402.2c-11,0-20-9-20-20v-39.9c0-11,9-20,20-20h116.3c11,0,20,9,20,20v39.9
		C538.5,160.3,529.5,169.3,518.5,169.3z"/>
	<path class="st0" d="M484.4,89.8h-46.4c-11,0-20-9-20-20V29.9c0-11,9-20,20-20h46.4c11,0,20,9,20,20v39.9
		C504.4,80.8,495.4,89.8,484.4,89.8z"/>
	<path class="st0" d="M540.5,248.4H381.2c-11,0-20-9-20-20v-39.9c0-11,9-20,20-20h159.4c11,0,20,9,20,20v39.9
		C560.5,239.4,551.5,248.4,540.5,248.4z"/>
	<path class="st1" d="M420.3,231.4v-43.3c0-10.1,6.4-19.5,13.7-19.5h17.4c-5.6-1-9.1-8.1-9.1-16.4V109c0-10.1,5.4-19.4,12.8-19.4
		h32.4c-6.1-1-11.1-8-11.1-16.9V29.5c0-10.1,6.3-18.8,13.7-18.8h-59.4c-7.3,0-13.2,8.8-13.2,18.8v43.3c0,8.9,4.5,15.9,10.7,16.9
		h-32.4c-7.3,0-13.3,9.3-13.3,19.4v43.3c0,8.3,4.1,15.4,9.6,16.4h-17.4c-7.3,0-13.3,9.4-13.3,19.5v43.3c0,10.1,5.9,17.2,13.3,17.2
		H434C426.7,248.6,420.3,241.4,420.3,231.4z"/>
	<path class="st2" d="M361.2,233.6c0.8,9,6.4,15,13.3,15h172.7c6.8,0,12.5-6,13.3-15H361.2z"/>
	<path class="st2" d="M381.2,151.6c0.8,9,6.4,17,13.3,17h129.9c6.8,0,12.5-8,13.3-17H381.2z"/>
	<path class="st2" d="M417.4,72.6c0.4,9,3.6,16,7.4,16h72.7c3.8,0,7-7,7.4-16H417.4z"/>
	<path class="st3" d="M560.5,271.4H363.8c-5.4,0-9.9-4.4-9.9-9.9V259c0-5.4,4.4-9.9,9.9-9.9h196.7c5.4,0,9.9,4.4,9.9,9.9v2.5
		C570.4,266.9,565.9,271.4,560.5,271.4z"/>
</g>
<g>
	<path class="st4" d="M65.8,204.6H5.3c0,15,12.5,28.5,28,29.7v33.5c-8.7,0.2-15.5,2-15.5,3.8h35c0-1.9-6.8-3.6-15.5-3.8v-33.5
		C53.3,233.4,65.8,219.6,65.8,204.6z"/>
	<path class="st5" d="M44.3,268.4c-2.1-0.3-4.5-0.5-7-0.5v-33.5c2.5-0.1,5-0.4,7.3-1.1c-12.3-3.9-21.3-15.6-21.3-28.6h-18
		c0,15,12.5,28.5,28,29.7v33.5c-8.7,0.2-15.5,2-15.5,3.8h18C35.8,270.3,39.2,269.1,44.3,268.4z"/>
</g>
<g>
	<path class="st4" d="M147.8,204.6H87.3c0,15,12.5,28.5,28,29.7v33.5c-8.7,0.2-15.5,2-15.5,3.8h35c0-1.9-6.8-3.6-15.5-3.8v-33.5
		C135.3,233.4,147.8,219.6,147.8,204.6z"/>
	<path class="st5" d="M126.3,268.4c-2.1-0.3-4.5-0.5-7-0.5v-33.5c2.5-0.1,5-0.4,7.3-1.1c-12.3-3.9-21.3-15.6-21.3-28.6h-18
		c0,15,12.5,28.5,28,29.7v33.5c-8.7,0.2-15.5,2-15.5,3.8h18C117.8,270.3,121.2,269.1,126.3,268.4z"/>
</g>
<g>
	<path class="st4" d="M225.8,204.6h-60.5c0,15,12.5,28.5,28,29.7v33.5c-8.7,0.2-15.5,2-15.5,3.8h35c0-1.9-6.8-3.6-15.5-3.8v-33.5
		C213.3,233.4,225.8,219.6,225.8,204.6z"/>
	<path class="st5" d="M204.3,268.4c-2.1-0.3-4.5-0.5-7-0.5v-33.5c2.5-0.1,5-0.4,7.3-1.1c-12.3-3.9-21.3-15.6-21.3-28.6h-18
		c0,15,12.5,28.5,28,29.7v33.5c-8.7,0.2-15.5,2-15.5,3.8h18C195.8,270.3,199.2,269.1,204.3,268.4z"/>
</g>
<g>
	<path class="st4" d="M306.8,204.6h-60.5c0,15,12.5,28.5,28,29.7v33.5c-8.7,0.2-15.5,2-15.5,3.8h35c0-1.9-6.8-3.6-15.5-3.8v-33.5
		C294.3,233.4,306.8,219.6,306.8,204.6z"/>
	<path class="st5" d="M285.3,268.4c-2.1-0.3-4.5-0.5-7-0.5v-33.5c2.5-0.1,5-0.4,7.3-1.1c-12.3-3.9-21.3-15.6-21.3-28.6h-18
		c0,15,12.5,28.5,28,29.7v33.5c-8.7,0.2-15.5,2-15.5,3.8h18C276.8,270.3,280.2,269.1,285.3,268.4z"/>
</g>
<g>
	<path class="st4" d="M669.8,204.6h-60.5c0,15,12.5,28.5,28,29.7v33.5c-8.7,0.2-15.5,2-15.5,3.8h35c0-1.9-6.8-3.6-15.5-3.8v-33.5
		C657.3,233.4,669.8,219.6,669.8,204.6z"/>
	<path class="st5" d="M648.3,268.4c-2.1-0.3-4.5-0.5-7-0.5v-33.5c2.5-0.1,5-0.4,7.3-1.1c-12.3-3.9-21.3-15.6-21.3-28.6h-18
		c0,15,12.5,28.5,28,29.7v33.5c-8.7,0.2-15.5,2-15.5,3.8h18C639.8,270.3,643.2,269.1,648.3,268.4z"/>
</g>
<g>
	<path class="st4" d="M751.8,204.6h-60.5c0,15,12.5,28.5,28,29.7v33.5c-8.7,0.2-15.5,2-15.5,3.8h35c0-1.9-6.8-3.6-15.5-3.8v-33.5
		C739.3,233.4,751.8,219.6,751.8,204.6z"/>
	<path class="st5" d="M730.3,268.4c-2.1-0.3-4.5-0.5-7-0.5v-33.5c2.5-0.1,5-0.4,7.3-1.1c-12.3-3.9-21.3-15.6-21.3-28.6h-18
		c0,15,12.5,28.5,28,29.7v33.5c-8.7,0.2-15.5,2-15.5,3.8h18C721.8,270.3,725.2,269.1,730.3,268.4z"/>
</g>
<g>
	<path class="st4" d="M829.8,204.6h-60.5c0,15,12.5,28.5,28,29.7v33.5c-8.7,0.2-15.5,2-15.5,3.8h35c0-1.9-6.8-3.6-15.5-3.8v-33.5
		C817.3,233.4,829.8,219.6,829.8,204.6z"/>
	<path class="st5" d="M808.3,268.4c-2.1-0.3-4.5-0.5-7-0.5v-33.5c2.5-0.1,5-0.4,7.3-1.1c-12.3-3.9-21.3-15.6-21.3-28.6h-18
		c0,15,12.5,28.5,28,29.7v33.5c-8.7,0.2-15.5,2-15.5,3.8h18C799.8,270.3,803.2,269.1,808.3,268.4z"/>
</g>
<g>
	<path class="st4" d="M910.8,204.6h-60.5c0,15,12.5,28.5,28,29.7v33.5c-8.7,0.2-15.5,2-15.5,3.8h35c0-1.9-6.8-3.6-15.5-3.8v-33.5
		C898.3,233.4,910.8,219.6,910.8,204.6z"/>
	<path class="st5" d="M889.3,268.4c-2.1-0.3-4.5-0.5-7-0.5v-33.5c2.5-0.1,5-0.4,7.3-1.1c-12.3-3.9-21.3-15.6-21.3-28.6h-18
		c0,15,12.5,28.5,28,29.7v33.5c-8.7,0.2-15.5,2-15.5,3.8h18C880.8,270.3,884.2,269.1,889.3,268.4z"/>
</g>
<g>
	<polygon class="st6" points="425.4,55 437.4,73.1 429.6,90 415.4,86 397.4,79.6 413.3,64.3 	"/>
	<polygon class="st7" points="415.1,58.8 432,62.9 436.6,78.7 424.4,90.3 407.4,86.2 402.8,70.4 	"/>
	<polygon class="st6" points="426,64.2 432.4,74.5 426.1,84.8 413.4,84.9 407,74.6 413.3,64.3 	"/>
	<polygon class="st7" points="417.7,67.6 425.2,69.4 427.2,76.4 421.8,81.5 414.3,79.7 412.2,72.7 	"/>
</g>
<g>
	<polygon class="st6" points="448.2,74.7 457,87.9 451.3,100.3 441,97.4 427.9,92.7 439.4,81.5 	"/>
	<polygon class="st7" points="440.7,77.5 453.1,80.5 456.4,92 447.5,100.4 435.2,97.5 431.8,86 	"/>
	<polygon class="st6" points="448.7,81.5 453.4,88.9 448.8,96.4 439.5,96.5 434.9,89.1 439.4,81.5 	"/>
	<polygon class="st7" points="442.6,83.9 448.1,85.2 449.6,90.3 445.6,94.1 440.1,92.7 438.6,87.7 	"/>
</g>
<g>
	<polygon class="st6" points="390.9,137.4 403,155.5 395.2,172.4 380.9,168.5 363,162 378.9,146.7 	"/>
	<polygon class="st7" points="380.7,141.2 397.6,145.3 402.2,161.1 389.9,172.7 373,168.6 368.4,152.9 	"/>
	<polygon class="st6" points="391.6,146.6 398,156.9 391.7,167.2 379,167.3 372.6,157.1 378.9,146.7 	"/>
	<polygon class="st7" points="383.2,150 390.7,151.8 392.8,158.8 387.3,163.9 379.8,162.1 377.8,155.1 	"/>
</g>
<g>
	<polygon class="st6" points="413.8,157.2 422.6,170.3 416.9,182.7 406.5,179.8 393.4,175.1 405,164 	"/>
	<polygon class="st7" points="406.3,160 418.6,162.9 422,174.4 413,182.9 400.7,179.9 397.4,168.4 	"/>
	<polygon class="st6" points="414.2,163.9 418.9,171.3 414.3,178.9 405.1,178.9 400.4,171.5 405,164 	"/>
	<polygon class="st7" points="408.2,166.3 413.6,167.7 415.1,172.7 411.2,176.5 405.7,175.2 404.2,170.1 	"/>
</g>
<g>
	<polygon class="st6" points="372.1,215.4 384.1,233.5 376.3,250.4 362.1,246.5 344.1,240 360,224.7 	"/>
	<polygon class="st7" points="361.8,219.2 378.7,223.3 383.4,239.1 371.1,250.7 354.2,246.6 349.5,230.9 	"/>
	<polygon class="st6" points="372.7,224.6 379.2,234.9 372.9,245.2 360.2,245.3 353.7,235.1 360,224.7 	"/>
	<polygon class="st7" points="364.4,228 371.9,229.8 373.9,236.8 368.5,241.9 361,240.1 358.9,233.1 	"/>
</g>
<g>
	<polygon class="st6" points="394.9,235.2 403.7,248.3 398,260.7 387.7,257.8 374.6,253.1 386.2,242 	"/>
	<polygon class="st7" points="387.5,238 399.8,240.9 403.1,252.4 394.2,260.9 381.9,257.9 378.5,246.4 	"/>
	<polygon class="st6" points="395.4,241.9 400.1,249.3 395.5,256.9 386.3,256.9 381.6,249.5 386.2,242 	"/>
	<polygon class="st7" points="389.3,244.3 394.8,245.7 396.3,250.7 392.3,254.5 386.9,253.2 385.4,248.1 	"/>
</g>
</svg>
