<?xml version="1.0" encoding="utf-8"?>
<!-- Generator: Adobe Illustrator 20.1.0, SVG Export Plug-In . SVG Version: 6.00 Build 0)  -->
<svg version="1.1" id="Layer_1" xmlns="http://www.w3.org/2000/svg" xmlns:xlink="http://www.w3.org/1999/xlink" x="0px" y="0px"
	 viewBox="0 0 195 340.1" style="enable-background:new 0 0 195 340.1;" xml:space="preserve">
<style type="text/css">
	.st0{fill:#A67E53;}
	.st1{fill:#4F2566;}
	.st2{fill:#8A6944;}
	.st3{fill:#76328A;}
	.st4{fill:#B5B4B4;}
	.st5{fill:#1F3D71;}
	.st6{opacity:0.1;}
	.st7{clip-path:url(#SVGID_2_);}
	.st8{clip-path:url(#SVGID_4_);fill:#020304;}
	.st9{clip-path:url(#SVGID_6_);}
	.st10{clip-path:url(#SVGID_8_);fill:#020304;}
	.st11{opacity:0.2;}
	.st12{clip-path:url(#SVGID_10_);}
	.st13{clip-path:url(#SVGID_12_);fill:#020304;}
	.st14{fill:#EB5B28;}
	.st15{fill:#F4991A;}
	.st16{fill:#94D3E0;}
	.st17{fill:#7AB2BC;}
	.st18{fill:#FFFFFF;}
	.st19{clip-path:url(#SVGID_14_);}
	.st20{clip-path:url(#SVGID_16_);fill:#020304;}
	.st21{clip-path:url(#SVGID_18_);}
	.st22{clip-path:url(#SVGID_20_);fill:#FFFFFF;}
	.st23{fill:#FDDB14;}
	.st24{fill:#020304;}
	.st25{fill:#104F93;}
	.st26{opacity:0.15;}
	.st27{clip-path:url(#SVGID_22_);}
	.st28{clip-path:url(#SVGID_24_);fill:#FFFFFF;}
	.st29{clip-path:url(#SVGID_26_);}
	.st30{clip-path:url(#SVGID_28_);fill:#FFFFFF;}
	.st31{fill:#C69C6C;}
	.st32{fill:#E7E6E6;}
	.st33{fill:#CECCCC;}
	.st34{clip-path:url(#SVGID_30_);}
	.st35{clip-path:url(#SVGID_32_);fill:#FFFFFF;}
</style>
<g>
	<rect x="47.4" y="230.8" class="st0" width="100.2" height="85.7"/>
	<path class="st0" d="M176,204.9v-78.8c0-43.4-35.1-78.5-78.5-78.5c-43.3,0-78.4,35.2-78.4,78.5v78.8H176z"/>
	<path class="st1" d="M127.1,190.8h-25.7h-7.8H67.9c-3.9,0-7.1,3.2-7.1,7.1c0,3.9,3.2,7.1,7.1,7.1h25.7h7.8h25.7
		c3.9,0,7.1-3.2,7.1-7.1C134.2,194,131,190.8,127.1,190.8"/>
	<rect x="35" y="204.9" class="st2" width="132.3" height="25.9"/>
	<path class="st3" d="M126.9,213.5v-8c0-8.1-6.6-14.7-14.7-14.7c-8.1,0-14.7,6.6-14.7,14.7v8V232v72.6h29.3V213.5z"/>
	<path class="st4" d="M109.8,25.7c0,7.1-5.7,12.8-12.8,12.8c-7.1,0-12.8-5.7-12.8-12.8c0-7.1,5.8-12.8,12.8-12.8
		C104,12.9,109.8,18.6,109.8,25.7"/>
	<path class="st5" d="M149.8,173c0,9.8-8,17.8-17.8,17.8H63.1c-9.8,0-17.8-8-17.8-17.8v-49.5c0-9.8,8-17.8,17.8-17.8h68.8
		c9.8,0,17.8,8,17.8,17.8V173z"/>
	<g class="st6">
		<g>
			<defs>
				<rect id="SVGID_1_" x="45.3" y="105.6" width="15.7" height="52.9"/>
			</defs>
			<clipPath id="SVGID_2_">
				<use xlink:href="#SVGID_1_"  style="overflow:visible;"/>
			</clipPath>
			<g class="st7">
				<defs>
					<rect id="SVGID_3_" x="45.3" y="105.6" width="15.7" height="52.9"/>
				</defs>
				<clipPath id="SVGID_4_">
					<use xlink:href="#SVGID_3_"  style="overflow:visible;"/>
				</clipPath>
				<path class="st8" d="M45.3,123.3v35.2c8.4-0.6,15.7-7.7,15.7-16.2v-36.7C52.5,106.7,45.3,114.3,45.3,123.3"/>
			</g>
		</g>
	</g>
	<g class="st6">
		<g>
			<defs>
				<rect id="SVGID_5_" x="134.1" y="127.3" width="15.7" height="63.5"/>
			</defs>
			<clipPath id="SVGID_6_">
				<use xlink:href="#SVGID_5_"  style="overflow:visible;"/>
			</clipPath>
			<g class="st9">
				<defs>
					<rect id="SVGID_7_" x="134.1" y="127.3" width="15.7" height="63.5"/>
				</defs>
				<clipPath id="SVGID_8_">
					<use xlink:href="#SVGID_7_"  style="overflow:visible;"/>
				</clipPath>
				<path class="st10" d="M134.1,145v45.8c8.4-0.6,15.7-7.7,15.7-16.2v-47.3C141.3,128.4,134.1,135.9,134.1,145"/>
			</g>
		</g>
	</g>
	<g class="st11">
		<g>
			<defs>
				<rect id="SVGID_9_" x="97.5" y="190.8" width="29.3" height="113.8"/>
			</defs>
			<clipPath id="SVGID_10_">
				<use xlink:href="#SVGID_9_"  style="overflow:visible;"/>
			</clipPath>
			<g class="st12">
				<defs>
					<rect id="SVGID_11_" x="97.5" y="190.8" width="29.3" height="113.8"/>
				</defs>
				<clipPath id="SVGID_12_">
					<use xlink:href="#SVGID_11_"  style="overflow:visible;"/>
				</clipPath>
				<path class="st13" d="M112.2,190.8c-8.1,0-14.7,6.6-14.7,14.7v8v91h29.3V232v-18.5v-8C126.9,197.4,120.3,190.8,112.2,190.8"/>
			</g>
		</g>
	</g>
	<rect x="84.8" y="95.6" class="st14" width="25.5" height="10"/>
	<path class="st15" d="M69.9,53.5v22.9c0,14.6,12.5,26.5,27.1,26.5c14.6,0,27.1-11.9,27.1-26.5V53.5H69.9z"/>
	<path class="st15" d="M128,70.7c0,2.8-2.2,5-5,5c-2.8,0-5-2.2-5-5c0-2.8,2.2-5,5-5C125.7,65.7,128,68,128,70.7"/>
	<path class="st15" d="M75.1,70.7c0,2.8-2.2,5-5,5s-5-2.2-5-5c0-2.8,2.2-5,5-5S75.1,68,75.1,70.7"/>
	<path class="st15" d="M77.4,304.6V317c0,5.4,4.7,9.8,10.1,9.8c5.4,0,10.1-4.4,10.1-9.8v-12.5H77.4z"/>
	<path class="st15" d="M97.5,304.6V317c0,5.4,4.7,9.8,10.1,9.8c5.4,0,10.1-4.4,10.1-9.8v-12.5H97.5z"/>
	<path class="st16" d="M87.5,321c-5.4,0-10.1-4.4-10.1-9.8v6.3c0,5.4,4.7,9.8,10.1,9.8c5.4,0,10.1-4.4,10.1-9.8v-6.3
		C97.5,316.6,92.8,321,87.5,321"/>
	<path class="st17" d="M107.6,321c-5.4,0-10.1-4.4-10.1-9.8v6.3c0,5.4,4.7,9.8,10.1,9.8c5.4,0,10.1-4.4,10.1-9.8v-6.3
		C117.7,316.6,113,321,107.6,321"/>
	<path class="st18" d="M66.7,76c0,1.4,1.2,2.6,2.6,2.6c1.4,0,2.6-1.2,2.6-2.6c0-1.4-1.2-2.6-2.6-2.6C67.8,73.5,66.7,74.6,66.7,76"/>
	<path class="st18" d="M122,76c0,1.4,1.2,2.6,2.6,2.6c1.4,0,2.6-1.2,2.6-2.6c0-1.4-1.2-2.6-2.6-2.6C123.2,73.5,122,74.6,122,76"/>
	<g class="st11">
		<g>
			<defs>
				<rect id="SVGID_13_" x="77.4" y="304.6" width="40.3" height="4"/>
			</defs>
			<clipPath id="SVGID_14_">
				<use xlink:href="#SVGID_13_"  style="overflow:visible;"/>
			</clipPath>
			<g class="st19">
				<defs>
					<rect id="SVGID_15_" x="77.4" y="304.6" width="40.3" height="4"/>
				</defs>
				<clipPath id="SVGID_16_">
					<use xlink:href="#SVGID_15_"  style="overflow:visible;"/>
				</clipPath>
				<polygon class="st20" points="117.7,308.6 77.4,304.6 117.7,304.6 				"/>
			</g>
		</g>
	</g>
	<path class="st18" d="M90.6,75.1H77.2c-2.4,0-4.4-2-4.4-4.4c0-2.4,2-4.4,4.4-4.4h13.4c2.4,0,4.4,2,4.4,4.4
		C94.9,73.1,93,75.1,90.6,75.1 M77.2,67.6c-1.7,0-3.1,1.4-3.1,3.1c0,1.7,1.4,3.1,3.1,3.1h13.4c1.7,0,3.1-1.4,3.1-3.1
		c0-1.7-1.4-3.1-3.1-3.1H77.2z"/>
	<path class="st18" d="M116.7,75.1h-13.4c-2.4,0-4.4-2-4.4-4.4c0-2.4,2-4.4,4.4-4.4h13.4c2.4,0,4.4,2,4.4,4.4
		C121,73.1,119.1,75.1,116.7,75.1 M103.3,67.6c-1.7,0-3.1,1.4-3.1,3.1c0,1.7,1.4,3.1,3.1,3.1h13.4c1.7,0,3.1-1.4,3.1-3.1
		c0-1.7-1.4-3.1-3.1-3.1H103.3z"/>
	<path class="st14" d="M85.5,70.7c0,0.9-0.8,1.7-1.7,1.7s-1.7-0.8-1.7-1.7c0-0.9,0.8-1.7,1.7-1.7S85.5,69.8,85.5,70.7"/>
	<path class="st14" d="M111.7,70.7c0,0.9-0.8,1.7-1.7,1.7c-0.9,0-1.7-0.8-1.7-1.7c0-0.9,0.8-1.7,1.7-1.7
		C110.9,69.1,111.7,69.8,111.7,70.7"/>
	<path class="st14" d="M96.9,93c3.1,0,5.6-2.5,5.6-5.6c0-0.7-0.6-1.3-1.3-1.3c-0.7,0-1.3,0.6-1.3,1.3c0,1.6-1.3,2.9-2.9,2.9
		S94,89,94,87.4c0-0.7-0.6-1.3-1.3-1.3c-0.7,0-1.3,0.6-1.3,1.3C91.3,90.5,93.8,93,96.9,93"/>
	<rect x="87.3" y="66.4" class="st18" width="18.6" height="1.3"/>
	<g class="st6">
		<g>
			<defs>
				<rect id="SVGID_17_" x="76.3" y="78.4" width="41.2" height="9.7"/>
			</defs>
			<clipPath id="SVGID_18_">
				<use xlink:href="#SVGID_17_"  style="overflow:visible;"/>
			</clipPath>
			<g class="st21">
				<defs>
					<rect id="SVGID_19_" x="76.3" y="78.4" width="41.2" height="9.7"/>
				</defs>
				<clipPath id="SVGID_20_">
					<use xlink:href="#SVGID_19_"  style="overflow:visible;"/>
				</clipPath>
				<path class="st22" d="M117.5,83.3c0,2.7-2.2,4.9-4.9,4.9s-4.9-2.2-4.9-4.9c0-2.7,2.2-4.9,4.9-4.9S117.5,80.6,117.5,83.3"/>
				<path class="st22" d="M86.1,83.3c0,2.7-2.2,4.9-4.9,4.9c-2.7,0-4.9-2.2-4.9-4.9c0-2.7,2.2-4.9,4.9-4.9
					C83.9,78.4,86.1,80.6,86.1,83.3"/>
			</g>
		</g>
	</g>
	<path class="st3" d="M97.5,213.5v-8c0-8.1-6.6-14.7-14.7-14.7c-8.1,0-14.7,6.6-14.7,14.7v8V232v72.6h29.3V213.5z"/>
	<rect x="77.4" y="140.8" class="st18" width="40.3" height="32.2"/>
	<rect x="77.4" y="173" class="st23" width="40.3" height="5.6"/>
	<rect x="77.4" y="178.7" class="st18" width="40.3" height="5.6"/>
	<rect x="77.4" y="161.7" class="st23" width="40.3" height="5.6"/>
	<rect x="68.3" y="138.8" class="st24" width="58.5" height="2"/>
	<path class="st25" d="M148,141l24.5,24.5c4.8,4.8,4.5,13.1-0.3,17.9c-4.8,4.8-13.1,5.1-17.9,0.3l-24.5-24.5L148,141z"/>
	<path class="st15" d="M123.1,149.3c-4.6-4.6-4.6-12,0-16.6c4.5-4.5,11.8-4.6,16.4-0.2l0,0l8.5,8.5l-13,13l-1.5-1.5
		C129.9,153.2,126,152.1,123.1,149.3"/>
	<g class="st26">
		<g>
			<defs>
				<rect id="SVGID_21_" x="119.7" y="129.3" width="19.4" height="24.7"/>
			</defs>
			<clipPath id="SVGID_22_">
				<use xlink:href="#SVGID_21_"  style="overflow:visible;"/>
			</clipPath>
			<g class="st27">
				<defs>
					<rect id="SVGID_23_" x="119.7" y="129.3" width="19.4" height="24.7"/>
				</defs>
				<clipPath id="SVGID_24_">
					<use xlink:href="#SVGID_23_"  style="overflow:visible;"/>
				</clipPath>
				<path class="st28" d="M123.2,132.7c2.7-2.7,6.4-3.8,10-3.3c0.3,0.3,0.6,0.5,0.9,0.8c6.5,6.5,6.8,16.8,0.9,23.7l-1.4-1.4
					c-3.7,0.7-7.6-0.4-10.4-3.2C118.6,144.7,118.6,137.3,123.2,132.7"/>
			</g>
		</g>
	</g>
	<rect x="68.6" y="102.8" class="st24" width="2" height="58.5"/>
	<rect x="67.5" y="154" class="st24" width="4.3" height="13.7"/>
	<path class="st25" d="M47,141l-24.5,24.5c-4.8,4.8-4.5,13.1,0.3,17.9c4.8,4.8,13.1,5.1,17.9,0.3l24.5-24.5L47,141z"/>
	<path class="st15" d="M71.9,149.3c4.6-4.6,4.6-12,0-16.6c-4.5-4.5-11.8-4.6-16.4-0.2l0,0L47,141l13,13l1.5-1.5
		C65.2,153.2,69.1,152.1,71.9,149.3"/>
	<g class="st26">
		<g>
			<defs>
				<rect id="SVGID_25_" x="55.9" y="129.3" width="19.4" height="24.7"/>
			</defs>
			<clipPath id="SVGID_26_">
				<use xlink:href="#SVGID_25_"  style="overflow:visible;"/>
			</clipPath>
			<g class="st29">
				<defs>
					<rect id="SVGID_27_" x="55.9" y="129.3" width="19.4" height="24.7"/>
				</defs>
				<clipPath id="SVGID_28_">
					<use xlink:href="#SVGID_27_"  style="overflow:visible;"/>
				</clipPath>
				<path class="st30" d="M71.9,132.7c-2.7-2.7-6.4-3.8-10-3.3c-0.3,0.3-0.6,0.5-0.9,0.8c-6.5,6.5-6.8,16.8-0.9,23.7l1.4-1.4
					c3.7,0.7,7.6-0.4,10.4-3.2C76.4,144.7,76.4,137.3,71.9,132.7"/>
			</g>
		</g>
	</g>
	<path class="st18" d="M82.1,106.4c0,1.4,1.2,2.6,2.6,2.6c1.4,0,2.6-1.2,2.6-2.6c0-1.4-1.2-2.6-2.6-2.6
		C83.2,103.8,82.1,104.9,82.1,106.4"/>
	<path class="st18" d="M87.2,106.4c0,1.4,1.2,2.6,2.6,2.6c1.4,0,2.6-1.2,2.6-2.6c0-1.4-1.2-2.6-2.6-2.6
		C88.4,103.8,87.2,104.9,87.2,106.4"/>
	<path class="st18" d="M92.4,106.4c0,1.4,1.2,2.6,2.6,2.6c1.4,0,2.6-1.2,2.6-2.6c0-1.4-1.2-2.6-2.6-2.6
		C93.5,103.8,92.4,104.9,92.4,106.4"/>
	<path class="st18" d="M97.5,106.4c0,1.4,1.2,2.6,2.6,2.6c1.4,0,2.6-1.2,2.6-2.6c0-1.4-1.2-2.6-2.6-2.6
		C98.7,103.8,97.5,104.9,97.5,106.4"/>
	<path class="st18" d="M102.7,106.4c0,1.4,1.2,2.6,2.6,2.6c1.4,0,2.6-1.2,2.6-2.6c0-1.4-1.2-2.6-2.6-2.6
		C103.8,103.8,102.7,104.9,102.7,106.4"/>
	<path class="st18" d="M107.8,106.4c0,1.4,1.2,2.6,2.6,2.6c1.4,0,2.6-1.2,2.6-2.6c0-1.4-1.2-2.6-2.6-2.6
		C109,103.8,107.8,104.9,107.8,106.4"/>
	<path class="st31" d="M7.4,316.6c0,5.9,4.8,10.7,10.7,10.7h18.6c5.9,0,10.7-4.8,10.7-10.7V197.9c0-5.9-4.8-10.7-10.7-10.7H18.1
		c-5.9,0-10.7,4.8-10.7,10.7V316.6z"/>
	<path class="st31" d="M147.6,316.6c0,5.9,4.8,10.7,10.7,10.7H177c5.9,0,10.7-4.8,10.7-10.7V197.9c0-5.9-4.8-10.7-10.7-10.7h-18.6
		c-5.9,0-10.7,4.8-10.7,10.7V316.6z"/>
	<path class="st2" d="M56.6,98.4c0,1.6-1.3,2.9-2.9,2.9s-2.9-1.3-2.9-2.9c0-1.6,1.3-2.9,2.9-2.9S56.6,96.9,56.6,98.4"/>
	<path class="st2" d="M144.1,98.4c0,1.6-1.3,2.9-2.9,2.9s-2.9-1.3-2.9-2.9c0-1.6,1.3-2.9,2.9-2.9S144.1,96.9,144.1,98.4"/>
	<path class="st0" d="M30.2,204.9c0,1.6-1.3,2.9-2.9,2.9s-2.9-1.3-2.9-2.9c0-1.6,1.3-2.9,2.9-2.9S30.2,203.3,30.2,204.9"/>
	<path class="st18" d="M39.3,178.1c0-5-4.1-9.1-9.1-9.1c-5,0-9.1,4.1-9.1,9.1c0,5,4.1,9.1,9.1,9.1C35.3,187.2,39.3,183.1,39.3,178.1
		"/>
	<path class="st32" d="M22.5,184c-0.2,0.2-0.6,0.2-0.8,0c-0.2-0.2-0.2-0.6,0-0.8l13.7-13.7c0.2-0.2,0.6-0.2,0.8,0s0.2,0.6,0,0.8
		L22.5,184z"/>
	<path class="st32" d="M23.8,185.3c-0.2,0.2-0.6,0.2-0.8,0c-0.2-0.2-0.2-0.6,0-0.8l13.7-13.7c0.2-0.2,0.6-0.2,0.8,0
		c0.2,0.2,0.2,0.6,0,0.8L23.8,185.3z"/>
	<path class="st32" d="M25.1,186.7c-0.2,0.2-0.6,0.2-0.8,0c-0.2-0.2-0.2-0.6,0-0.8L38,172.2c0.2-0.2,0.6-0.2,0.8,0
		c0.2,0.2,0.2,0.6,0,0.8L25.1,186.7z"/>
	<path class="st18" d="M79.2,142.6c0,0.5-0.4,0.9-0.9,0.9c-0.5,0-0.9-0.4-0.9-0.9v-4.2c0-0.5,0.4-0.9,0.9-0.9c0.5,0,0.9,0.4,0.9,0.9
		V142.6z"/>
	<path class="st18" d="M84.7,142.6c0,0.5-0.4,0.9-0.9,0.9c-0.5,0-0.9-0.4-0.9-0.9v-4.2c0-0.5,0.4-0.9,0.9-0.9c0.5,0,0.9,0.4,0.9,0.9
		V142.6z"/>
	<path class="st18" d="M90.2,142.6c0,0.5-0.4,0.9-0.9,0.9c-0.5,0-0.9-0.4-0.9-0.9v-4.2c0-0.5,0.4-0.9,0.9-0.9c0.5,0,0.9,0.4,0.9,0.9
		V142.6z"/>
	<path class="st18" d="M95.7,142.6c0,0.5-0.4,0.9-0.9,0.9c-0.5,0-0.9-0.4-0.9-0.9v-4.2c0-0.5,0.4-0.9,0.9-0.9c0.5,0,0.9,0.4,0.9,0.9
		V142.6z"/>
	<path class="st18" d="M101.2,142.6c0,0.5-0.4,0.9-0.9,0.9c-0.5,0-0.9-0.4-0.9-0.9v-4.2c0-0.5,0.4-0.9,0.9-0.9
		c0.5,0,0.9,0.4,0.9,0.9V142.6z"/>
	<path class="st18" d="M106.7,142.6c0,0.5-0.4,0.9-0.9,0.9c-0.5,0-0.9-0.4-0.9-0.9v-4.2c0-0.5,0.4-0.9,0.9-0.9
		c0.5,0,0.9,0.4,0.9,0.9V142.6z"/>
	<path class="st18" d="M112.2,142.6c0,0.5-0.4,0.9-0.9,0.9c-0.5,0-0.9-0.4-0.9-0.9v-4.2c0-0.5,0.4-0.9,0.9-0.9
		c0.5,0,0.9,0.4,0.9,0.9V142.6z"/>
	<path class="st18" d="M117.7,142.6c0,0.5-0.4,0.9-0.9,0.9c-0.5,0-0.9-0.4-0.9-0.9v-4.2c0-0.5,0.4-0.9,0.9-0.9
		c0.5,0,0.9,0.4,0.9,0.9V142.6z"/>
	<path class="st33" d="M97.3,20.9C82.5,20.9,70,33,70,47.9v0.5v1.3v14.7c6.4-2.5,12.6-7,17.1-12.6c7.2,9,18.8,14.6,30.4,14.6h7.3
		V49.6v-1.3v-0.5C124.7,33,112.2,20.9,97.3,20.9"/>
	<g class="st11">
		<g>
			<defs>
				<rect id="SVGID_29_" x="84.5" y="20.9" width="40.2" height="45.4"/>
			</defs>
			<clipPath id="SVGID_30_">
				<use xlink:href="#SVGID_29_"  style="overflow:visible;"/>
			</clipPath>
			<g class="st34">
				<defs>
					<rect id="SVGID_31_" x="84.5" y="20.9" width="40.2" height="45.4"/>
				</defs>
				<clipPath id="SVGID_32_">
					<use xlink:href="#SVGID_31_"  style="overflow:visible;"/>
				</clipPath>
				<path class="st35" d="M97.3,20.9c-4.6,0-8.9,1.2-12.8,3.2c0,0.1,0,0.2,0,0.4c0,21.3,15.8,38.9,36.3,41.8h3.8V49.6v-1.3v-0.5
					C124.7,33,112.2,20.9,97.3,20.9"/>
			</g>
		</g>
	</g>
</g>
</svg>
