<?xml version="1.0" encoding="utf-8"?>
<!-- Generator: Adobe Illustrator 23.0.6, SVG Export Plug-In . SVG Version: 6.00 Build 0)  -->
<svg version="1.1" id="Layer_1" xmlns="http://www.w3.org/2000/svg" xmlns:xlink="http://www.w3.org/1999/xlink" x="0px" y="0px"
	 viewBox="0 0 257 639" style="enable-background:new 0 0 257 639;" xml:space="preserve">
<style type="text/css">
	.st0{clip-path:url(#SVGID_2_);}
	.st1{fill:#58C4C5;}
	.st2{fill:#FFFFFF;}
	.st3{fill:#F8B68F;}
	.st4{fill:#212B53;}
	.st5{fill:#043C5E;}
	.st6{fill:#F4A086;}
	.st7{fill:#C4C4C4;}
	.st8{fill:#EF4366;}
	.st9{fill:#63C1C5;}
</style>
<g>
	<defs>
		<rect id="SVGID_1_" width="257" height="639"/>
	</defs>
	<clipPath id="SVGID_2_">
		<use xlink:href="#SVGID_1_"  style="overflow:visible;"/>
	</clipPath>
	<g class="st0">
		<path class="st1" d="M120.9,623H77c-6.1,0.6-12.2,2.2-13.4,7.2c0,0-0.6,3.3-0.6,6.7c1.7,1.7,60.1,0,60.1,0
			C129.3,629.1,120.9,623,120.9,623z"/>
		<path class="st2" d="M62.5,636.9h60.1l-0.6,2.2H62.5V636.9z"/>
		<path class="st2" d="M103.1,623h-3.9l1.7,5h3.3L103.1,623z"/>
		<path class="st2" d="M94.8,623h-3.9l1.1,5h3.9L94.8,623z"/>
		<path class="st3" d="M123.7,607.9l-2.8,14.5c-3.3,1.7-8.4,1.7-11.7,0.6l-0.6-0.6l-2.2-14.5H123.7z"/>
		<path class="st1" d="M223.9,623h-44c-6.1,0.6-12.3,2.2-13.4,7.2c0,0-0.6,3.3-0.6,6.7c1.7,1.7,60.1,0,60.1,0
			C232.3,629.1,223.9,623,223.9,623z"/>
		<path class="st2" d="M165.5,636.9h60.1l-0.6,2.2h-59.6V636.9z"/>
		<path class="st2" d="M206.7,623h-3.9l1.1,5h3.9L206.7,623z"/>
		<path class="st2" d="M197.8,623h-3.9l1.7,5h3.3L197.8,623z"/>
		<path class="st3" d="M222.3,607.9l1.7,14.5c-3.3,1.7-8.4,1.7-11.7,0.6l-0.6-0.6l-7.2-14.5H222.3z"/>
		<path class="st3" d="M156,113.3l36.2,24l-11.1,29c0,0.6-0.6,0.6-0.6,1.1c-0.6,0-1.7,0-2.2,0c0,0,0,0-0.6,0c0,0,0,0-0.6,0
			c-9.5,0-17.8,6.1-23.4,13.9c-6.1-0.6-11.7-1.7-17.3-4.5c-3.9-1.7-6.7-3.9-8.4-6.1C125.4,150,156,113.3,156,113.3z"/>
		<path class="st3" d="M109.8,121.1c0,0-4.5,42.3,4.5,69.1c-3.9,3.3-19.5,20.1-24.5-1.1c-5-21.2,5.6-75.2,5.6-75.2L109.8,121.1z"/>
		<path class="st4" d="M132.1,117.7l8.4,5.6l-3.3,6.7l-8.9-4.5L132.1,117.7z"/>
		<path class="st4" d="M137.1,125.5c-1.1,2.2-1.1,3.9,0,3.9c0.6,0.6,2.2-1.1,2.8-2.8c1.1-2.2,1.1-3.9,0-3.9
			C138.8,122.2,137.6,123.9,137.1,125.5z"/>
		<path class="st5" d="M28.5,86.5c1.7-3.9,4.5-9.5,8.4-15c6.1-8.4,7.8-12.8,7.8-12.8l88.5,57.9l-5.6,10.6L29.1,90.4
			C28.5,89.3,28.5,88.2,28.5,86.5z"/>
		<path class="st6" d="M164.4,181.2l3.3,19.5h-28.4l-2.2-24L164.4,181.2z"/>
		<path class="st3" d="M91.4,230.3c0,0-33.4-10.6-43.4-25.1c-10.6-14.5,7.2-91.9,7.2-91.9L53,99.4c-1.1-7.8,5-15,12.8-15h8.9
			c3.9,0,6.1,3.9,4.5,7.2l-11.7,26.2c0,0-8.9,59,3.3,63.5c14.5,5,31.2,6.7,31.2,6.7L91.4,230.3z"/>
		<path class="st7" d="M153.8,181.2l8.4-18.9l-5.6-3.3c-3.9-2.8-6.1-7.8-4.5-12.3l6.1-17.8c0,0-17.3-2.2-16.7-18.4
			c0-8.4,11.7-8.4,11.7-8.4s3.3,7.2,13.9,8.4c4.5-0.6,17.3,1.1,25.6,15.6c5.6,10,3.3,25.6-1.7,36.8c-4.5,10.6-15.6,16.2-26.7,17.8
			h-10.6V181.2z"/>
		<path class="st4" d="M187.8,340c0,0-1.7,40.7-10.6,84.1c-2.8,12.8-1.7,26.2,2.8,39c19.5,59,47.3,147.6,47.3,147.6h-24.5
			c0,0-56.2-104.7-70.7-156.5c-14.5-51.8-16.7-68.5-16.7-68.5l17.3-45.1h55.1V340z"/>
		<path class="st3" d="M167.2,153.4c1.1,2.8-1.1,6.7-4.5,8.9c-3.3,1.7-7.2,1.1-8.4-2.2c-1.1-2.8,1.1-6.7,4.5-8.9
			C162.7,149.5,166,150,167.2,153.4z"/>
		<path class="st8" d="M107,340h80.7V236.9c0-22.8-17.3-41.8-39.5-43.4L92,186.3c0,0-6.7,10-25.1,33.4
			c22.3,13.4,47.9,20.1,47.9,20.1L107,340z"/>
		<path class="st5" d="M187.8,340c0,0-11.1,41.2-53.5,87.5c-7.2,7.2-17.3,21.7-15.6,41.8l8.9,140.9h-25.1c0,0-30.6-117-23.9-174.9
			c6.7-57.9,29-95.8,29-95.8h80.2V340z"/>
		<path class="st9" d="M41.9,77.1c-4.5,8.9-10,15-13.4,13.9c-2.8-1.7-1.7-10,2.8-18.9c4.5-8.9,10.6-15,13.4-13.9
			C47.4,59.8,46.3,68.2,41.9,77.1z"/>
		<path class="st3" d="M113.7,103.8l-0.6,0.6c-2.8,1.1-5.6,1.7-8.4,0.6h-0.6c-4.5-1.7-8.4-5-9.5-9.5c-0.6-2.2,1.1-3.9,3.3-3.3
			l5.6,1.1c2.2,0.6,3.9,1.7,5.6,3.3L113.7,103.8z"/>
	</g>
</g>
</svg>
