<svg width="187" height="638" viewBox="0 0 187 638" fill="none" xmlns="http://www.w3.org/2000/svg">
<g clip-path="url(#clip0)">
<path d="M101.264 92.6901L96.3356 116.914L70.7955 109.736L87.3742 75.1953L101.264 92.6901Z" fill="#F79C82"/>
<path d="M107.537 99.4187C110.674 100.316 113.362 100.764 115.154 99.8673C127.252 90.447 128.149 54.5603 128.149 54.5603L116.947 44.6914L96.7835 50.0744L88.2702 71.6065C86.0298 77.4381 87.374 83.7182 90.9586 89.1012C95.4393 94.0357 101.264 97.6243 107.537 99.4187Z" fill="#FAB08A"/>
<path d="M94.9912 63.0834C97.2316 59.4948 99.4719 50.9717 103.056 52.766C105.745 54.1117 114.706 57.2518 117.843 58.5976C125.46 60.8405 139.798 62.1863 143.383 50.9717C145.175 45.1401 141.143 38.4113 138.006 35.7198C134.87 33.0283 131.285 32.1311 127.252 32.1311C117.843 32.5797 104.849 35.2712 100.816 33.0283C94.0951 28.991 85.1336 31.2339 83.3414 37.5141C81.101 44.2429 81.5491 55.4575 82.8933 63.0834C83.7894 67.5693 85.1336 71.6065 87.374 75.1952L94.9912 63.0834Z" fill="#A9775A"/>
<path d="M87.3741 61.7379C89.6145 60.8407 92.751 62.1865 94.0952 64.4294C95.8875 67.1209 95.4394 69.8124 93.199 70.7096C90.9587 71.6067 87.8222 70.261 86.478 68.0181C84.6857 65.3265 85.1338 62.635 87.3741 61.7379Z" fill="#FAB08A"/>
<path d="M81.9973 104.353C34.9498 101.662 30.9172 143.38 26.8845 189.135C22.4038 241.171 25.9884 298.141 25.9884 298.141H135.318C135.318 298.141 135.318 249.694 133.974 201.247C133.077 154.146 131.733 107.045 81.9973 104.353Z" fill="#006769"/>
<path d="M129.492 273.918C129.492 273.918 140.246 266.292 144.279 268.087C148.311 269.881 145.175 277.507 145.175 277.507L129.492 273.918Z" fill="#F79C82"/>
<path d="M52.4244 194.967L47.4956 229.508L131.285 271.226L122.324 280.198C122.324 280.198 28.2285 263.152 15.2345 251.04C1.79235 238.48 11.2018 188.687 11.2018 188.687L52.4244 194.967Z" fill="#FAB08A"/>
<path d="M146.519 249.695C165.787 242.966 154.137 177.024 154.137 177.024H142.935C142.487 176.575 127.252 256.423 146.519 249.695Z" fill="#F79C82"/>
<path d="M116.947 278.852L136.662 291.413C144.727 295.001 151.449 289.17 157.273 281.095C160.858 276.161 157.273 269.432 151 269.432C143.831 269.432 135.318 270.778 130.837 271.226L116.947 278.852Z" fill="#FAB08A"/>
<path d="M156.825 177.024L143.383 185.098C143.383 185.098 86.9258 93.587 114.706 117.811C143.831 142.931 156.825 177.024 156.825 177.024Z" fill="#006769"/>
<path d="M90.5105 604.525C90.5105 604.525 90.5105 617.533 116.947 625.608C122.324 627.402 120.531 628.748 121.427 630.991C112.914 630.991 90.9586 630.991 90.9586 630.991L79.3087 617.533L75.7242 620.674L67.2108 612.15C67.2108 612.15 71.2435 600.039 77.5164 600.039C82.8933 602.282 90.5105 604.525 90.5105 604.525Z" fill="#1C2C57"/>
<path d="M95.439 593.31L90.5102 604.525C86.0295 605.87 81.1007 604.525 78.4122 600.936L77.9642 600.487L81.9968 588.824L95.439 593.31Z" fill="#FAB08A"/>
<path d="M10.7535 189.136C10.7535 189.136 28.6763 105.699 71.2431 107.493C113.81 109.288 52.8722 194.967 52.8722 194.967L10.7535 189.136Z" fill="#006769"/>
<path d="M147.211 252.495C172.782 229.942 116.447 119.922 116.447 119.922L103.963 121.758C103.963 121.758 110.701 270.539 147.211 252.495Z" fill="#FAB08A"/>
<path d="M101.264 108.39L99.9202 100.316L77.9647 95.8301L70.7955 104.802L101.264 108.39Z" fill="white"/>
<path d="M116.446 120.921L117.392 99.3357C117.392 99.3357 105.996 83.1726 96.3218 88.0417C94.7069 92.5944 98.1929 101.436 98.1929 101.436L103.945 122.31L116.446 120.921Z" fill="#FAB08A"/>
<path d="M135.318 298.141C135.318 298.141 150.552 393.69 146.967 438.1C143.383 482.51 94.9912 597.796 94.9912 597.796L73.9319 591.516C73.9319 591.516 72.1396 514.359 93.1989 463.669C97.6796 452.454 97.6796 439.894 93.1989 428.679C76.1722 384.718 69.4511 355.56 69.4511 355.56L71.2434 298.141H135.318Z" fill="#1C2C57"/>
<path d="M115.068 120.078L116.067 99.8367C114.636 97.6482 105.189 85.449 96.8052 88.9206C96.0505 92.5417 98.0878 98.7467 98.6411 101.419L98.6587 101.867C97.7632 101.902 97.2979 101.471 96.4024 101.506C95.419 99.3004 93.3466 92.1989 94.5314 88.112L94.5138 87.6638L94.9615 87.6462C105.531 82.742 116.91 98.4568 117.393 99.3357L117.41 99.7839L116.499 122.266L115.156 122.319C116.016 121.387 115.533 120.508 115.068 120.078Z" fill="#F79C82"/>
<path d="M49.2883 611.702C49.2883 611.702 58.6978 620.674 80.2053 626.057C85.134 627.403 90.0628 625.608 90.0628 633.683C80.2052 633.683 64.0747 633.683 64.0747 633.683L42.5673 630.094V633.683H30.4693C30.4693 633.683 27.3329 614.394 34.0539 612.151C40.3269 611.702 49.2883 611.702 49.2883 611.702Z" fill="#1C2C57"/>
<path d="M47.048 597.796L49.2883 611.702C44.8076 614.842 39.4308 614.842 34.95 612.151L34.0539 611.702L35.3981 597.796H47.048Z" fill="#FAB08A"/>
<path d="M103.056 298.142L52.4244 601.833H32.2612C32.2612 601.833 14.7864 520.191 28.2285 453.8C30.4689 442.137 30.917 430.474 29.1247 418.811C16.1306 333.58 25.9882 297.693 25.9882 297.693H103.056V298.142Z" fill="#004060"/>
</g>
<defs>
<clipPath id="clip0">
<rect width="151" height="602" fill="white" transform="translate(8 31)"/>
</clipPath>
</defs>
</svg>
