<svg width="692" height="1115" viewBox="0 0 692 1115" fill="none" xmlns="http://www.w3.org/2000/svg">
<g clip-path="url(#clip0)">
<g clip-path="url(#clip1)">
<path d="M657.227 1127L399.237 325.949H414.01L672 1127H657.227Z" fill="white"/>
<path d="M523.908 1127L266.278 325.949H280.691L538.681 1127H523.908Z" fill="white"/>
<path d="M481.029 534.136V546.022H342.666L340.504 534.136H481.029Z" fill="white"/>
<path d="M452.204 456.336V468.582L314.201 468.222L311.678 456.336H452.204Z" fill="white"/>
<path d="M428.783 378.896V390.782H290.419L288.257 378.896H428.783Z" fill="white"/>
<path d="M505.892 612.656V624.542H367.888L365.366 612.656H505.892Z" fill="white"/>
<path d="M529.673 691.176V703.422L391.67 703.062L389.147 691.176H529.673Z" fill="white"/>
<path d="M554.175 772.938L559.58 784.824H421.577L419.054 772.938H554.175Z" fill="white"/>
<path d="M579.758 854.7L585.523 866.586H447.52L444.997 854.7H579.758Z" fill="white"/>
<path d="M604.26 934.661L609.664 946.548H471.661L469.139 934.301L604.26 934.661Z" fill="white"/>
<path d="M624.438 1016.06L629.843 1027.95H491.839L489.317 1016.06H624.438Z" fill="white"/>
<path d="M14.7732 1127L272.403 325.949H257.63L0 1127H14.7732Z" fill="#004060"/>
<path d="M148.092 1127L405.722 325.949H390.949L133.319 1127H148.092Z" fill="#004060"/>
<path d="M190.971 534.136V546.022H328.974L331.496 534.136H190.971Z" fill="#004060"/>
<path d="M219.436 456.336V468.582L357.8 468.222L359.961 456.336H219.436Z" fill="#004060"/>
<path d="M243.217 378.896V390.782H381.22L383.743 378.896H243.217Z" fill="#004060"/>
<path d="M165.748 612.656V624.542H303.751L306.273 612.656H165.748Z" fill="#004060"/>
<path d="M142.327 691.176V703.422L280.33 703.062L282.853 691.176H142.327Z" fill="#004060"/>
<path d="M117.825 772.938L112.06 784.824H250.424L252.585 772.938H117.825Z" fill="#004060"/>
<path d="M91.882 854.7L86.4772 866.586H224.48L226.642 854.7H91.882Z" fill="#004060"/>
<path d="M67.7405 934.661L61.9754 946.548H200.339L202.501 934.301L67.7405 934.661Z" fill="#004060"/>
<path d="M47.5625 1016.06L42.1577 1027.95H180.161L182.323 1016.06H47.5625Z" fill="#004060"/>
</g>
<path d="M527 111.726L526.432 108.44C525.011 100.774 517.341 91.4643 509.954 89H502L504.557 105.155L515.636 112H527V111.726Z" fill="#9B6F56"/>
<path d="M505.739 102.633L521 111H511.391L495 98.0449C495 98.0449 496.13 95.8857 499.804 97.775C503.478 99.6643 505.739 102.633 505.739 102.633Z" fill="#9B6F56"/>
<path d="M499.471 71.2522C499.471 71.2522 496.199 89.5403 506.907 104.045C507.502 104.991 508.691 105.621 509.881 105.937C512.261 106.252 514.045 105.306 515.533 104.991C517.615 104.36 518.507 103.414 518.805 102.468C519.102 101.837 519.102 100.892 518.507 99.9456C516.425 96.4772 509.584 84.8107 512.856 74.4054C506.907 69.6757 499.471 71.2522 499.471 71.2522Z" fill="#006769"/>
<path d="M516.768 104C518.109 103.371 518.444 103.057 518.78 102.114C519.115 101.486 519.115 100.543 518.444 99.6C516.097 96.1429 508.384 84.5143 512.073 74.1429C509.725 72.5714 507.378 71.6286 505.03 71C504.695 82.6286 507.042 90.1714 516.768 104Z" fill="#118C8C"/>
<path d="M509.085 85.8002C509.541 88.2002 510.451 90.0002 511.134 90.0002C511.817 89.7002 512.272 87.6002 511.817 85.2002C511.362 82.8002 510.451 81.0002 509.768 81.0002C509.085 81.0002 508.858 83.4002 509.085 85.8002Z" fill="#FAA525"/>
<path d="M509 81.3336L510 81.0002V81.6669L509 82.0002V81.3336Z" fill="#EF4366"/>
<path d="M509.237 85.8002C509.825 88.2002 511 90.0002 511.882 90.0002C512.764 89.7002 513.351 87.6002 512.764 85.2002C512.176 82.8002 511 81.0002 510.118 81.0002C509.237 81.3002 508.649 83.4002 509.237 85.8002Z" fill="#FAA525"/>
<path d="M494 55H492.071C488.214 55 485 57.8983 485 61.7627V67.2373C485 71.1017 488.214 74 492.071 74H494V55Z" fill="#FAA525"/>
<path d="M555 61C555 75.4096 551.413 87 547.5 87C543.261 87 540 75.4096 540 61C540 46.5904 543.587 35 547.5 35C551.413 35 555 46.5904 555 61Z" fill="#118C8C"/>
<path d="M540.24 52L546 55.6429V63.5357L539.92 69L538 58.375L540.24 52Z" fill="#FAA525"/>
<path d="M540.669 61C540.669 49.125 542.864 38.8125 546 36C521.538 53.5 493 56 493 56V74.125C493 74.125 531.574 71.9375 546 86C542.864 83.1875 540.669 72.875 540.669 61Z" fill="#58C4C5"/>
<path d="M547 59.0147C547 61.1606 546.667 63 546 63C545.667 63 545 61.1606 545 59.0147C545 56.8687 545.333 55.0294 546 55.0294C546.667 54.7228 547 56.8687 547 59.0147Z" fill="#006769"/>
<path d="M522 98.6364C521.427 98.9091 519.42 100 513.4 100C508.814 100 506.807 94.8182 506.234 91.8182C505.947 90.7273 505.661 89.3636 507.094 88.8182L514.26 88L522 98.6364Z" fill="#9B6F56"/>
<path d="M439.589 157.655C439.589 157.655 500.217 187.199 506.888 180.147C513.56 173.095 527.543 112.283 527.543 112.283L518.546 105.577L490.082 154.496C490.082 154.496 473.86 146.013 456.812 134.218C450.165 129.737 442.138 128.283 436.947 131.678C425.581 138.985 439.589 157.655 439.589 157.655Z" fill="#9B6F56"/>
<path d="M457.625 84.336L446.831 108.061L429.56 92.2445L441.794 57.7346L457.625 84.336Z" fill="#9B6F56"/>
<path d="M463.741 85.7741C466.619 86.1336 469.498 86.1336 470.937 85.0552C481.371 73.1924 477.773 37.9637 477.773 37.9637L465.54 27.5388L446.831 36.1663L441.793 55.578C440.354 62.0486 442.153 73.1924 446.471 77.8656C451.508 82.1793 457.265 85.0552 463.741 85.7741Z" fill="#A9775A"/>
<path d="M429.56 92.2446C429.56 92.2446 404.375 124.598 398.618 145.807C392.861 167.016 390.703 225.611 390.703 225.611H443.952C443.952 225.611 459.064 197.931 470.937 173.127C474.535 165.578 474.535 156.951 471.297 149.401C462.662 129.63 449.709 102.669 449.709 102.669L429.56 92.2446Z" fill="#FFDB71"/>
<path d="M456.545 578.616L460.863 589.401C461.942 592.276 463.741 594.793 466.619 596.59C469.498 598.388 474.175 601.263 481.011 603.061C472.736 610.25 459.064 602.701 451.508 597.309C447.91 594.793 445.032 590.839 443.952 586.525L442.153 578.257H456.545V578.616Z" fill="#A9775A"/>
<path d="M443.233 584.368C443.233 584.368 437.476 588.682 438.556 594.434C439.635 600.185 441.074 613.486 441.074 613.486H446.831L446.471 600.904C446.471 600.185 459.064 613.486 461.223 613.486H492.525C492.525 613.486 494.684 605.218 476.334 602.342C457.985 599.826 443.233 584.368 443.233 584.368Z" fill="#043C5E"/>
<path d="M396.46 578.616L400.777 589.401C401.857 592.276 403.656 594.793 406.534 596.59C409.412 598.388 414.09 601.263 420.926 603.061C412.65 610.25 398.978 602.701 391.423 597.309C387.825 594.793 384.946 590.839 383.867 586.525L382.068 578.257H396.46V578.616Z" fill="#A9775A"/>
<path d="M382.787 584.368C382.787 584.368 377.031 588.682 378.11 594.434C379.19 600.185 380.629 613.486 380.629 613.486H386.385L386.026 600.904C386.026 600.185 398.618 613.486 400.777 613.486H431.72C431.72 613.486 433.878 605.218 415.529 602.342C397.899 599.826 382.787 584.368 382.787 584.368Z" fill="#043C5E"/>
<path d="M443.593 226.689C443.593 226.689 469.858 266.232 447.55 423.323C451.148 482.637 457.625 580.415 457.625 580.415H442.513C442.513 580.415 401.137 476.167 414.809 424.402C418.047 372.997 405.454 225.611 405.454 225.611L443.593 226.689Z" fill="#212B53"/>
<path d="M390.703 225.611C390.703 225.611 362.998 247.899 362.998 280.611C362.998 306.493 375.591 360.056 382.427 394.925C384.946 407.507 382.427 420.807 378.829 433.389C364.078 484.075 382.068 580.775 382.068 580.775H396.819C396.819 580.775 397.539 531.167 418.047 419.729C441.434 291.755 443.593 225.611 443.593 225.611H390.703Z" fill="#043C5E"/>
<path d="M400.832 119.901C400.832 119.901 365.417 180.347 373.305 191.07C381.194 201.794 450.383 242.461 450.383 242.461L458.293 234.409L403.096 181.215C403.096 181.215 413.234 165.271 427.18 149.651C432.485 143.515 434.362 134.541 430.616 127.023C422.562 110.615 400.832 119.901 400.832 119.901Z" fill="#A9775A"/>
<path d="M441.836 37.5922C441.836 37.5922 450.111 42.6249 475.297 26.4484C479.254 27.5268 473.138 -8.78035 440.396 2.00396C417.729 9.55298 418.809 31.4811 419.888 43.7033C420.968 57.004 414.131 65.6314 405.137 75.3373C397.581 83.2458 397.581 98.3438 392.544 106.252C386.427 115.958 379.591 115.599 374.914 125.305C369.877 135.729 369.157 148.671 375.993 158.017C379.951 163.409 388.946 176.35 403.697 171.677C411.973 169.161 414.131 154.782 414.491 142.919C414.851 132.135 419.888 122.429 428.163 115.599C436.079 109.488 444.714 100.86 446.873 91.8732C450.831 74.2589 441.836 37.5922 441.836 37.5922Z" fill="#212B53"/>
<path d="M439.635 49.8256C441.434 48.3877 444.672 49.4661 446.471 51.623C448.27 54.1393 448.27 57.0152 446.471 58.4531C444.672 59.891 441.434 58.8126 439.635 56.6557C437.476 54.4988 437.476 51.2635 439.635 49.8256Z" fill="#A9775A"/>
<path d="M477.676 271.07C479.047 270.508 479.855 268.573 479.292 267.201L475.9 252.277C474.926 248.526 472.87 245.125 469.58 243.079L457.501 234.546L456.435 233.096L445.157 239.606C447.732 241.285 449.164 242.019 449.164 242.019L457.1 247.347C457.1 247.347 455.293 272.796 471.506 269.356C460.913 279.828 464.706 281.951 464.706 281.951L477.676 271.07Z" fill="#A9775A"/>
<path d="M429.92 36.5256C432.799 46.5909 447.191 51.2641 461.942 47.3099C476.694 43.3556 484.969 31.8524 483.89 21.787C482.45 8.12689 466.619 7.04846 451.868 11.0027C437.116 14.957 427.042 26.4602 429.92 36.5256Z" fill="#212B53"/>
</g>
<defs>
<clipPath id="clip0">
<rect width="692" height="1115" fill="white"/>
</clipPath>
<clipPath id="clip1">
<rect width="672" height="1091" fill="white" transform="translate(0 36)"/>
</clipPath>
</defs>
</svg>
