<svg width="661" height="768" viewBox="0 0 661 768" fill="none" xmlns="http://www.w3.org/2000/svg">
<g clip-path="url(#clip0)">
<path d="M138 198.714C138 198.714 147.466 184.341 150.73 180.748C162.48 168.336 140.285 108.559 154.647 99.0862C169.008 89.6134 273.457 77.5275 284.882 99.0862C296.306 120.645 302.181 186.954 280.965 196.427C259.748 205.573 176.189 199.04 167.05 196.101C151.383 190.874 138 198.714 138 198.714Z" fill="#EF4366"/>
<path d="M187.287 142.108C187.287 142.108 215.358 152.888 215.684 176.406C219.275 191.432 225.803 182.286 225.803 182.286C225.803 182.286 231.678 165.954 225.803 153.868C236.248 151.908 243.102 152.888 250.609 149.621C258.117 146.355 256.158 126.103 243.102 109.443C233.963 97.6842 189.572 110.75 189.572 110.75L187.287 142.108Z" fill="white"/>
</g>
<defs>
<clipPath id="clip0">
<rect width="157" height="114" fill="white" transform="translate(138 87)"/>
</clipPath>
</defs>
</svg>
