<?xml version="1.0" encoding="utf-8"?>
<!-- Generator: Adobe Illustrator 23.0.6, SVG Export Plug-In . SVG Version: 6.00 Build 0)  -->
<svg version="1.1" id="Layer_1" xmlns="http://www.w3.org/2000/svg" xmlns:xlink="http://www.w3.org/1999/xlink" x="0px" y="0px"
	 viewBox="0 0 661 768" style="enable-background:new 0 0 661 768;" xml:space="preserve">
<style type="text/css">
	.st0{clip-path:url(#SVGID_2_);}
	.st1{fill:#00666A;}
	.st2{fill:#FFFFFF;}
</style>
<g>
	<defs>
		<rect id="SVGID_1_" x="477" y="189" width="121" height="88"/>
	</defs>
	<clipPath id="SVGID_2_">
		<use xlink:href="#SVGID_1_"  style="overflow:visible;"/>
	</clipPath>
	<g class="st0">
		<path class="st1" d="M477,275.2c0,0,7.3-11.1,9.8-13.9c9.1-9.6-8.1-55.7,3-63c11.1-7.3,91.6-16.6,100.4,0
			c8.8,16.6,13.3,67.8-3,75.1c-16.4,7.1-80.8,2-87.8-0.3C487.3,269.2,477,275.2,477,275.2z"/>
		<path class="st2" d="M515,234.1c0,0,21.6-8.3,21.9-26.5c2.8-11.6,7.8-4.5,7.8-4.5s4.5,12.6,0,21.9c8,1.5,13.3,0.8,19.1,3.3
			c5.8,2.5,4.3,18.2-5.8,31c-7,9.1-41.3-1-41.3-1L515,234.1z"/>
	</g>
</g>
</svg>
