<svg width="661" height="768" viewBox="0 0 661 768" fill="none" xmlns="http://www.w3.org/2000/svg">
<g clip-path="url(#clip0)">
<path d="M342.43 200.717L331.445 221.562L343.469 220.966L344.359 200.121L342.43 200.717Z" fill="#F8B68F"/>
<path d="M359.649 191.486H349.555L345.25 257.445H363.508L359.649 191.486Z" fill="white"/>
<path d="M378.352 385.046C378.352 385.046 380.876 386.982 380.43 389.513C379.985 392.044 379.243 398 379.243 398H376.719L376.868 392.491C376.868 392.193 371.375 398 370.336 398H356.68C356.68 398 355.789 394.278 363.805 393.086C371.821 391.895 378.352 385.046 378.352 385.046Z" fill="#043C5E"/>
<path d="M372.414 382.515L370.633 387.429C370.188 388.769 369.297 389.96 368.11 390.704C366.774 391.598 364.696 392.64 361.727 393.682C365.438 396.809 371.375 393.533 374.79 391.151C376.422 389.96 377.61 388.322 378.055 386.386L378.797 382.664H372.414V382.515Z" fill="#F8B68F"/>
<path d="M352.375 385.046C352.375 385.046 354.899 386.982 354.453 389.513C354.008 392.044 353.266 398 353.266 398H350.742L350.891 392.491C350.891 392.193 345.398 398 344.359 398H330.554C330.554 398 329.663 394.278 337.679 393.086C345.695 391.895 352.375 385.046 352.375 385.046Z" fill="#043C5E"/>
<path d="M346.437 382.515L344.656 387.429C344.211 388.769 343.32 389.96 342.133 390.704C340.797 391.598 338.718 392.64 335.75 393.682C339.461 396.809 345.398 393.533 348.812 391.151C350.445 389.96 351.633 388.322 352.078 386.386L352.82 382.664H346.437V382.515Z" fill="#F8B68F"/>
<path d="M367.516 257.445C367.516 257.445 369.297 267.272 359.352 315.811C367.368 341.123 354.602 383.26 354.602 383.26H345.25L338.867 257.445H367.516Z" fill="#212B53"/>
<path d="M350.594 191.486L347.328 271.441L336.343 266.676C336.343 266.676 341.242 251.638 340.797 230.793C342.429 215.755 333.968 223.646 344.359 194.612C348.367 191.486 350.594 191.486 350.594 191.486Z" fill="#FFDB71"/>
<path d="M349.258 183.296L350.594 189.997C351.188 192.975 354.453 194.463 357.125 192.826L361.578 189.997L353.563 171.832L349.258 183.296Z" fill="#F4A086"/>
<path d="M376.423 257.445C376.423 257.445 388.595 267.272 378.798 315.811C386.814 341.123 379.688 383.26 379.688 383.26H371.376L347.922 257.445H376.423Z" fill="#043C5E"/>
<path d="M359.649 184.785C359.649 184.785 369.891 190.592 373.157 195.804C376.126 200.717 377.313 211.884 377.61 221.86C378.055 235.558 384.587 271.59 384.587 271.59H356.977L356.234 193.272L359.649 184.785Z" fill="#FFDB71"/>
<path d="M339.461 163.047C345.695 161.409 351.633 167.812 351.633 167.812L356.383 193.123L363.657 181.956C363.657 181.956 364.102 166.769 357.125 156.794C352.078 150.689 342.578 152.476 337.679 158.431C335.304 161.26 334.859 165.28 335.007 168.854C335.304 173.767 336.64 201.908 336.64 201.908L350.891 191.337C350.891 191.337 350.594 188.508 349.258 183.297C346.883 174.363 335.304 164.089 339.461 163.047Z" fill="#043C5E"/>
<path d="M353.562 167.514C352.672 167.067 351.484 167.812 350.891 168.854C350.297 170.045 350.594 171.236 351.633 171.534C352.523 171.981 353.711 171.236 354.305 170.194C354.75 169.003 354.453 167.812 353.562 167.514Z" fill="#F8B68F"/>
<path d="M346.883 184.488C345.695 184.934 344.656 185.083 343.765 184.934C338.422 181.063 336.343 165.281 336.343 165.281L340.648 160.665L349.258 162.452L353.414 171.832C354.602 174.363 354.453 177.192 353.117 179.574C351.484 181.808 349.406 183.445 346.883 184.488Z" fill="#F8B68F"/>
<path d="M337.976 162.749C338.422 167.514 351.633 167.961 351.633 167.961L352.375 161.558L344.656 157.24L338.57 160.814C338.57 160.814 337.976 161.856 337.976 162.749Z" fill="#043C5E"/>
<path d="M338.273 163.643C338.718 165.429 336.937 168.556 336.937 168.556L335.898 166.62V164.983L336.937 163.643C336.937 163.643 337.828 161.856 338.273 163.643Z" fill="#212B53"/>
<path d="M370.336 195.655C383.696 197.144 377.313 231.687 374.493 245.831C373.751 249.256 370.188 251.489 366.922 250.298C355.344 246.725 338.422 231.538 338.422 231.538L341.093 228.113L363.657 233.324C363.508 233.324 354.899 193.868 370.336 195.655Z" fill="#F8B68F"/>
<path d="M343.765 220.073L348.07 247.023C348.219 247.767 347.625 248.511 346.734 248.511H329.515C328.921 248.511 328.328 248.065 328.179 247.469L324.023 220.371C323.874 219.626 324.468 218.882 325.359 218.882H342.429C343.023 219.031 343.617 219.477 343.765 220.073Z" fill="white"/>
<path d="M324.617 231.984C324.468 231.091 324.617 230.496 324.913 228.411C325.359 225.88 325.21 221.86 327.882 223.795C330.406 226.922 330.554 230.198 330.554 230.198C331 231.984 329.96 234.516 328.921 235.856L327.14 239.727C327.14 239.876 324.023 236.302 324.617 231.984Z" fill="#F8B68F"/>
<path d="M335.898 229.453C335.898 230.198 335.304 230.793 334.562 230.793C333.82 230.793 333.226 230.198 333.226 229.453C333.226 228.709 333.82 228.113 334.562 228.113C335.304 228.113 335.898 228.709 335.898 229.453Z" fill="url(#paint0_linear)"/>
<path d="M440.148 568.295C440.148 568.295 532.068 468.51 624.644 492.104C654.301 603.031 535.509 654.972 535.509 654.972L392.14 682.335L440.148 568.295Z" fill="#212B53"/>
<path d="M581.223 626.626L483.404 605.817L569.918 537.163L627.593 547.486L628.085 544.537L573.031 534.706L626.61 492.104L623.661 490.63L525.514 568.623L519.779 506.851L517.158 509.473L522.728 570.753L392.631 678.403L392.139 682.336L480.291 608.275L577.619 628.92L581.223 626.626Z" fill="#00666A"/>
<path d="M411.365 683.609C411.365 683.609 347.627 472.733 498.534 399C623.225 516.809 467.73 674.761 467.73 674.761L411.365 683.609Z" fill="#198A8D"/>
<path d="M547.341 513.554L546.522 510.441L465.252 571.066L477.377 410.164L474.427 410L465.907 524.04L413.311 483.733L412 486.682L465.579 527.645L455.421 662.003L458.37 663.969L465.088 574.998L547.341 513.554Z" fill="white"/>
<path d="M394.105 679.386C394.105 679.386 546.159 576.488 608.259 681.844C542.391 822.592 358.877 748.859 358.877 748.859L394.105 679.386Z" fill="#FFD248"/>
<path d="M516.83 762.623L455.222 703.636L608.423 683.319L607.931 680.369L515.028 692.658L555.827 639.407L552.713 638.587L510.931 693.15L377.557 710.846L375.754 714.123L451.453 704.128L512.734 762.95L516.83 762.623Z" fill="white"/>
<path d="M5.07939 768.685L92.9036 392.647H87.988L0 768.685H5.07939Z" fill="#01898C"/>
<path d="M50.4662 768.685L138.454 392.647H133.375L45.5507 768.685H50.4662Z" fill="#01898C"/>
<path d="M65.2128 490.302V495.873H112.238L113.057 490.302H65.2128Z" fill="#01898C"/>
<path d="M74.8798 453.764V459.498L122.069 459.334L122.888 453.764H74.8798Z" fill="#01898C"/>
<path d="M82.9088 417.389V422.96H130.098L130.917 417.389H82.9088Z" fill="#01898C"/>
<path d="M56.6926 527.169V532.74H103.718L104.537 527.169H56.6926Z" fill="#01898C"/>
<path d="M48.5001 564.035V569.606H95.6892L96.5084 564.035H48.5001Z" fill="#01898C"/>
<path d="M40.3071 602.376L38.3409 607.947H85.3661L86.1854 602.376H40.3071Z" fill="#01898C"/>
<path d="M31.4593 640.717L29.493 646.288H76.6822L77.3376 640.717H31.4593Z" fill="#01898C"/>
<path d="M23.1027 678.24L21.1365 683.811H68.3256L69.1449 678.24H23.1027Z" fill="#01898C"/>
<path d="M16.2212 716.581L14.4189 722.152H61.4441L62.2634 716.417L16.2212 716.581Z" fill="#01898C"/>
<path d="M220.544 768.685L132.556 392.647H137.471L225.459 768.685H220.544Z" fill="#043C5E"/>
<path d="M174.993 768.685L87.0052 392.647H92.0846L180.073 768.685H174.993Z" fill="#043C5E"/>
<path d="M160.41 490.302V495.873H113.221L112.402 490.302H160.41Z" fill="#043C5E"/>
<path d="M150.58 453.764V459.498L103.554 459.334L102.735 453.764H150.58Z" fill="#043C5E"/>
<path d="M142.551 417.389V422.96H95.3619L94.5426 417.389H142.551Z" fill="#043C5E"/>
<path d="M168.931 527.169V532.74H121.742L120.922 527.169H168.931Z" fill="#043C5E"/>
<path d="M176.959 564.035V569.606H129.77L129.115 564.035H176.959Z" fill="#043C5E"/>
<path d="M185.316 602.376L187.118 607.947H140.093L139.274 602.376H185.316Z" fill="#043C5E"/>
<path d="M194.164 640.717L195.966 646.288H148.941L148.122 640.717H194.164Z" fill="#043C5E"/>
<path d="M202.357 678.24L204.323 683.811H157.134L156.314 678.24H202.357Z" fill="#043C5E"/>
<path d="M209.238 716.581L211.204 722.152H164.015L163.196 716.417L209.238 716.581Z" fill="#043C5E"/>
<path d="M438.837 294.172C438.182 305.969 377.884 330.383 304.315 325.959C230.746 321.535 178.805 288.437 179.461 276.64C180.116 264.843 233.204 260.255 306.773 264.679C380.506 269.103 439.492 282.375 438.837 294.172Z" fill="#212B53"/>
<path d="M260.239 264.187C242.707 264.187 226.65 264.842 213.05 266.317C189.292 268.775 175.037 273.199 174.709 278.442C174.381 283.521 186.998 294.008 211.412 304.331C227.305 311.048 260.567 322.846 304.151 325.467C347.736 328.089 381.981 320.388 398.53 315.636C423.927 308.263 438.346 299.415 438.673 294.336H437.854C438.509 284.341 385.913 270.413 306.609 265.662C290.552 264.515 274.986 264.187 260.239 264.187Z" fill="#043C5E"/>
<path d="M131.081 409.36C131.081 409.36 135.177 413.128 144.517 415.586C146.647 416.078 148.777 415.422 148.777 418.863C144.353 418.863 137.471 418.863 137.471 418.863L127.968 417.225V418.863H122.888C122.888 418.863 121.414 410.507 124.363 409.524C127.312 409.36 131.081 409.36 131.081 409.36Z" fill="#212B53"/>
<path d="M130.59 403.297L131.245 409.36C129.443 410.67 126.985 410.67 125.019 409.523L124.691 409.36L122.561 403.297H130.59Z" fill="#A9775A"/>
<path d="M102.735 409.36C102.735 409.36 106.831 413.128 116.17 415.586C118.301 416.078 120.431 415.422 120.431 418.863C116.007 418.863 109.125 418.863 109.125 418.863L99.6215 417.225V418.863H94.5421C94.5421 418.863 93.0675 410.507 96.0168 409.524C98.9661 409.36 102.735 409.36 102.735 409.36Z" fill="#212B53"/>
<path d="M102.079 403.297L102.571 409.36C100.769 410.67 98.3108 410.67 96.3445 409.523L96.0168 409.36L93.8868 403.297H102.079Z" fill="#A9775A"/>
<path d="M112.402 206.676L110.763 216.507L102.079 212.575L105.028 200.942L112.402 206.676Z" fill="#9B6F56"/>
<path d="M115.515 207.659C116.662 207.659 117.809 207.495 118.464 207.004C121.905 201.924 117.973 188.161 117.973 188.161L112.402 185.867L105.356 190.291L105.028 199.467C104.865 201.924 106.175 204.218 108.142 205.857C110.272 207.004 112.893 207.659 115.515 207.659Z" fill="#A9775A"/>
<path d="M107.158 192.913C107.486 191.438 109.125 190.291 110.599 190.619C111.746 190.783 113.057 190.946 114.368 190.946C117.481 190.946 121.413 189.636 121.413 184.884C121.413 180.132 115.515 181.771 115.515 181.771C115.515 181.771 103.39 183.573 98.6381 187.178C96.3442 188.816 100.113 194.223 101.587 196.845C102.407 198.32 103.39 199.794 104.701 200.941L107.158 192.913Z" fill="#212B53"/>
<path d="M103.226 195.698C103.882 195.043 105.192 195.206 106.176 196.026C107.159 196.845 107.323 197.992 106.503 198.484C105.848 199.139 104.537 198.975 103.554 198.156C102.735 197.5 102.407 196.353 103.226 195.698Z" fill="#A9775A"/>
<path d="M110.763 216.507C110.763 216.507 123.871 237.972 131.736 287.946C116.006 292.862 91.9204 298.269 91.9204 298.269C91.9204 298.269 77.6653 244.198 102.243 212.575C107.159 212.575 110.763 216.507 110.763 216.507Z" fill="url(#paint1_linear)"/>
<path d="M131.736 287.946C131.736 287.946 142.714 324.813 142.714 341.362C142.714 358.074 131.736 405.1 131.736 405.1H121.741C121.741 405.1 119.448 372.166 122.233 353.814C123.052 348.407 122.725 342.836 121.086 337.593C115.679 319.078 109.944 294.009 109.944 294.009L131.736 287.946Z" fill="#212B53"/>
<path d="M124.199 290.896C124.199 290.896 126.984 330.875 122.56 345.294C117.973 359.713 102.898 405.1 102.898 405.1H94.0503C94.0503 405.1 91.7564 380.358 98.9658 354.142C100.768 347.752 100.44 341.034 98.3104 334.808C91.4287 314.326 92.0841 298.269 92.0841 298.269L124.199 290.896Z" fill="#043C5E"/>
<path d="M111.255 213.394L102.735 208.642L102.079 212.574L111.255 217.326V213.394Z" fill="white"/>
<path d="M146.319 293.517C146.811 293.844 148.285 294.5 152.054 294.336C155.331 294.172 161.885 291.878 161.066 295.319C158.28 297.449 155.167 300.071 155.167 300.071C153.365 301.218 149.76 300.726 147.63 300.071L141.24 297.121C141.24 297.121 140.257 293.844 140.257 293.681L141.567 293.025C142.878 293.517 144.681 293.517 146.319 293.517Z" fill="#A9775A"/>
<path d="M147.63 294.828C147.63 294.828 147.794 294.992 147.958 295.155C147.63 295.319 147.138 295.647 146.811 295.811C145.172 296.139 143.534 296.466 141.731 296.63C141.731 295.647 141.731 294.336 141.731 294.172L152.382 290.24C152.382 290.24 153.365 291.223 151.562 292.698C149.76 294.172 147.63 294.828 147.63 294.828Z" fill="#A9775A"/>
<path d="M112.402 233.711L115.351 257.634C115.843 262.221 117.973 266.645 121.086 269.922L142.714 292.862L140.584 298.269C140.584 298.269 108.142 283.031 102.079 273.855C96.1806 264.843 93.0674 237.152 93.0674 237.152L112.402 233.711Z" fill="url(#paint2_linear)"/>
<path d="M94.8699 246.328C96.3445 255.176 98.8023 267.956 102.571 273.527C107.978 281.884 136.652 295.811 140.42 297.613L142.223 292.862L120.922 270.25C117.645 266.809 115.515 262.385 115.024 257.634L113.713 246.983C114.04 246.82 114.204 246.656 114.532 246.492L115.843 257.634C116.334 262.222 118.301 266.318 121.578 269.759L143.206 292.698L143.37 292.862L140.912 298.924L140.42 298.76C139.11 298.105 107.814 283.358 101.752 274.183C97.8192 268.284 95.1976 254.848 93.8868 245.837C94.2145 246 94.5422 246.164 94.8699 246.328Z" fill="#63C1C5"/>
<path d="M440 295.2V618.81L178.46 660V518.872H137L174.199 276C174.199 276 188.456 302.092 300.872 308C413.125 313.744 440 295.2 440 295.2Z" fill="#63C1C5"/>
<path d="M364.35 308.432L307 639L440 618.032V295C440 295 423.988 306.139 364.35 308.432Z" fill="#36B9C3"/>
<path d="M259 647.431V769H440V619L259 647.431Z" fill="#01898C"/>
<path d="M525.023 768.685L437.035 392.647H442.114L530.102 768.685H525.023Z" fill="#043C5E"/>
<path d="M479.636 768.685L391.648 392.647H396.727L484.551 768.685H479.636Z" fill="#043C5E"/>
<path d="M464.889 490.302V495.873H417.864L417.045 490.302H464.889Z" fill="#043C5E"/>
<path d="M455.222 453.763V459.498L408.033 459.334L407.214 453.763H455.222Z" fill="#043C5E"/>
<path d="M447.029 417.389V422.96H400.004L399.185 417.389H447.029Z" fill="#043C5E"/>
<path d="M473.41 527.169V532.74H426.384L425.565 527.169H473.41Z" fill="#043C5E"/>
<path d="M481.602 564.035V569.606H434.413L433.594 564.035H481.602Z" fill="#043C5E"/>
<path d="M489.794 602.376L491.761 607.947H444.735L443.916 602.376H489.794Z" fill="#043C5E"/>
<path d="M498.642 640.717L500.609 646.288H453.42L452.764 640.717H498.642Z" fill="#043C5E"/>
<path d="M506.999 678.239L508.801 683.81H461.776L460.957 678.239H506.999Z" fill="#043C5E"/>
<path d="M513.881 716.581L515.683 722.152H468.658L467.839 716.417L513.881 716.581Z" fill="#043C5E"/>
<path d="M438.181 484.403H421.96C419.83 484.567 417.372 485.222 417.045 487.025C417.045 487.025 416.717 488.335 416.881 489.482C417.372 490.138 438.837 489.318 438.837 489.318H439.001C441.131 486.533 438.181 484.403 438.181 484.403Z" fill="#043C5E"/>
<path d="M416.717 489.482L438.837 489.318L438.673 490.302H416.717V489.482Z" fill="#63C1C5"/>
<path d="M431.791 484.239H430.317L430.808 486.369H432.119L431.791 484.239Z" fill="white"/>
<path d="M428.678 484.239H427.203L427.695 486.369H429.006L428.678 484.239Z" fill="white"/>
<path d="M439.328 478.996L438.181 484.403C436.871 485.058 435.232 485.058 433.921 484.567L433.594 484.403L432.774 478.996H439.328Z" fill="#F8B68F"/>
<path d="M458.663 484.403H442.442C440.311 484.567 437.854 485.222 437.526 487.025C437.526 487.025 437.198 488.335 437.362 489.482C437.854 490.138 459.318 489.318 459.318 489.318H459.482C461.612 486.533 458.663 484.403 458.663 484.403Z" fill="#11375B"/>
<path d="M437.362 489.482L459.318 489.318L459.154 490.302H437.362V489.482Z" fill="#63C1C5"/>
<path d="M452.272 484.239H450.797L451.289 486.369H452.6L452.272 484.239Z" fill="white"/>
<path d="M449.159 484.239H447.684L448.176 486.369H449.487L449.159 484.239Z" fill="white"/>
<path d="M459.81 478.996L458.663 484.403C457.352 485.058 455.713 485.058 454.403 484.567L454.239 484.403L453.42 478.996H459.81Z" fill="#F8B68F"/>
<path d="M450.798 282.374L464.07 291.058L459.973 301.545C459.973 301.709 459.81 301.873 459.81 302.037C459.482 302.037 459.154 302.037 458.99 302.037H458.826H458.663C455.058 302.037 452.109 304.167 450.142 307.116C448.012 306.952 445.882 306.46 443.916 305.477C442.605 304.822 441.458 304.003 440.967 303.183C439.492 295.81 450.798 282.374 450.798 282.374Z" fill="#F9D4BF"/>
<path d="M453.747 307.116L454.894 314.326H444.735L443.916 305.478L453.747 307.116Z" fill="#F8B68F"/>
<path d="M450.142 307.116L453.256 300.234L451.289 298.924C449.815 297.94 449.159 296.138 449.651 294.5L451.945 287.946C451.945 287.946 445.555 287.126 445.718 281.228C445.718 278.115 449.979 278.115 449.979 278.115C449.979 278.115 451.289 280.9 455.058 281.228C456.696 281.064 461.284 281.555 464.397 286.962C466.528 290.567 465.544 296.302 463.742 300.562C462.104 304.331 458.007 306.461 453.911 307.116H450.142Z" fill="#11375B"/>
<path d="M462.431 365.447C462.431 365.447 461.121 390.025 458.171 409.359C457.516 413.783 458.499 418.371 459.81 422.631C465.545 441.802 460.629 479.815 460.629 479.815H451.617C451.617 479.815 440.475 427.71 441.131 408.704C441.786 389.041 436.051 381.996 436.051 381.996L442.278 365.447H462.431Z" fill="#212B53"/>
<path d="M454.894 296.957C455.222 298.104 454.566 299.415 453.255 300.234C451.945 300.89 450.634 300.562 450.142 299.579C449.815 298.432 450.47 296.957 451.781 296.302C453.092 295.483 454.566 295.81 454.894 296.957Z" fill="#F9D4BF"/>
<path d="M462.431 365.447C462.431 365.447 462.759 381.996 445.227 409.523C442.277 414.275 440.803 419.682 441.13 425.253C442.277 444.587 440.475 479.815 440.475 479.815H431.299C431.299 479.815 418.191 429.021 420.485 407.884C422.943 386.748 432.774 365.447 432.774 365.447H462.431Z" fill="#043C5E"/>
<path d="M443.05 329.379C443.05 329.379 431.194 324.696 427.751 319.391C424.318 313.922 432.479 285.868 432.479 285.868L431.979 280.747C431.673 277.773 434.126 275.3 437.07 275.484L440.34 275.689C441.649 275.771 442.548 277.141 441.812 278.408L436.955 287.79C436.955 287.79 432.332 309.171 436.808 311.093C442.082 313.394 448.112 314.1 448.112 314.1L443.05 329.379Z" fill="#F8B68F"/>
<path d="M432.938 365.447H462.431V327.597C462.431 319.241 456.041 312.359 447.848 311.54L427.367 309.082C427.367 309.082 424.909 312.851 418.191 321.371C426.22 326.287 435.56 328.744 435.56 328.744L432.938 365.447Z" fill="url(#paint3_linear)"/>
<path d="M427.203 325.14C427.203 325.14 415.078 321.207 411.31 316.128C407.541 310.885 413.931 282.374 413.931 282.374L413.112 277.295C412.621 274.346 414.914 271.724 417.864 271.724H421.141C422.452 271.724 423.435 273.035 422.779 274.346L418.519 284.013C418.519 284.013 415.242 305.641 419.83 307.28C425.237 309.246 431.3 309.574 431.3 309.574L427.203 325.14Z" fill="#F9D4BF"/>
</g>
<defs>
<linearGradient id="paint0_linear" x1="335.868" y1="229.449" x2="333.24" y2="229.449" gradientUnits="userSpaceOnUse">
<stop stop-color="#E0F0EB"/>
<stop offset="1" stop-color="#C0E4EF"/>
</linearGradient>
<linearGradient id="paint1_linear" x1="131.71" y1="255.428" x2="87.7182" y2="255.428" gradientUnits="userSpaceOnUse">
<stop stop-color="#E0F0EB"/>
<stop offset="1" stop-color="#C0E4EF"/>
</linearGradient>
<linearGradient id="paint2_linear" x1="142.675" y1="265.983" x2="93.1172" y2="265.983" gradientUnits="userSpaceOnUse">
<stop stop-color="#E0F0EB"/>
<stop offset="1" stop-color="#C0E4EF"/>
</linearGradient>
<linearGradient id="paint3_linear" x1="418.181" y1="337.218" x2="462.432" y2="337.218" gradientUnits="userSpaceOnUse">
<stop stop-color="#E0F0EB"/>
<stop offset="1" stop-color="#C0E4EF"/>
</linearGradient>
<clipPath id="clip0">
<rect width="661" height="768" fill="white"/>
</clipPath>
</defs>
</svg>
