<svg width="377" height="549" viewBox="0 0 377 549" fill="none" xmlns="http://www.w3.org/2000/svg">
<g clip-path="url(#clip0)">
<path d="M199.457 271.278C199.457 271.278 150.46 239.091 138.436 223.148C126.412 207.205 119.197 128.391 142.644 171.408C165.79 214.424 208.475 264.66 208.475 264.66L199.457 271.278Z" fill="#9B6F56"/>
<path d="M199.458 271.279V280.604C199.458 283.913 200.36 286.921 201.863 289.628L208.176 300.758L214.188 268.872L208.176 264.36L199.458 271.279Z" fill="#9B6F56"/>
<path d="M175.703 77.0239L130.689 87.1596C126.203 74.6036 126.78 46.3773 164.976 33.9203C203.171 21.4633 188.042 57.4656 175.703 77.0239Z" fill="#B1E1EA"/>
<path d="M144.749 105.83L137.234 125.985L116.192 116.66L134.829 88.6837L144.749 105.83Z" fill="#9B6F56"/>
<path d="M150.524 112.36C153.072 113.608 155.619 114.232 157.53 113.92C170.268 107.056 176 74.6081 176 74.6081L166.765 64L147.34 65.872L137.15 84.2802C134.283 89.2722 134.283 95.2003 137.15 100.504C140.334 105.808 145.111 109.864 150.524 112.36Z" fill="#A9775A"/>
<path d="M135.837 30.853C190.467 13.0615 174.458 44.7083 168.159 65.4635C168.159 65.4635 155.982 67.427 148.992 72.122C142.001 76.8169 131.839 95.2505 131.839 95.2505C122.593 85.8308 96.8657 43.5448 135.837 30.853Z" fill="#E0F0EB"/>
<path d="M136.332 76.651C138.436 76.0493 140.841 77.5534 142.043 79.9599C143.246 82.3665 142.344 84.773 140.24 85.3746C138.136 85.9763 135.731 84.4722 134.528 82.0657C133.627 79.6591 134.528 77.2526 136.332 76.651Z" fill="#A9775A"/>
<path d="M297.453 305.271L293.546 307.377V305.271H297.453Z" fill="#01898C"/>
<path d="M241.542 313.994C241.542 313.994 262.884 302.864 293.245 307.376C293.545 305.271 297.153 305.271 297.153 305.271L255.971 294.141L241.542 313.994Z" fill="#1C2C57"/>
<path d="M265.289 286.019C265.289 285.718 276.712 261.954 253.566 247.515C230.72 233.075 212.684 264.059 212.384 264.36L215.69 266.466C216.291 265.263 231.923 238.49 251.762 250.823C271.602 263.157 262.283 282.71 261.983 283.612L265.289 286.019Z" fill="#1C2C57"/>
<path d="M110.781 112.448C67.4944 138.619 77.7148 257.14 77.7148 257.14H149.859C149.859 257.14 159.478 163.888 137.534 120.269C132.724 110.342 120.099 106.733 110.781 112.448Z" fill="#F8B68F"/>
<path d="M202.464 299.555L210.58 266.766C211.482 263.457 215.089 261.351 218.395 262.856L261.381 279.701C265.89 281.506 267.393 287.222 264.086 291.132L241.541 317.604C241.541 317.604 230.72 318.506 218.395 312.791C205.77 306.474 202.464 299.555 202.464 299.555Z" fill="#1C2C57"/>
<path d="M42.545 523.963C42.545 523.963 42.545 536.597 67.7953 544.118C72.9055 545.622 71.4025 547.126 72.3043 549.232C63.8875 549.232 43.1461 549.232 43.1461 549.232L31.7234 536.297L28.1162 539.305L20.0001 531.183C20.0001 531.183 23.9078 519.451 30.2204 519.451C35.3306 521.557 42.545 523.963 42.545 523.963Z" fill="#212B53"/>
<path d="M47.3551 513.134L42.5456 523.963C38.3372 525.166 33.5275 523.662 30.8221 520.353L30.221 519.752L34.1287 508.622L47.3551 513.134Z" fill="#F8B68F"/>
<path d="M110.48 390.703C110.48 392.207 61 524 61 524L9 510C9 510 55.1702 409.353 79.2182 368.442C82.8253 362.426 84.9296 355.507 85.8314 348.588C90.0398 307.678 93.0457 291.734 93.0457 291.734L118.597 384.385L110.48 390.703Z" fill="#212B53"/>
<path d="M126.412 191.563C126.412 191.563 141.442 215.929 159.178 227.66C176.913 239.392 241.542 244.807 241.542 244.807L250.259 254.734C251.762 256.238 253.867 256.839 255.971 256.238L257.774 255.636C262.283 253.831 264.087 248.116 261.381 244.205L257.474 238.79C255.971 236.685 253.867 235.482 251.462 235.181L233.726 233.075C233.726 233.075 185.931 218.636 174.809 207.205C163.687 195.774 148.657 160.879 148.657 160.879L126.412 191.563Z" fill="#A9775A"/>
<path d="M135.13 528.777C135.13 528.777 143.246 536.297 161.582 541.11C165.791 542.013 169.999 540.809 169.999 547.427C161.282 547.427 147.454 547.427 147.454 547.427L128.817 544.118V547.427H118.897C118.897 547.427 116.192 530.883 121.903 528.777C127.615 528.777 135.13 528.777 135.13 528.777Z" fill="#212B53"/>
<path d="M133.326 517.045L135.43 528.777C131.823 531.183 127.013 531.484 123.106 529.078L122.504 528.777L123.406 517.045H133.326Z" fill="#F8B68F"/>
<path d="M149.859 257.14V519.751H101.763C101.763 519.751 97.2537 454.475 105.971 403.336C108.075 391.003 106.873 378.068 101.763 366.637C79.2178 315.197 78.0154 257.441 78.0154 257.441H149.859V257.14Z" fill="#043C5E"/>
<path d="M293.881 435C293.881 435 267.906 467.484 271.307 483.572C274.09 497.184 283.058 500.587 290.17 501.825C297.283 503.062 304.704 500.896 309.033 496.875C326.041 480.168 300.684 443.972 293.881 435Z" fill="white"/>
<path d="M293.881 435V502.134C299.756 502.134 305.632 500.278 309.033 496.875C326.041 480.168 300.684 443.972 293.881 435Z" fill="#E0F0EB"/>
<path d="M302.4 505.925C302.4 505.925 343.2 492.425 353.5 473.225C358.4 463.925 351.4 453.125 340.9 453.325C310.1 453.925 298.8 502.825 298.8 502.825L302.4 505.925Z" fill="#212B53"/>
<path d="M299.4 508.625L298.3 508.025C299.4 506.125 325.8 461.225 351.6 457.725L352.5 458.825C327.3 462.225 299.6 508.125 299.4 508.625Z" fill="#00666A"/>
<path d="M271 474.225C266.1 467.725 263.3 461.825 261.7 456.825C257.7 443.125 266.8 428.825 280.9 426.425C288.8 425.125 298.6 426.425 307.7 435.725C327.9 456.125 300.7 512.025 300.7 512.025H291C291 512.025 290.6 500.325 271 474.225Z" fill="#00666A"/>
<path d="M280.1 512.025C280.1 512.025 251.5 505.825 246.3 483.925C244.7 477.125 250.2 470.625 257.2 471.025C292.6 472.825 291 512.025 291 512.025H280.1Z" fill="#01898C"/>
<path d="M295.5 512.125L294.3 511.825C294.4 511.325 306.7 455.025 275.4 428.125L276.8 427.625C308.7 455.025 295.6 511.525 295.5 512.125Z" fill="white"/>
<path d="M286.3 512.325C286.1 512.025 266.3 478.825 247.1 476.925L247.8 475.725C267.6 477.725 286.6 510.325 287.4 511.725L286.3 512.325Z" fill="#00666A"/>
<path d="M310.1 512.025H273.6V546.725H310.1V512.025Z" fill="#F7A605"/>
<path d="M312.7 516.425H271C269.6 516.425 268.5 515.325 268.5 513.925C268.5 512.525 269.6 511.425 271 511.425H312.7C314.1 511.425 315.2 512.525 315.2 513.925C315.2 515.225 314.1 516.425 312.7 516.425Z" fill="#FFDB71"/>
<path d="M131 94L145 76.5L142.5 95H150.5L166.5 103C164.167 117.167 156.5 144.4 152.5 144C148.5 143.6 136.5 110.5 131 94Z" fill="#1C2C57"/>
</g>
<defs>
<clipPath id="clip0">
<rect width="377" height="549" fill="white"/>
</clipPath>
</defs>
</svg>
