<svg width="377" height="549" viewBox="0 0 377 549" fill="none" xmlns="http://www.w3.org/2000/svg">
<g clip-path="url(#clip0)">
<path d="M187.961 268.499C187.961 268.499 141.994 232.114 131.424 215.172C120.854 198.23 120.622 119.087 140.182 164.005C159.442 208.896 197.528 262.703 197.528 262.703L187.961 268.499Z" fill="#9B6F56"/>
<path d="M187.962 268.499L187.139 277.788C186.847 281.084 187.48 284.16 188.738 286.99L194.044 298.633L202.846 267.402L197.255 262.377L187.962 268.499Z" fill="#9B6F56"/>
<path d="M175.703 77.0239L130.689 87.1596C126.203 74.6036 126.78 46.3773 164.976 33.9203C203.171 21.4633 188.042 57.4656 175.703 77.0239Z" fill="#B1E1EA"/>
<path d="M144.749 105.83L137.234 125.985L116.192 116.66L134.829 88.6837L144.749 105.83Z" fill="#9B6F56"/>
<path d="M150.524 112.36C153.072 113.608 155.619 114.232 157.53 113.92C170.268 107.056 176 74.6081 176 74.6081L166.765 64L147.34 65.872L137.149 84.2802C134.283 89.2722 134.283 95.2003 137.149 100.504C140.334 105.808 145.111 109.864 150.524 112.36Z" fill="#A9775A"/>
<path d="M135.837 30.853C190.467 13.0615 174.458 44.7083 168.159 65.4635C168.159 65.4635 155.982 67.427 148.992 72.122C142.001 76.8169 131.839 95.2505 131.839 95.2505C122.593 85.8308 96.8657 43.5448 135.837 30.853Z" fill="#E0F0EB"/>
<path d="M136.332 76.651C138.436 76.0493 140.841 77.5534 142.043 79.9599C143.246 82.3665 142.344 84.773 140.24 85.3746C138.136 85.9763 135.731 84.4722 134.528 82.0657C133.627 79.6591 134.528 77.2526 136.332 76.651Z" fill="#A9775A"/>
<path d="M226.112 314.762C226.112 314.762 248.353 305.558 278.197 312.732C278.682 310.661 282.276 310.979 282.276 310.979L242.236 296.259L226.112 314.762Z" fill="#1C2C57"/>
<path d="M252.235 288.991C252.262 288.691 265.737 266.028 243.955 249.602C222.473 233.204 201.773 262.475 201.447 262.748L204.555 265.138C205.26 263.992 223.193 238.703 241.867 252.739C260.54 266.775 249.533 285.43 249.154 286.302L252.235 288.991Z" fill="#1C2C57"/>
<path d="M110.781 112.448C67.4944 138.619 77.7148 257.14 77.7148 257.14H149.859C149.859 257.14 159.478 163.888 137.534 120.269C132.724 110.342 120.099 106.733 110.781 112.448Z" fill="#F8B68F"/>
<path d="M188.46 296.931L199.438 264.986C200.628 261.769 204.407 259.99 207.568 261.78L248.9 282.353C253.232 284.549 254.225 290.375 250.586 293.978L225.793 318.357C225.793 318.357 214.934 318.301 203.162 311.521C191.143 304.114 188.46 296.931 188.46 296.931Z" fill="#1C2C57"/>
<path d="M42.545 523.963C42.545 523.963 42.545 536.597 67.7953 544.118C72.9054 545.622 71.4024 547.126 72.3042 549.232C63.8875 549.232 43.1461 549.232 43.1461 549.232L31.7234 536.297L28.1162 539.305L20.0001 531.183C20.0001 531.183 23.9078 519.451 30.2204 519.451C35.3306 521.557 42.545 523.963 42.545 523.963Z" fill="#212B53"/>
<path d="M47.3551 513.134L42.5456 523.963C38.3372 525.166 33.5275 523.662 30.8221 520.353L30.221 519.752L34.1287 508.622L47.3551 513.134Z" fill="#F8B68F"/>
<path d="M110.48 390.703C110.48 392.207 61 524 61 524L9 510C9 510 55.1702 409.353 79.2182 368.442C82.8253 362.426 84.9296 355.507 85.8314 348.588C90.0398 307.678 93.0457 291.734 93.0457 291.734L118.597 384.385L110.48 390.703Z" fill="#212B53"/>
<path d="M122.235 182.649C122.235 182.649 135.056 208.246 151.687 221.497C168.318 234.748 232.217 245.844 232.217 245.844L240.024 256.502C241.389 258.133 243.432 258.917 245.581 258.504L247.431 258.064C252.081 256.664 254.382 251.13 252.032 246.996L248.618 241.257C247.306 239.027 245.316 237.643 242.948 237.131L225.467 233.469C225.467 233.469 179.132 214.868 169.062 202.501C158.992 190.133 147.1 154.048 147.1 154.048L122.235 182.649Z" fill="#A9775A"/>
<path d="M135.13 528.777C135.13 528.777 143.246 536.297 161.582 541.11C165.791 542.013 169.999 540.809 169.999 547.427C161.282 547.427 147.454 547.427 147.454 547.427L128.817 544.118V547.427H118.897C118.897 547.427 116.192 530.883 121.903 528.777C127.615 528.777 135.13 528.777 135.13 528.777Z" fill="#212B53"/>
<path d="M133.326 517.045L135.43 528.777C131.823 531.183 127.013 531.484 123.106 529.078L122.504 528.777L123.406 517.045H133.326Z" fill="#F8B68F"/>
<path d="M149.859 257.14V519.751H101.763C101.763 519.751 97.2537 454.475 105.971 403.336C108.075 391.003 106.873 378.068 101.763 366.637C79.2178 315.197 78.0154 257.441 78.0154 257.441H149.859V257.14Z" fill="#043C5E"/>
<path d="M288.881 312C288.881 312 262.906 344.484 266.307 360.572C269.09 374.184 278.058 377.587 285.17 378.825C292.283 380.062 299.704 377.896 304.033 373.875C321.041 357.168 295.684 320.972 288.881 312Z" fill="white"/>
<path d="M288.881 312V379.134C294.756 379.134 300.632 377.278 304.033 373.875C321.041 357.168 295.684 320.972 288.881 312Z" fill="#E0F0EB"/>
<path d="M297.553 508.147C297.553 508.147 319.578 500.859 325.138 490.494C327.784 485.474 324.005 479.643 318.336 479.751C301.709 480.075 295.609 506.473 295.609 506.473L297.553 508.147Z" fill="#212B53"/>
<path d="M295.933 509.604L295.339 509.28C295.933 508.255 310.185 484.016 324.113 482.126L324.599 482.72C310.995 484.556 296.041 509.334 295.933 509.604Z" fill="#00666A"/>
<path d="M280.602 491.034C277.956 487.525 276.445 484.34 275.581 481.641C273.422 474.245 278.334 466.525 285.946 465.23C290.211 464.528 295.501 465.23 300.414 470.25C311.319 481.263 296.635 511.44 296.635 511.44H291.398C291.398 511.44 291.182 505.124 280.602 491.034Z" fill="#00666A"/>
<path d="M285.514 511.44C285.514 511.44 270.075 508.093 267.268 496.27C266.404 492.599 269.373 489.09 273.152 489.306C292.262 490.278 291.398 511.44 291.398 511.44H285.514Z" fill="#01898C"/>
<path d="M293.828 511.494L293.18 511.332C293.234 511.062 299.874 480.669 282.977 466.147L283.733 465.877C300.954 480.669 293.882 511.17 293.828 511.494Z" fill="white"/>
<path d="M288.861 511.602C288.753 511.44 278.064 493.517 267.699 492.491L268.077 491.844C278.766 492.923 289.023 510.522 289.455 511.278L288.861 511.602Z" fill="#00666A"/>
<path d="M310.1 512.025H273.6V546.725H310.1V512.025Z" fill="#F7A605"/>
<path d="M312.7 516.425H271C269.6 516.425 268.5 515.325 268.5 513.925C268.5 512.525 269.6 511.425 271 511.425H312.7C314.1 511.425 315.2 512.525 315.2 513.925C315.2 515.225 314.1 516.425 312.7 516.425Z" fill="#FFDB71"/>
<path d="M131 94L145 76.5L142.5 95H150.5L166.5 103C164.167 117.167 156.5 144.4 152.5 144C148.5 143.6 136.5 110.5 131 94Z" fill="#1C2C57"/>
</g>
<defs>
<clipPath id="clip0">
<rect width="377" height="549" fill="white"/>
</clipPath>
</defs>
</svg>
