<svg width="692" height="1115" viewBox="0 0 692 1115" fill="none" xmlns="http://www.w3.org/2000/svg">
<g clip-path="url(#clip0)">
<path d="M657.227 1127L399.237 325.949H414.01L672 1127H657.227Z" fill="white"/>
<path d="M523.908 1127L266.278 325.949H280.691L538.681 1127H523.908Z" fill="white"/>
<path d="M481.029 534.136V546.022H342.666L340.504 534.136H481.029Z" fill="white"/>
<path d="M452.204 456.336V468.582L314.201 468.222L311.678 456.336H452.204Z" fill="white"/>
<path d="M428.783 378.896V390.782H290.419L288.257 378.896H428.783Z" fill="white"/>
<path d="M505.892 612.656V624.542H367.888L365.366 612.656H505.892Z" fill="white"/>
<path d="M529.673 691.176V703.422L391.67 703.062L389.147 691.176H529.673Z" fill="white"/>
<path d="M554.175 772.938L559.58 784.824H421.577L419.054 772.938H554.175Z" fill="white"/>
<path d="M579.758 854.7L585.523 866.586H447.52L444.997 854.7H579.758Z" fill="white"/>
<path d="M604.26 934.661L609.664 946.548H471.661L469.139 934.301L604.26 934.661Z" fill="white"/>
<path d="M624.438 1016.06L629.843 1027.95H491.839L489.317 1016.06H624.438Z" fill="white"/>
<path d="M14.7732 1127L272.403 325.949H257.63L0 1127H14.7732Z" fill="#004060"/>
<path d="M148.092 1127L405.722 325.949H390.949L133.319 1127H148.092Z" fill="#004060"/>
<path d="M190.971 534.136V546.022H328.974L331.496 534.136H190.971Z" fill="#004060"/>
<path d="M219.436 456.336V468.582L357.8 468.222L359.961 456.336H219.436Z" fill="#004060"/>
<path d="M243.217 378.896V390.782H381.22L383.743 378.896H243.217Z" fill="#004060"/>
<path d="M165.748 612.656V624.542H303.751L306.273 612.656H165.748Z" fill="#004060"/>
<path d="M142.327 691.176V703.422L280.33 703.062L282.853 691.176H142.327Z" fill="#004060"/>
<path d="M117.825 772.938L112.06 784.824H250.424L252.585 772.938H117.825Z" fill="#004060"/>
<path d="M91.882 854.7L86.4772 866.586H224.48L226.642 854.7H91.882Z" fill="#004060"/>
<path d="M67.7405 934.661L61.9754 946.548H200.339L202.501 934.301L67.7405 934.661Z" fill="#004060"/>
<path d="M47.5625 1016.06L42.1577 1027.95H180.161L182.323 1016.06H47.5625Z" fill="#004060"/>
<path d="M528.659 118.044L528.63 114.71C528.467 106.915 522.402 96.4876 515.512 92.8617L507.662 91.5759L507.574 107.932L517.401 116.478L528.615 118.315L528.659 118.044Z" fill="#9B6F56"/>
<path d="M510.96 106.944L524.668 117.668L515.185 116.115L501.104 100.68C501.104 100.68 502.568 98.7324 505.889 101.191C509.209 103.649 510.96 106.944 510.96 106.944Z" fill="#9B6F56"/>
<path d="M507.048 73.491C507.048 73.491 500.863 91.0097 509.085 107.054C509.519 108.084 510.592 108.898 511.715 109.402C514.012 110.098 515.926 109.453 517.445 109.382C519.601 109.096 520.635 108.307 521.081 107.422C521.477 106.847 521.63 105.914 521.196 104.884C519.702 101.125 514.836 88.5058 519.747 78.7663C514.641 73.1372 507.048 73.491 507.048 73.491Z" fill="#006769"/>
<path d="M518.824 108.604C520.249 108.201 520.631 107.945 521.114 107.068C521.547 106.502 521.699 105.572 521.189 104.533C519.432 100.742 513.7 88.0194 519.017 78.3806C516.954 76.4504 514.79 75.1405 512.575 74.1407C510.364 85.5622 511.462 93.3853 518.824 108.604Z" fill="#118C8C"/>
<path d="M514.184 89.4019C514.246 91.8439 514.853 93.7674 515.527 93.8778C516.25 93.6921 517.038 91.6933 516.977 89.2513C516.916 86.8092 516.308 84.8857 515.634 84.7754C514.96 84.665 514.348 86.9966 514.184 89.4019Z" fill="#FAA525"/>
<path d="M514.822 84.9801L515.863 84.8128L515.755 85.4707L514.714 85.638L514.822 84.9801Z" fill="#EF4366"/>
<path d="M514.334 89.4263C514.526 91.8898 515.395 93.8561 516.265 93.9986C517.184 93.8451 518.103 91.8677 517.911 89.4043C517.719 86.9408 516.85 84.9745 515.98 84.832C515.061 84.9855 514.142 86.9629 514.334 89.4263Z" fill="#FAA525"/>
<path d="M504.276 56.5682L502.373 56.2564C498.566 55.6329 494.926 57.9735 494.301 61.7871L493.416 67.1897C492.792 71.0033 495.495 74.383 499.301 75.0065L501.205 75.3183L504.276 56.5682Z" fill="#FAA525"/>
<path d="M563.504 72.3496C561.175 86.5697 555.761 97.4279 551.9 96.7953C547.716 96.1101 546.372 84.1451 548.701 69.9249C551.03 55.7048 556.444 44.8467 560.305 45.4792C564.167 46.1117 565.833 58.1295 563.504 72.3496Z" fill="#118C8C"/>
<path d="M550.393 61.0821L555.488 65.6081L554.212 73.3972L547.329 77.8068L547.152 67.0112L550.393 61.0821Z" fill="#FAA525"/>
<path d="M549.361 70.033C551.281 58.3142 555.114 48.4922 558.663 46.2236C531.695 59.5393 503.127 57.3933 503.127 57.3933L500.198 75.28C500.198 75.28 538.618 79.3566 550.581 95.566C547.941 92.2836 547.441 81.7518 549.361 70.033Z" fill="#58C4C5"/>
<path d="M555.93 69.0973C555.583 71.215 554.957 72.9763 554.299 72.8685C553.97 72.8146 553.609 70.8917 553.956 68.774C554.303 66.6562 554.929 64.8949 555.587 65.0027C556.295 64.8079 556.277 66.9795 555.93 69.0973Z" fill="#006769"/>
<path d="M525.841 104.318C525.231 104.495 523.075 105.247 517.134 104.274C512.608 103.533 511.465 98.0946 511.385 95.0414C511.278 93.9185 511.216 92.5265 512.718 92.2199L519.922 92.5709L525.841 104.318Z" fill="#9B6F56"/>
<path d="M432.839 149.903C432.839 149.903 487.893 188.859 495.617 182.978C503.341 177.097 526.97 119.345 526.97 119.345L519.175 111.273L483.178 154.948C483.178 154.948 468.541 143.954 453.623 129.559C447.788 124.061 440.102 121.329 434.43 123.841C422.032 129.214 432.839 149.903 432.839 149.903Z" fill="#9B6F56"/>
<path d="M457.624 84.336L446.831 108.061L429.56 92.2445L441.794 57.7346L457.624 84.336Z" fill="#9B6F56"/>
<path d="M463.741 85.7741C466.619 86.1336 469.498 86.1336 470.937 85.0552C481.371 73.1924 477.773 37.9637 477.773 37.9637L465.54 27.5388L446.831 36.1663L441.794 55.578C440.354 62.0486 442.153 73.1924 446.471 77.8656C451.508 82.1793 457.265 85.0552 463.741 85.7741Z" fill="#A9775A"/>
<path d="M429.56 92.2446C429.56 92.2446 404.375 124.598 398.618 145.807C392.861 167.016 390.703 225.611 390.703 225.611H443.952C443.952 225.611 459.064 197.931 470.937 173.127C474.535 165.578 474.535 156.951 471.297 149.401C462.662 129.63 449.709 102.669 449.709 102.669L429.56 92.2446Z" fill="#FFDB71"/>
<path d="M456.545 578.616L460.863 589.401C461.942 592.276 463.741 594.793 466.619 596.59C469.498 598.388 474.175 601.263 481.011 603.061C472.736 610.25 459.064 602.701 451.508 597.309C447.91 594.793 445.032 590.839 443.952 586.525L442.153 578.257H456.545V578.616Z" fill="#A9775A"/>
<path d="M443.233 584.368C443.233 584.368 437.476 588.682 438.556 594.434C439.635 600.185 441.074 613.486 441.074 613.486H446.831L446.471 600.904C446.471 600.185 459.064 613.486 461.223 613.486H492.525C492.525 613.486 494.684 605.218 476.334 602.342C457.985 599.826 443.233 584.368 443.233 584.368Z" fill="#043C5E"/>
<path d="M396.46 578.616L400.777 589.401C401.857 592.276 403.656 594.793 406.534 596.59C409.412 598.388 414.09 601.263 420.926 603.061C412.65 610.25 398.978 602.701 391.422 597.309C387.825 594.793 384.946 590.839 383.867 586.525L382.068 578.257H396.46V578.616Z" fill="#A9775A"/>
<path d="M382.787 584.368C382.787 584.368 377.031 588.682 378.11 594.434C379.189 600.185 380.629 613.486 380.629 613.486H386.385L386.026 600.904C386.026 600.185 398.618 613.486 400.777 613.486H431.72C431.72 613.486 433.878 605.218 415.529 602.342C397.899 599.826 382.787 584.368 382.787 584.368Z" fill="#043C5E"/>
<path d="M443.593 226.689C443.593 226.689 469.858 266.232 447.55 423.323C451.148 482.637 457.625 580.415 457.625 580.415H442.513C442.513 580.415 401.137 476.167 414.809 424.402C418.047 372.997 405.454 225.611 405.454 225.611L443.593 226.689Z" fill="#212B53"/>
<path d="M390.703 225.611C390.703 225.611 362.998 247.899 362.998 280.611C362.998 306.493 375.591 360.056 382.427 394.925C384.946 407.507 382.427 420.807 378.829 433.389C364.078 484.075 382.068 580.775 382.068 580.775H396.819C396.819 580.775 397.539 531.167 418.047 419.729C441.434 291.755 443.593 225.611 443.593 225.611H390.703Z" fill="#043C5E"/>
<path d="M412.963 117.663C412.963 117.663 368.433 171.747 374.526 183.583C380.619 195.419 442.505 246.518 442.505 246.518L451.59 239.818L405.5 178.564C405.5 178.564 418.032 164.423 434.274 151.206C440.482 145.987 443.755 137.422 441.246 129.407C435.888 111.931 412.963 117.663 412.963 117.663Z" fill="#A9775A"/>
<path d="M441.836 37.5922C441.836 37.5922 450.111 42.6249 475.297 26.4484C479.254 27.5268 473.138 -8.78035 440.396 2.00396C417.729 9.55298 418.809 31.4811 419.888 43.7033C420.968 57.004 414.131 65.6314 405.137 75.3373C397.581 83.2458 397.581 98.3438 392.544 106.252C386.427 115.958 379.591 115.599 374.914 125.305C369.877 135.729 369.157 148.671 375.993 158.017C379.951 163.409 388.946 176.35 403.697 171.677C411.973 169.161 414.131 154.782 414.491 142.919C414.851 132.135 419.888 122.429 428.163 115.599C436.079 109.488 444.714 100.86 446.873 91.8732C450.831 74.2589 441.836 37.5922 441.836 37.5922Z" fill="#212B53"/>
<path d="M439.635 49.8256C441.434 48.3877 444.672 49.4661 446.471 51.623C448.27 54.1393 448.27 57.0152 446.471 58.4531C444.672 59.891 441.434 58.8126 439.635 56.6557C437.476 54.4988 437.476 51.2635 439.635 49.8256Z" fill="#A9775A"/>
<path d="M464.93 279.084C466.373 278.745 467.477 276.963 467.138 275.519L466.148 260.246C465.78 256.389 464.288 252.706 461.363 250.165L450.785 239.828L449.962 238.228L437.797 242.872C440.073 244.938 441.371 245.888 441.371 245.888L448.365 252.405C448.365 252.405 442.556 277.248 459.108 276.415C446.992 285.081 450.402 287.777 450.402 287.777L464.93 279.084Z" fill="#A9775A"/>
<path d="M429.92 36.5256C432.799 46.5909 447.191 51.2641 461.942 47.3099C476.694 43.3556 484.969 31.8524 483.89 21.787C482.45 8.12689 466.619 7.04846 451.868 11.0027C437.116 14.957 427.042 26.4602 429.92 36.5256Z" fill="#212B53"/>
</g>
<defs>
<clipPath id="clip0">
<rect width="692" height="1115" fill="white"/>
</clipPath>
</defs>
</svg>
