<svg width="297" height="324" viewBox="0 0 297 324" fill="none" xmlns="http://www.w3.org/2000/svg">
<g clip-path="url(#clip0)">
<path d="M212.036 187.324L201.23 180.248L235.513 164.979L221.353 132.952C214.645 119.172 197.876 108 181.479 108H111.422C95.3978 108 78.256 119.172 71.921 132.952L57.7604 164.979L92.0439 180.248L81.2372 186.952L74.5295 239.462L146.45 238.345L218.371 239.462L212.036 187.324Z" fill="#01898C"/>
<path d="M235.513 164.979L242.594 188.442C247.811 205.573 242.221 223.821 228.433 235.738L196.013 260.69L185.579 232.759L203.466 216.373C209.428 210.786 210.919 202.966 207.937 195.89L201.23 180.248L235.513 164.979Z" fill="#F8B68F"/>
<path d="M95.3977 315.062L67.0765 319.158L61.4868 312.827L64.468 302.027L91.6713 298.303L95.3977 315.062Z" fill="#F8B68F"/>
<path d="M67.0765 319.158L31.3023 323.627C31.3023 323.627 -4.09916 328.096 1.1179 308.731C5.96232 290.11 37.6374 298.303 37.6374 298.303L67.0765 302.027C63.35 306.869 63.35 313.945 66.7038 318.786L67.0765 319.158Z" fill="#01898C"/>
<path d="M0.745507 308.731C2.60874 301.283 8.94375 297.931 16.0241 296.814V323.627C7.08052 322.51 -1.86303 319.158 0.745507 308.731Z" fill="white"/>
<path d="M52.5433 303.517H49.5621V315.062H52.5433V303.517Z" fill="white"/>
<path d="M45.4634 303.517H42.4822V315.062H45.4634V303.517Z" fill="white"/>
<path d="M57.7602 164.979L50.6799 188.442C45.4628 205.573 51.0525 223.821 64.8405 235.738L96.8882 260.69L107.322 232.759L89.4352 216.373C83.4729 210.786 81.9823 202.966 84.9635 195.89L91.6711 180.621L57.7602 164.979Z" fill="#F8B68F"/>
<path d="M200.484 317.296L229.551 319.158L234.768 312.827L232.16 302.027L204.584 298.303L200.484 317.296Z" fill="#F8B68F"/>
<path d="M229.551 319.158L265.325 323.627C265.325 323.627 300.727 328.096 295.51 308.731C290.665 290.11 258.99 298.303 258.99 298.303L229.551 302.027C233.278 306.869 233.278 313.945 229.924 318.786L229.551 319.158Z" fill="#01898C"/>
<path d="M295.51 308.731C293.647 301.283 287.312 297.931 280.231 296.814V323.627C289.175 322.51 298.119 319.158 295.51 308.731Z" fill="white"/>
<path d="M246.693 303.517H243.712V315.062H246.693V303.517Z" fill="white"/>
<path d="M254.146 303.517H251.165V315.062H254.146V303.517Z" fill="white"/>
<path d="M210.546 199.241H92.0438V270H210.546V199.241Z" fill="url(#paint0_linear)"/>
<path d="M210.546 267.021H92.0438V272.979H210.546V267.021Z" fill="#CBB8CD"/>
<path d="M295.137 251.007C318.614 293.09 80.8647 318.786 80.8647 318.786L76.7656 300.166C76.7656 300.166 266.071 199.241 295.137 251.007Z" fill="#212B53"/>
<path d="M1.11792 251.007C-19.005 294.952 217.626 321.393 217.626 321.393L219.489 300.166C219.489 300.166 24.9674 199.241 1.11792 251.007Z" fill="#043C5E"/>
<path d="M158.748 108C156.512 101.296 152.413 81.5583 152.413 81.5583L127.073 86.3997V108C127.073 108 135.644 113.958 142.724 113.958C150.55 113.958 159.121 108.745 158.748 108Z" fill="#F4A086"/>
<path d="M158.748 46.9242L154.276 18.6207L105.459 24.5793L108.441 56.9794C108.441 56.9794 112.167 97.2 138.252 92.3587C166.201 87.1449 160.239 46.5518 158.748 46.9242Z" fill="#F8B68F"/>
<path d="M170.3 42.8277C169.555 39.4759 170.672 34.2621 172.536 31.2828C181.107 17.5035 168.064 13.407 163.965 12.2897C159.12 10.8001 157.63 3.35179 150.922 0.744891C140.861 -2.97925 135.271 5.95868 129.681 6.70351C124.092 7.44834 118.874 1.48972 112.539 7.44834C106.204 13.407 108.813 18.9932 107.322 22.3449C105.832 25.6966 99.1242 20.1104 94.2798 30.1656C90.5533 37.9863 94.6524 42.4552 99.4968 45.0621C105.087 48.0415 112.167 48.0414 118.129 45.4346C123.346 43.2001 130.427 39.4759 137.507 33.5173C139.37 32.0277 154.276 30.9104 155.394 33.1449C159.493 40.2208 159.866 64.0552 159.866 64.0552L164.337 58.0966C164.337 58.469 172.163 53.2552 170.3 42.8277Z" fill="#212B53"/>
<path d="M154.276 50.2758C152.785 53.6275 153.903 56.9792 156.139 58.0965C158.375 58.8413 161.356 56.9792 162.474 53.6275C163.965 50.2758 162.847 46.924 160.611 45.8068C158.375 44.6896 155.766 46.924 154.276 50.2758Z" fill="#F8B68F"/>
</g>
<defs>
<linearGradient id="paint0_linear" x1="92.1813" y1="234.639" x2="210.498" y2="234.639" gradientUnits="userSpaceOnUse">
<stop stop-color="#E0F0EB"/>
<stop offset="1" stop-color="#C0E4EF"/>
</linearGradient>
<clipPath id="clip0">
<rect width="297" height="324" fill="white"/>
</clipPath>
</defs>
</svg>
