<?xml version="1.0" encoding="utf-8"?>
<!-- Generator: Adobe Illustrator 23.0.6, SVG Export Plug-In . SVG Version: 6.00 Build 0)  -->
<svg version="1.1" id="Layer_1" xmlns="http://www.w3.org/2000/svg" xmlns:xlink="http://www.w3.org/1999/xlink" x="0px" y="0px"
	 viewBox="0 0 661 768" style="enable-background:new 0 0 661 768;" xml:space="preserve">
<style type="text/css">
	.st0{clip-path:url(#SVGID_2_);}
	.st1{fill:#EF4366;}
	.st2{fill:#FFFFFF;}
</style>
<g>
	<defs>
		<rect id="SVGID_1_" x="138" y="87" width="157" height="114"/>
	</defs>
	<clipPath id="SVGID_2_">
		<use xlink:href="#SVGID_1_"  style="overflow:visible;"/>
	</clipPath>
	<g class="st0">
		<path class="st1" d="M138,198.7c0,0,9.5-14.4,12.7-18c11.8-12.4-10.4-72.2,3.9-81.7c14.4-9.5,118.8-21.6,130.2,0
			c11.4,21.6,17.3,87.9-3.9,97.3c-21.2,9.1-104.8,2.6-113.9-0.3C151.4,190.9,138,198.7,138,198.7z"/>
		<path class="st2" d="M187.3,142.1c0,0,28.1,10.8,28.4,34.3c3.6,15,10.1,5.9,10.1,5.9s5.9-16.3,0-28.4c10.4-2,17.3-1,24.8-4.2
			c7.5-3.3,5.5-23.5-7.5-40.2c-9.1-11.8-53.5,1.3-53.5,1.3L187.3,142.1z"/>
	</g>
</g>
</svg>
