<svg width="297" height="324" viewBox="0 0 297 324" fill="none" xmlns="http://www.w3.org/2000/svg">
<g clip-path="url(#clip0)">
<path d="M212.036 187.324L201.23 180.248L235.513 164.979L221.353 132.952C214.645 119.172 197.876 108 181.479 108H111.422C95.3978 108 78.256 119.172 71.921 132.952L57.7604 164.979L92.0439 180.248L81.2372 186.952L74.5295 239.462L146.45 238.345L218.371 239.462L212.036 187.324Z" fill="#01898C"/>
<path d="M235.513 164.979L242.594 188.441C247.811 205.573 242.221 223.821 228.433 235.738L196.013 260.69L185.579 232.759L203.466 216.373C209.428 210.786 210.919 202.966 207.937 195.89L201.23 180.248L235.513 164.979Z" fill="#F8B68F"/>
<path d="M95.3977 315.062L67.0765 319.158L61.4868 312.827L64.468 302.027L91.6713 298.303L95.3977 315.062Z" fill="#F8B68F"/>
<path d="M67.0765 319.158L31.3023 323.627C31.3023 323.627 -4.09916 328.096 1.1179 308.731C5.96232 290.11 37.6374 298.303 37.6374 298.303L67.0765 302.027C63.35 306.869 63.35 313.945 66.7038 318.786L67.0765 319.158Z" fill="#01898C"/>
<path d="M0.745507 308.731C2.60874 301.283 8.94375 297.931 16.0241 296.814V323.627C7.08052 322.51 -1.86303 319.158 0.745507 308.731Z" fill="white"/>
<path d="M52.5433 303.517H49.5621V315.062H52.5433V303.517Z" fill="white"/>
<path d="M45.4634 303.517H42.4822V315.062H45.4634V303.517Z" fill="white"/>
<path d="M57.7602 164.979L50.6799 188.441C45.4628 205.573 51.0525 223.821 64.8405 235.738L96.8882 260.69L107.322 232.759L89.4352 216.373C83.4729 210.786 81.9823 202.966 84.9635 195.89L91.6711 180.621L57.7602 164.979Z" fill="#F8B68F"/>
<path d="M200.484 317.296L229.551 319.158L234.768 312.827L232.159 302.027L204.584 298.303L200.484 317.296Z" fill="#F8B68F"/>
<path d="M229.551 319.158L265.325 323.627C265.325 323.627 300.727 328.096 295.51 308.731C290.665 290.11 258.99 298.303 258.99 298.303L229.551 302.027C233.277 306.869 233.278 313.945 229.924 318.786L229.551 319.158Z" fill="#01898C"/>
<path d="M295.51 308.731C293.647 301.283 287.312 297.931 280.231 296.814V323.627C289.175 322.51 298.119 319.158 295.51 308.731Z" fill="white"/>
<path d="M246.693 303.517H243.712V315.062H246.693V303.517Z" fill="white"/>
<path d="M254.146 303.517H251.165V315.062H254.146V303.517Z" fill="white"/>
<path d="M210.546 199.241H92.0438V270H210.546V199.241Z" fill="url(#paint0_linear)"/>
<path d="M210.546 267.021H92.0438V272.979H210.546V267.021Z" fill="#CBB8CD"/>
<path d="M295.137 251.007C318.614 293.09 80.8647 318.786 80.8647 318.786L76.7656 300.166C76.7656 300.166 266.071 199.241 295.137 251.007Z" fill="#212B53"/>
<path d="M1.11792 251.007C-19.005 294.952 217.626 321.393 217.626 321.393L219.489 300.166C219.489 300.166 24.9674 199.241 1.11792 251.007Z" fill="#043C5E"/>
<path d="M158.748 108C156.512 101.296 152.413 81.5583 152.413 81.5583L127.073 86.3997V108C127.073 108 135.644 113.958 142.724 113.958C150.55 113.958 159.121 108.745 158.748 108Z" fill="#F4A086"/>
<path d="M115.576 67.3138L103.063 41.5356L146.522 18.5152L162.599 46.8023C162.599 46.8023 182.537 81.9319 158.367 92.8731C132.456 104.574 114.14 67.8605 115.576 67.3138Z" fill="#F8B68F"/>
<path d="M103.756 70.5573C102.451 67.3812 98.5533 63.7427 95.3212 62.3635C80.4114 55.9583 88.7703 45.1407 91.4947 41.8805C94.6176 37.8887 91.5823 30.9255 95.5952 24.9518C101.721 16.1441 111.417 20.2815 116.429 17.6969C121.441 15.1123 122.315 7.24085 130.919 8.50781C139.523 9.77478 140.577 15.8493 143.716 17.7471C146.855 19.6448 149.165 11.2267 158.888 16.7069C166.416 20.993 165.608 27.0031 163.124 31.9115C160.241 37.5516 154.432 41.5995 148.05 42.8694C142.492 44.0188 134.554 45.0112 125.338 44.1704C122.958 44.0134 110.09 51.6187 110.45 54.0911C111.132 62.24 124.453 82.0082 124.453 82.0082L117.377 79.676C117.59 79.9815 108.189 80.1778 103.756 70.5573Z" fill="#212B53"/>
<path d="M121.161 67.5069C124.3 69.4047 125.299 72.7937 124.104 74.9887C122.695 76.878 119.185 77.0547 116.351 74.9439C113.212 73.0461 112.213 69.6571 113.409 67.4621C114.604 65.2672 118.022 65.6092 121.161 67.5069Z" fill="#F8B68F"/>
</g>
<defs>
<linearGradient id="paint0_linear" x1="92.1813" y1="234.639" x2="210.498" y2="234.639" gradientUnits="userSpaceOnUse">
<stop stop-color="#E0F0EB"/>
<stop offset="1" stop-color="#C0E4EF"/>
</linearGradient>
<clipPath id="clip0">
<rect width="297" height="324" fill="white"/>
</clipPath>
</defs>
</svg>
