<svg width="257" height="639" viewBox="0 0 257 639" fill="none" xmlns="http://www.w3.org/2000/svg">
<g clip-path="url(#clip0)">
<path d="M120.944 622.976H76.9581C70.8335 623.533 64.7088 625.204 63.5952 630.217C63.5952 630.217 63.0384 633.56 63.0384 636.902C64.7088 638.573 123.171 636.902 123.171 636.902C129.296 629.103 120.944 622.976 120.944 622.976Z" fill="#58C4C5"/>
<path d="M62.4813 636.902H122.614L122.057 639.13H62.4813V636.902Z" fill="white"/>
<path d="M103.128 622.976H99.2301L100.9 627.989H104.241L103.128 622.976Z" fill="white"/>
<path d="M94.7759 622.976H90.8783L91.9919 627.989H95.8894L94.7759 622.976Z" fill="white"/>
<path d="M123.729 607.936L120.945 622.419C117.604 624.09 112.593 624.09 109.252 622.976L108.695 622.419L106.468 607.936H123.729Z" fill="#F8B68F"/>
<path d="M223.95 622.976H179.964C173.839 623.533 167.714 625.204 166.601 630.217C166.601 630.217 166.044 633.56 166.044 636.902C167.714 638.573 226.177 636.902 226.177 636.902C232.302 629.103 223.95 622.976 223.95 622.976Z" fill="#58C4C5"/>
<path d="M165.487 636.902H225.62L225.063 639.13H165.487V636.902Z" fill="white"/>
<path d="M206.689 622.976H202.792L203.905 627.989H207.803L206.689 622.976Z" fill="white"/>
<path d="M197.781 622.976H193.884L195.554 627.989H198.895L197.781 622.976Z" fill="white"/>
<path d="M222.28 607.936L223.95 622.419C220.61 624.09 215.599 624.09 212.258 622.976L211.701 622.419L204.463 607.936H222.28Z" fill="#F8B68F"/>
<path d="M156.021 113.278L192.213 137.231L181.077 166.197C181.077 166.754 180.52 166.754 180.52 167.311C179.963 167.311 178.85 167.311 178.293 167.311C178.293 167.311 178.293 167.311 177.736 167.311C177.736 167.311 177.736 167.311 177.179 167.311C167.714 167.311 159.362 173.439 153.794 181.238C147.67 180.681 142.102 179.566 136.534 176.781C132.636 175.11 129.852 172.882 128.182 170.654C125.398 150.043 156.021 113.278 156.021 113.278Z" fill="#F8B68F"/>
<path d="M102.392 130.242C102.392 130.242 97.9375 172.577 106.846 199.315C102.949 202.658 87.3585 219.369 82.3475 198.201C77.3364 177.034 87.9153 123 87.9153 123L102.392 130.242Z" fill="#F8B68F"/>
<path d="M126.563 126.047L134.914 131.618L131.574 138.303L122.665 133.846L126.563 126.047Z" fill="#212B53"/>
<path d="M131.574 133.846C130.46 136.074 130.46 137.745 131.574 137.745C132.131 138.302 133.801 136.631 134.358 134.96C135.471 132.732 135.471 131.061 134.358 131.061C133.244 130.504 132.131 132.175 131.574 133.846Z" fill="#212B53"/>
<path d="M23 94.8523C24.6703 90.953 27.4543 85.3825 31.3518 79.8121C37.4764 71.4564 39.1468 67 39.1468 67L127.676 124.933L122.108 135.517L23.5568 98.7517C23 97.6376 23 96.5235 23 94.8523Z" fill="#043C5E"/>
<path d="M164.374 181.238L167.714 200.735H139.318L137.091 176.782L164.374 181.238Z" fill="#F4A086"/>
<path d="M84.7847 238.946C84.7847 238.946 51.3775 228.362 41.3553 213.879C30.7764 199.396 48.5936 121.966 48.5936 121.966L46.3664 108.04C45.2528 100.242 51.3775 93 59.1725 93H68.0811C71.9786 93 74.2058 96.8993 72.5354 100.242L60.8429 126.423C60.8429 126.423 51.9343 185.47 64.1836 189.926C78.6601 194.94 95.3636 196.611 95.3636 196.611L84.7847 238.946Z" fill="#F8B68F"/>
<path d="M153.794 181.238L162.146 162.298L156.578 158.956C152.681 156.17 150.454 151.157 152.124 146.701L158.249 128.875C158.249 128.875 140.988 126.647 141.545 110.493C141.545 102.137 153.238 102.137 153.238 102.137C153.238 102.137 156.578 109.378 167.157 110.493C171.612 109.935 184.418 111.607 192.769 126.09C198.337 136.117 196.11 151.714 191.099 162.855C186.645 173.439 175.509 179.009 164.373 180.68H153.794V181.238Z" fill="#C4C4C4"/>
<path d="M187.759 339.997C187.759 339.997 186.088 380.661 177.18 424.111C174.396 436.923 175.509 450.292 179.963 463.104C199.451 522.151 227.29 610.722 227.29 610.722H202.792C202.792 610.722 146.556 505.997 132.08 454.191C117.603 402.386 115.376 385.675 115.376 385.675L132.637 340.554H187.759V339.997Z" fill="#212B53"/>
<path d="M167.157 153.385C168.271 156.171 166.043 160.07 162.703 162.298C159.362 163.969 155.465 163.412 154.351 160.07C153.237 157.285 155.465 153.385 158.805 151.157C162.703 149.486 166.043 150.043 167.157 153.385Z" fill="#F8B68F"/>
<path d="M107.025 339.996H187.759V236.943C187.759 214.104 170.499 195.164 148.227 193.493L88 193.493C88 193.493 75 209.5 65.9365 230.674C88.208 244.043 114.82 239.728 114.82 239.728L107.025 339.996Z" fill="#EF4366"/>
<path d="M187.759 339.996C187.759 339.996 176.623 381.218 134.308 427.453C127.069 434.694 117.047 449.178 118.718 469.231L127.626 610.164H102.571C102.571 610.164 71.9476 493.184 78.629 435.251C85.3105 377.319 107.582 339.439 107.582 339.439H187.759V339.996Z" fill="#043C5E"/>
<path d="M34.8807 86.0703C30.4264 94.983 24.8585 101.111 21.5178 99.9964C18.7338 98.3253 19.8474 89.9696 24.3017 81.0568C28.756 72.1441 34.8807 66.0166 37.6646 67.1307C40.4486 68.8018 39.335 77.1575 34.8807 86.0703Z" fill="#63C1C5"/>
<path d="M107.039 112.806L106.482 113.363C103.698 114.477 100.914 115.034 98.13 113.92H97.5733C93.119 112.249 89.2215 108.907 88.1079 104.45C87.5511 102.222 89.2215 100.551 91.4486 101.108L97.0165 102.222C99.2436 102.779 100.914 103.893 102.584 105.564L107.039 112.806Z" fill="#F8B68F"/>
</g>
<defs>
<clipPath id="clip0">
<rect width="257" height="639" fill="white" transform="matrix(-1 0 0 1 257 0)"/>
</clipPath>
</defs>
</svg>
