<svg width="661" height="768" viewBox="0 0 661 768" fill="none" xmlns="http://www.w3.org/2000/svg">
<g clip-path="url(#clip0)">
<path d="M477 275.235C477 275.235 484.295 264.141 486.811 261.367C495.867 251.785 478.761 205.642 489.83 198.33C500.898 191.017 581.397 181.688 590.202 198.33C599.006 214.972 603.534 266.158 587.183 273.47C570.832 280.53 506.432 275.487 499.389 273.218C487.314 269.184 477 275.235 477 275.235Z" fill="#00666A"/>
<path d="M514.986 234.135C514.986 234.135 536.62 225.814 536.871 207.659C539.638 196.06 544.67 203.12 544.67 203.12C544.67 203.12 549.198 215.728 544.67 225.057C552.719 226.57 558.002 225.814 563.788 228.335C569.574 230.857 568.065 246.49 558.002 259.35C550.959 268.427 516.747 258.341 516.747 258.341L514.986 234.135Z" fill="white"/>
</g>
<defs>
<clipPath id="clip0">
<rect width="121" height="88" fill="white" transform="translate(477 189)"/>
</clipPath>
</defs>
</svg>
