<?xml version="1.0" encoding="utf-8"?>
<!-- Generator: Adobe Illustrator 23.0.6, SVG Export Plug-In . SVG Version: 6.00 Build 0)  -->
<svg version="1.1" id="Layer_1" xmlns="http://www.w3.org/2000/svg" xmlns:xlink="http://www.w3.org/1999/xlink" x="0px" y="0px"
	 viewBox="0 0 661 768" style="enable-background:new 0 0 661 768;" xml:space="preserve">
<style type="text/css">
	.st0{clip-path:url(#SVGID_2_);}
	.st1{fill:#F8B68F;}
	.st2{fill:#FFFFFF;}
	.st3{fill:#043C5E;}
	.st4{fill:#212B53;}
	.st5{fill:#FFDB71;}
	.st6{fill:#F4A086;}
	.st7{fill:url(#SVGID_3_);}
	.st8{fill:#00666A;}
	.st9{fill:#198A8D;}
	.st10{fill:#FFD248;}
	.st11{fill:#01898C;}
	.st12{fill:#A9775A;}
	.st13{fill:#9B6F56;}
	.st14{fill:url(#SVGID_4_);}
	.st15{fill:url(#SVGID_5_);}
	.st16{fill:#63C1C5;}
	.st17{fill:#36B9C3;}
	.st18{fill:#11375B;}
	.st19{fill:#F9D4BF;}
	.st20{fill:url(#SVGID_6_);}
</style>
<g>
	<defs>
		<rect id="SVGID_1_" width="661" height="768"/>
	</defs>
	<clipPath id="SVGID_2_">
		<use xlink:href="#SVGID_1_"  style="overflow:visible;"/>
	</clipPath>
	<g class="st0">
		<path class="st1" d="M342.4,200.7l-11,20.8l12-0.6l0.9-20.8L342.4,200.7z"/>
		<path class="st2" d="M359.6,191.5h-10.1l-4.3,66h18.3L359.6,191.5z"/>
		<path class="st3" d="M378.4,385c0,0,2.5,1.9,2.1,4.5c-0.4,2.5-1.2,8.5-1.2,8.5h-2.5l0.1-5.5c0-0.3-5.5,5.5-6.5,5.5h-13.7
			c0,0-0.9-3.7,7.1-4.9C371.8,391.9,378.4,385,378.4,385z"/>
		<path class="st1" d="M372.4,382.5l-1.8,4.9c-0.4,1.3-1.3,2.5-2.5,3.3c-1.3,0.9-3.4,1.9-6.4,3c3.7,3.1,9.6-0.1,13.1-2.5
			c1.6-1.2,2.8-2.8,3.3-4.8l0.7-3.7h-6.4V382.5z"/>
		<path class="st3" d="M352.4,385c0,0,2.5,1.9,2.1,4.5c-0.4,2.5-1.2,8.5-1.2,8.5h-2.5l0.1-5.5c0-0.3-5.5,5.5-6.5,5.5h-13.8
			c0,0-0.9-3.7,7.1-4.9C345.7,391.9,352.4,385,352.4,385z"/>
		<path class="st1" d="M346.4,382.5l-1.8,4.9c-0.4,1.3-1.3,2.5-2.5,3.3c-1.3,0.9-3.4,1.9-6.4,3c3.7,3.1,9.6-0.1,13.1-2.5
			c1.6-1.2,2.8-2.8,3.3-4.8l0.7-3.7h-6.4V382.5z"/>
		<path class="st4" d="M367.5,257.4c0,0,1.8,9.8-8.2,58.4c8,25.3-4.8,67.4-4.8,67.4h-9.4l-6.4-125.8H367.5z"/>
		<path class="st5" d="M350.6,191.5l-3.3,80l-11-4.8c0,0,4.9-15,4.5-35.9c1.6-15-6.8-7.1,3.6-36.2
			C348.4,191.5,350.6,191.5,350.6,191.5z"/>
		<path class="st6" d="M349.3,183.3l1.3,6.7c0.6,3,3.9,4.5,6.5,2.8l4.5-2.8l-8-18.2L349.3,183.3z"/>
		<path class="st3" d="M376.4,257.4c0,0,12.2,9.8,2.4,58.4c8,25.3,0.9,67.4,0.9,67.4h-8.3l-23.5-125.8H376.4z"/>
		<path class="st5" d="M359.6,184.8c0,0,10.2,5.8,13.5,11c3,4.9,4.2,16.1,4.5,26.1c0.4,13.7,7,49.7,7,49.7H357l-0.7-78.3
			L359.6,184.8z"/>
		<path class="st3" d="M339.5,163c6.2-1.6,12.2,4.8,12.2,4.8l4.8,25.3l7.3-11.2c0,0,0.4-15.2-6.5-25.2c-5-6.1-14.5-4.3-19.4,1.6
			c-2.4,2.8-2.8,6.8-2.7,10.4c0.3,4.9,1.6,33.1,1.6,33.1l14.3-10.6c0,0-0.3-2.8-1.6-8C346.9,174.4,335.3,164.1,339.5,163z"/>
		<path class="st1" d="M353.6,167.5c-0.9-0.4-2.1,0.3-2.7,1.3c-0.6,1.2-0.3,2.4,0.7,2.7c0.9,0.4,2.1-0.3,2.7-1.3
			C354.8,169,354.5,167.8,353.6,167.5z"/>
		<path class="st1" d="M346.9,184.5c-1.2,0.4-2.2,0.6-3.1,0.4c-5.3-3.9-7.4-19.7-7.4-19.7l4.3-4.6l8.6,1.8l4.2,9.4
			c1.2,2.5,1,5.4-0.3,7.7C351.5,181.8,349.4,183.4,346.9,184.5z"/>
		<path class="st3" d="M338,162.7c0.4,4.8,13.7,5.2,13.7,5.2l0.7-6.4l-7.7-4.3l-6.1,3.6C338.6,160.8,338,161.9,338,162.7z"/>
		<path class="st4" d="M338.3,163.6c0.4,1.8-1.3,4.9-1.3,4.9l-1-1.9V165l1-1.3C336.9,163.6,337.8,161.9,338.3,163.6z"/>
		<path class="st1" d="M370.3,195.7c13.4,1.5,7,36,4.2,50.2c-0.7,3.4-4.3,5.7-7.6,4.5c-11.6-3.6-28.5-18.8-28.5-18.8l2.7-3.4
			l22.6,5.2C363.5,233.3,354.9,193.9,370.3,195.7z"/>
		<path class="st2" d="M343.8,220.1l4.3,26.9c0.1,0.7-0.4,1.5-1.3,1.5h-17.2c-0.6,0-1.2-0.4-1.3-1l-4.2-27.1
			c-0.1-0.7,0.4-1.5,1.3-1.5h17.1C343,219,343.6,219.5,343.8,220.1z"/>
		<path class="st1" d="M324.6,232c-0.1-0.9,0-1.5,0.3-3.6c0.4-2.5,0.3-6.6,3-4.6c2.5,3.1,2.7,6.4,2.7,6.4c0.4,1.8-0.6,4.3-1.6,5.7
			l-1.8,3.9C327.1,239.9,324,236.3,324.6,232z"/>
		
			<linearGradient id="SVGID_3_" gradientUnits="userSpaceOnUse" x1="335.868" y1="538.547" x2="333.24" y2="538.547" gradientTransform="matrix(1 0 0 -1 0 768)">
			<stop  offset="0" style="stop-color:#E0F0EB"/>
			<stop  offset="1" style="stop-color:#C0E4EF"/>
		</linearGradient>
		<path class="st7" d="M335.9,229.5c0,0.7-0.6,1.3-1.3,1.3c-0.7,0-1.3-0.6-1.3-1.3c0-0.7,0.6-1.3,1.3-1.3
			C335.3,228.1,335.9,228.7,335.9,229.5z"/>
		<path class="st4" d="M440.1,568.3c0,0,91.9-99.8,184.5-76.2C654.3,603,535.5,655,535.5,655l-143.4,27.4L440.1,568.3z"/>
		<path class="st8" d="M581.2,626.6l-97.8-20.8l86.5-68.7l57.7,10.3l0.5-2.9l-55.1-9.8l53.6-42.6l-2.9-1.5l-98.1,78l-5.7-61.8
			l-2.6,2.6l5.6,61.3L392.6,678.4l-0.5,3.9l88.2-74.1l97.3,20.6L581.2,626.6z"/>
		<path class="st9" d="M411.4,683.6c0,0-63.7-210.9,87.2-284.6c124.7,117.8-30.8,275.8-30.8,275.8L411.4,683.6z"/>
		<path class="st2" d="M547.3,513.6l-0.8-3.1l-81.3,60.6l12.1-160.9l-3-0.2l-8.5,114l-52.6-40.3l-1.3,2.9l53.6,41L455.4,662l2.9,2
			l6.7-89L547.3,513.6z"/>
		<path class="st10" d="M394.1,679.4c0,0,152.1-102.9,214.2,2.5c-65.9,140.7-249.4,67-249.4,67L394.1,679.4z"/>
		<path class="st2" d="M516.8,762.6l-61.6-59l153.2-20.3l-0.5-2.9L515,692.7l40.8-53.3l-3.1-0.8l-41.8,54.6l-133.4,17.7l-1.8,3.3
			l75.7-10l61.3,58.8L516.8,762.6z"/>
		<path class="st11" d="M5.1,768.7l87.8-376H88l-88,376H5.1z"/>
		<path class="st11" d="M50.5,768.7l88-376h-5.1l-87.8,376H50.5z"/>
		<path class="st11" d="M65.2,490.3v5.6h47l0.8-5.6H65.2z"/>
		<path class="st11" d="M74.9,453.8v5.7l47.2-0.2l0.8-5.6H74.9z"/>
		<path class="st11" d="M82.9,417.4v5.6h47.2l0.8-5.6H82.9z"/>
		<path class="st11" d="M56.7,527.2v5.6h47l0.8-5.6H56.7z"/>
		<path class="st11" d="M48.5,564v5.6h47.2l0.8-5.6H48.5z"/>
		<path class="st11" d="M40.3,602.4l-2,5.6h47l0.8-5.6H40.3z"/>
		<path class="st11" d="M31.5,640.7l-2,5.6h47.2l0.7-5.6H31.5z"/>
		<path class="st11" d="M23.1,678.2l-2,5.6h47.2l0.8-5.6H23.1z"/>
		<path class="st11" d="M16.2,716.6l-1.8,5.6h47l0.8-5.7L16.2,716.6z"/>
		<path class="st3" d="M220.5,768.7l-88-376h4.9l88,376H220.5z"/>
		<path class="st3" d="M175,768.7l-88-376h5.1l88,376H175z"/>
		<path class="st3" d="M160.4,490.3v5.6h-47.2l-0.8-5.6H160.4z"/>
		<path class="st3" d="M150.6,453.8v5.7l-47-0.2l-0.8-5.6H150.6z"/>
		<path class="st3" d="M142.6,417.4v5.6H95.4l-0.8-5.6H142.6z"/>
		<path class="st3" d="M168.9,527.2v5.6h-47.2l-0.8-5.6H168.9z"/>
		<path class="st3" d="M177,564v5.6h-47.2l-0.7-5.6H177z"/>
		<path class="st3" d="M185.3,602.4l1.8,5.6h-47l-0.8-5.6H185.3z"/>
		<path class="st3" d="M194.2,640.7l1.8,5.6h-47l-0.8-5.6H194.2z"/>
		<path class="st3" d="M202.4,678.2l2,5.6h-47.2l-0.8-5.6H202.4z"/>
		<path class="st3" d="M209.2,716.6l2,5.6H164l-0.8-5.7L209.2,716.6z"/>
		<path class="st4" d="M438.8,294.2c-0.7,11.8-61,36.2-134.5,31.8c-73.6-4.4-125.5-37.5-124.9-49.3c0.7-11.8,53.7-16.4,127.3-12
			C380.5,269.1,439.5,282.4,438.8,294.2z"/>
		<path class="st3" d="M260.2,264.2c-17.5,0-33.6,0.7-47.2,2.1c-23.8,2.5-38,6.9-38.3,12.1c-0.3,5.1,12.3,15.6,36.7,25.9
			c15.9,6.7,49.2,18.5,92.7,21.1c43.6,2.6,77.8-5.1,94.4-9.8c25.4-7.4,39.8-16.2,40.1-21.3h-0.8c0.7-10-51.9-23.9-131.2-28.7
			C290.6,264.5,275,264.2,260.2,264.2z"/>
		<path class="st4" d="M131.1,409.4c0,0,4.1,3.8,13.4,6.2c2.1,0.5,4.3-0.2,4.3,3.3c-4.4,0-11.3,0-11.3,0l-9.5-1.6v1.6h-5.1
			c0,0-1.5-8.4,1.5-9.3C127.3,409.4,131.1,409.4,131.1,409.4z"/>
		<path class="st12" d="M130.6,403.3l0.7,6.1c-1.8,1.3-4.3,1.3-6.2,0.2l-0.3-0.2l-2.1-6.1H130.6z"/>
		<path class="st4" d="M102.7,409.4c0,0,4.1,3.8,13.4,6.2c2.1,0.5,4.3-0.2,4.3,3.3c-4.4,0-11.3,0-11.3,0l-9.5-1.6v1.6h-5.1
			c0,0-1.5-8.4,1.5-9.3C99,409.4,102.7,409.4,102.7,409.4z"/>
		<path class="st12" d="M102.1,403.3l0.5,6.1c-1.8,1.3-4.3,1.3-6.2,0.2l-0.3-0.2l-2.1-6.1H102.1z"/>
		<path class="st13" d="M112.4,206.7l-1.6,9.8l-8.7-3.9l2.9-11.6L112.4,206.7z"/>
		<path class="st12" d="M115.5,207.7c1.1,0,2.3-0.2,2.9-0.7c3.4-5.1-0.5-18.8-0.5-18.8l-5.6-2.3l-7,4.4l-0.3,9.2
			c-0.2,2.5,1.1,4.8,3.1,6.4C110.3,207,112.9,207.7,115.5,207.7z"/>
		<path class="st4" d="M107.2,192.9c0.3-1.5,2-2.6,3.4-2.3c1.1,0.2,2.5,0.3,3.8,0.3c3.1,0,7-1.3,7-6.1s-5.9-3.1-5.9-3.1
			s-12.1,1.8-16.9,5.4c-2.3,1.6,1.5,7,2.9,9.7c0.8,1.5,1.8,2.9,3.1,4.1L107.2,192.9z"/>
		<path class="st12" d="M103.2,195.7c0.7-0.7,2-0.5,3,0.3c1,0.8,1.1,2,0.3,2.5c-0.7,0.7-2,0.5-2.9-0.3
			C102.7,197.5,102.4,196.4,103.2,195.7z"/>
		
			<linearGradient id="SVGID_4_" gradientUnits="userSpaceOnUse" x1="131.736" y1="512.578" x2="87.7442" y2="512.578" gradientTransform="matrix(1 0 0 -1 0 768)">
			<stop  offset="0" style="stop-color:#E0F0EB"/>
			<stop  offset="1" style="stop-color:#C0E4EF"/>
		</linearGradient>
		<path class="st14" d="M110.8,216.5c0,0,13.1,21.5,21,71.4c-15.7,4.9-39.8,10.3-39.8,10.3s-14.3-54.1,10.3-85.7
			C107.2,212.6,110.8,216.5,110.8,216.5z"/>
		<path class="st4" d="M131.7,287.9c0,0,11,36.9,11,53.4c0,16.7-11,63.7-11,63.7h-10c0,0-2.3-32.9,0.5-51.3c0.8-5.4,0.5-11-1.1-16.2
			c-5.4-18.5-11.1-43.6-11.1-43.6L131.7,287.9z"/>
		<path class="st3" d="M124.2,290.9c0,0,2.8,40-1.6,54.4c-4.6,14.4-19.7,59.8-19.7,59.8h-8.8c0,0-2.3-24.7,4.9-51
			c1.8-6.4,1.5-13.1-0.7-19.3c-6.9-20.5-6.2-36.5-6.2-36.5L124.2,290.9z"/>
		<path class="st2" d="M111.3,213.4l-8.5-4.8l-0.7,3.9l9.2,4.8V213.4z"/>
		<path class="st12" d="M146.3,293.5c0.5,0.3,2,1,5.7,0.8c3.3-0.2,9.8-2.5,9,1c-2.8,2.1-5.9,4.8-5.9,4.8c-1.8,1.1-5.4,0.7-7.5,0
			l-6.4-3c0,0-1-3.3-1-3.4l1.3-0.7C142.9,293.5,144.7,293.5,146.3,293.5z"/>
		<path class="st12" d="M147.6,294.8c0,0,0.2,0.2,0.3,0.3c-0.3,0.2-0.8,0.5-1.1,0.7c-1.6,0.3-3.3,0.7-5.1,0.8c0-1,0-2.3,0-2.5
			l10.7-3.9c0,0,1,1-0.8,2.5C149.8,294.2,147.6,294.8,147.6,294.8z"/>
		
			<linearGradient id="SVGID_5_" gradientUnits="userSpaceOnUse" x1="142.714" y1="502.01" x2="93.1562" y2="502.01" gradientTransform="matrix(1 0 0 -1 0 768)">
			<stop  offset="0" style="stop-color:#E0F0EB"/>
			<stop  offset="1" style="stop-color:#C0E4EF"/>
		</linearGradient>
		<path class="st15" d="M112.4,233.7l2.9,23.9c0.5,4.6,2.6,9,5.7,12.3l21.6,22.9l-2.1,5.4c0,0-32.4-15.2-38.5-24.4
			c-5.9-9-9-36.7-9-36.7L112.4,233.7z"/>
		<path class="st16" d="M94.9,246.3c1.5,8.8,3.9,21.6,7.7,27.2c5.4,8.4,34.1,22.3,37.8,24.1l1.8-4.8l-21.3-22.6
			c-3.3-3.4-5.4-7.9-5.9-12.6l-1.3-10.7c0.3-0.2,0.5-0.3,0.8-0.5l1.3,11.1c0.5,4.6,2.5,8.7,5.7,12.1l21.6,22.9l0.2,0.2l-2.5,6.1
			l-0.5-0.2c-1.3-0.7-32.6-15.4-38.7-24.6c-3.9-5.9-6.6-19.3-7.9-28.3C94.2,246,94.5,246.2,94.9,246.3z"/>
		<path class="st16" d="M440,295.2v323.6L178.5,660V518.9H137L174.2,276c0,0,14.3,26.1,126.7,32C413.1,313.7,440,295.2,440,295.2z"
			/>
		<path class="st17" d="M364.4,308.4L307,639l133-21V295C440,295,424,306.1,364.4,308.4z"/>
		<path class="st11" d="M259,647.4V769h181V619L259,647.4z"/>
		<path class="st3" d="M525,768.7l-88-376h5.1l88,376H525z"/>
		<path class="st3" d="M479.6,768.7l-88-376h5.1l87.8,376H479.6z"/>
		<path class="st3" d="M464.9,490.3v5.6h-47l-0.8-5.6H464.9z"/>
		<path class="st3" d="M455.2,453.8v5.7l-47.2-0.2l-0.8-5.6H455.2z"/>
		<path class="st3" d="M447,417.4v5.6h-47l-0.8-5.6H447z"/>
		<path class="st3" d="M473.4,527.2v5.6h-47l-0.8-5.6H473.4z"/>
		<path class="st3" d="M481.6,564v5.6h-47.2l-0.8-5.6H481.6z"/>
		<path class="st3" d="M489.8,602.4l2,5.6h-47l-0.8-5.6H489.8z"/>
		<path class="st3" d="M498.6,640.7l2,5.6h-47.2l-0.7-5.6H498.6z"/>
		<path class="st3" d="M507,678.2l1.8,5.6h-47l-0.8-5.6H507z"/>
		<path class="st3" d="M513.9,716.6l1.8,5.6h-47l-0.8-5.7L513.9,716.6z"/>
		<path class="st3" d="M438.2,484.4H422c-2.1,0.2-4.6,0.8-4.9,2.6c0,0-0.3,1.3-0.2,2.5c0.5,0.7,22-0.2,22-0.2h0.2
			C441.1,486.5,438.2,484.4,438.2,484.4z"/>
		<path class="st16" d="M416.7,489.5l22.1-0.2l-0.2,1h-22V489.5z"/>
		<path class="st2" d="M431.8,484.2h-1.5l0.5,2.1h1.3L431.8,484.2z"/>
		<path class="st2" d="M428.7,484.2h-1.5l0.5,2.1h1.3L428.7,484.2z"/>
		<path class="st1" d="M439.3,479l-1.1,5.4c-1.3,0.7-2.9,0.7-4.3,0.2l-0.3-0.2l-0.8-5.4H439.3z"/>
		<path class="st18" d="M458.7,484.4h-16.2c-2.1,0.2-4.6,0.8-4.9,2.6c0,0-0.3,1.3-0.2,2.5c0.5,0.7,22-0.2,22-0.2h0.2
			C461.6,486.5,458.7,484.4,458.7,484.4z"/>
		<path class="st16" d="M437.4,489.5l22-0.2l-0.2,1h-21.8V489.5z"/>
		<path class="st2" d="M452.3,484.2h-1.5l0.5,2.1h1.3L452.3,484.2z"/>
		<path class="st2" d="M449.2,484.2h-1.5l0.5,2.1h1.3L449.2,484.2z"/>
		<path class="st1" d="M459.8,479l-1.1,5.4c-1.3,0.7-2.9,0.7-4.3,0.2l-0.2-0.2l-0.8-5.4H459.8z"/>
		<path class="st19" d="M450.8,282.4l13.3,8.7l-4.1,10.5c0,0.2-0.2,0.3-0.2,0.5c-0.3,0-0.7,0-0.8,0h-0.2h-0.2
			c-3.6,0-6.6,2.1-8.5,5.1c-2.1-0.2-4.3-0.7-6.2-1.6c-1.3-0.7-2.5-1.5-2.9-2.3C439.5,295.8,450.8,282.4,450.8,282.4z"/>
		<path class="st1" d="M453.7,307.1l1.1,7.2h-10.2l-0.8-8.8L453.7,307.1z"/>
		<path class="st18" d="M450.1,307.1l3.1-6.9l-2-1.3c-1.5-1-2.1-2.8-1.6-4.4l2.3-6.6c0,0-6.4-0.8-6.2-6.7c0-3.1,4.3-3.1,4.3-3.1
			s1.3,2.8,5.1,3.1c1.6-0.2,6.2,0.3,9.3,5.7c2.1,3.6,1.1,9.3-0.7,13.6c-1.6,3.8-5.7,5.9-9.8,6.6H450.1z"/>
		<path class="st4" d="M462.4,365.4c0,0-1.3,24.6-4.3,43.9c-0.7,4.4,0.3,9,1.6,13.3c5.7,19.2,0.8,57.2,0.8,57.2h-9
			c0,0-11.1-52.1-10.5-71.1c0.7-19.7-5.1-26.7-5.1-26.7l6.2-16.5H462.4z"/>
		<path class="st19" d="M454.9,297c0.3,1.1-0.3,2.5-1.6,3.3c-1.3,0.7-2.6,0.3-3.1-0.7c-0.3-1.1,0.3-2.6,1.6-3.3
			C453.1,295.5,454.6,295.8,454.9,297z"/>
		<path class="st3" d="M462.4,365.4c0,0,0.3,16.5-17.2,44.1c-2.9,4.8-4.4,10.2-4.1,15.7c1.1,19.3-0.7,54.6-0.7,54.6h-9.2
			c0,0-13.1-50.8-10.8-71.9c2.5-21.1,12.3-42.4,12.3-42.4H462.4z"/>
		<path class="st1" d="M443,329.4c0,0-11.9-4.7-15.3-10c-3.4-5.5,4.7-33.5,4.7-33.5l-0.5-5.1c-0.3-3,2.1-5.4,5.1-5.3l3.3,0.2
			c1.3,0.1,2.2,1.5,1.5,2.7l-4.9,9.4c0,0-4.6,21.4-0.1,23.3c5.3,2.3,11.3,3,11.3,3L443,329.4z"/>
		
			<linearGradient id="SVGID_6_" gradientUnits="userSpaceOnUse" x1="418.191" y1="430.7355" x2="462.431" y2="430.7355" gradientTransform="matrix(1 0 0 -1 0 768)">
			<stop  offset="0" style="stop-color:#E0F0EB"/>
			<stop  offset="1" style="stop-color:#C0E4EF"/>
		</linearGradient>
		<path class="st20" d="M432.9,365.4h29.5v-37.9c0-8.4-6.4-15.2-14.6-16.1l-20.5-2.5c0,0-2.5,3.8-9.2,12.3c8,4.9,17.4,7.4,17.4,7.4
			L432.9,365.4z"/>
		<path class="st19" d="M427.2,325.1c0,0-12.1-3.9-15.9-9c-3.8-5.2,2.6-33.8,2.6-33.8l-0.8-5.1c-0.5-2.9,1.8-5.6,4.8-5.6h3.3
			c1.3,0,2.3,1.3,1.6,2.6l-4.3,9.7c0,0-3.3,21.6,1.3,23.3c5.4,2,11.5,2.3,11.5,2.3L427.2,325.1z"/>
	</g>
</g>
</svg>
