<svg width="661" height="768" viewBox="0 0 661 768" fill="none" xmlns="http://www.w3.org/2000/svg">
<g clip-path="url(#clip0)">
<path d="M367 149.932C367 149.932 379.661 130.642 384.027 125.82C399.744 109.161 370.056 28.9345 389.266 16.2211C408.476 3.50759 548.185 -12.713 563.466 16.2211C578.746 45.1551 586.605 134.149 558.227 146.863C529.848 159.138 418.081 150.37 405.857 146.424C384.9 139.41 367 149.932 367 149.932Z" fill="#FFD247"/>
<path d="M523 73.4031C523 73.4031 490.654 85.8552 490.278 113.023C486.141 130.381 478.619 119.815 478.619 119.815C478.619 119.815 471.849 100.949 478.619 86.9872C466.583 84.7231 458.685 85.8552 450.034 82.0818C441.383 78.3084 443.64 54.9136 458.685 35.6695C469.216 22.0854 520.367 37.1788 520.367 37.1788L523 73.4031Z" fill="white"/>
</g>
<defs>
<clipPath id="clip0">
<rect width="210" height="153" fill="white" transform="translate(367)"/>
</clipPath>
</defs>
</svg>
