<?xml version="1.0" encoding="utf-8"?>
<!-- Generator: Adobe Illustrator 20.1.0, SVG Export Plug-In . SVG Version: 6.00 Build 0)  -->
<svg version="1.1" id="Layer_1" xmlns="http://www.w3.org/2000/svg" xmlns:xlink="http://www.w3.org/1999/xlink" x="0px" y="0px"
	 viewBox="0 0 583.8 234.4" style="enable-background:new 0 0 583.8 234.4;" xml:space="preserve">
<style type="text/css">
	.st0{fill:#F39224;}
	.st1{opacity:0.15;fill:#FFFFFF;}
	.st2{fill:#FFFFFF;}
</style>
<g>
	<path class="st0" d="M583.8,73.9H303.9c-3.9-18-20-32-39.1-32H222c0-20-16.5-36.7-36.7-36.7c-20.3,0-36.7,16.5-36.7,36.8
		c0,0.3,0.2,0.7,0.2,1c-17.8,4-31,20-31,39v1.9H26.4c-11,0-19.6,8.9-19.6,19.9v20.1c0,11,8.6,20,19.6,20h91.4v45.6
		c0,22,17.6,40.4,39.6,40.4h107.5c20.5,0,37.5-16,39.8-36h279.2V73.9z"/>
	<path class="st1" d="M192.2,66.9c-22,0-40.5,18.2-40.5,40.2v107.5c0,5.2,1.3,10.4,3.1,15c0.9,0.1,2,0.3,2.9,0.3h107.5
		c22,0,39.5-18.4,39.5-40.4V82c0-5.2-0.8-10.3-2.6-14.9c-0.9-0.1-1.5-0.2-2.4-0.2H192.2z"/>
	<circle class="st2" cx="377.3" cy="75" r="18"/>
	<circle class="st2" cx="377.3" cy="114.3" r="18"/>
	<circle class="st2" cx="377.3" cy="154.2" r="18"/>
	<circle class="st2" cx="377.3" cy="193.4" r="18"/>
</g>
</svg>
