<?xml version="1.0" encoding="utf-8"?>
<!-- Generator: Adobe Illustrator 20.1.0, SVG Export Plug-In . SVG Version: 6.00 Build 0)  -->
<svg version="1.1" id="Layer_1" xmlns="http://www.w3.org/2000/svg" xmlns:xlink="http://www.w3.org/1999/xlink" x="0px" y="0px"
	 viewBox="0 0 214 198.4" style="enable-background:new 0 0 214 198.4;" xml:space="preserve">
<style type="text/css">
	.st0{fill:#004FB6;}
	.st1{fill:#FFD900;}
	.st2{fill:#64B445;}
</style>
<g>
	<path class="st0" d="M18.4,172.5c-1.6-1-3.3-1.6-6.2-1.6c-5.2,0-8.7,3.8-8.7,8.9c0,5.3,3.8,8.9,8.5,8.9c2.2,0,2.8-0.2,3.6-0.4v-6.9
		h-4.8v-2.7h8v11.8c-1.2,0.4-3.4,1-6.9,1c-7.2,0-12-4.6-12-11.8c0-7,5.1-11.6,12-11.6c3.3,0,4.8,0.5,6.7,1.1L18.4,172.5z"/>
	<path class="st0" d="M31.5,174.2c5,0,8.4,3.6,8.4,8.7c0,4.7-3.4,8.7-8.4,8.7c-5,0-8.4-3.9-8.4-8.7
		C23.1,177.8,26.4,174.2,31.5,174.2z M31.5,189.1c3.6,0,5.2-3.2,5.2-6.2c0-3.2-1.9-6.2-5.2-6.2c-3.3,0-5.2,3.1-5.2,6.2
		C26.3,185.8,27.9,189.1,31.5,189.1z"/>
	<path class="st0" d="M51.2,174.2c5,0,8.4,3.6,8.4,8.7c0,4.7-3.4,8.7-8.4,8.7c-5,0-8.4-3.9-8.4-8.7
		C42.8,177.8,46.1,174.2,51.2,174.2z M51.2,189.1c3.6,0,5.2-3.2,5.2-6.2c0-3.2-1.9-6.2-5.2-6.2c-3.3,0-5.2,3.1-5.2,6.2
		C46,185.8,47.6,189.1,51.2,189.1z"/>
	<path class="st0" d="M75.3,188.8L75.3,188.8c-0.9,1.2-2.8,2.7-5.7,2.7c-5,0-7.1-4.5-7.1-9c0-4.5,2.3-8.4,7.1-8.4
		c2.9,0,4.5,1.1,5.5,2.7h0.1v-10.1h3.1v24.4h-2.9V188.8z M70.3,189.1c3.4,0,4.9-3.4,4.9-6.2c0-3.1-1.6-6.2-4.9-6.2s-4.6,3.1-4.5,6.1
		C65.6,185.4,67,189.1,70.3,189.1z"/>
	<path class="st0" d="M100.9,177.1h-4.4v9.1c0,1.9,1.2,3,2.6,3c0.9,0,1.6-0.3,2.1-0.6v2.6c-0.7,0.2-1.6,0.5-2.6,0.5
		c-3.2,0-5.1-1.5-5.1-4.8v-9.7h-3.7v-2.5h3.7v-3.8l3.1-1v4.8h4.4V177.1z"/>
	<path class="st0" d="M104.7,166.8h3.1V177h0.1c1.1-1.8,3-2.8,5.3-2.8c4.3,0,6.2,2.7,6.2,7.1v9.8h-3.1v-8.6c0-3.9-0.8-5.8-3.5-5.9
		c-3.5,0-5,2.8-5,6.8v7.7h-3.1V166.8z"/>
	<path class="st0" d="M127.9,170.9h-3.4v-3.4h3.4V170.9z M124.7,174.6h3.1v16.6h-3.1V174.6z"/>
	<path class="st0" d="M133.2,174.6h3v2.6h0.1c0.9-1.9,3.1-3,5.4-3c4.3,0,6.2,2.7,6.2,7.1v9.8h-3.1v-8.6c0-3.9-0.8-5.8-3.5-5.9
		c-3.5,0-5,2.8-5,6.8v7.7h-3.1V174.6z"/>
	<path class="st0" d="M152.8,166.8h3.1v14.5l6.7-6.7h4.2l-7.7,7.3l8.7,9.2h-4.4l-7.4-8.5v8.5h-3.1V166.8z"/>
	<path class="st0" d="M174.4,170.9h-3.4v-3.4h3.4V170.9z M171.1,174.6h3.1v16.6h-3.1V174.6z"/>
	<path class="st0" d="M179.6,174.6h3v2.6h0.1c0.9-1.9,3.1-3,5.4-3c4.3,0,6.2,2.7,6.2,7.1v9.8h-3.1v-8.6c0-3.9-0.8-5.8-3.5-5.9
		c-3.5,0-5,2.8-5,6.8v7.7h-3.1V174.6z"/>
	<path class="st0" d="M214,190.4c0,5-2.6,7.9-8.5,7.9c-1.8,0-3.3-0.2-5.9-1.1l0.3-2.8c2.3,1.1,3.7,1.5,6,1.5c3.2,0,5.1-2.2,5.1-5.7
		v-1.6h-0.1c-1.3,1.7-3.4,2.6-5.6,2.6c-4.7,0-7.1-3.9-7.1-8.2c0-4.3,2.4-8.8,7.4-8.8c2.9,0,4.5,1.1,5.5,2.9h0.1v-2.5h2.8V190.4z
		 M210.9,183.1c0-3.4-1.6-6.4-4.8-6.4c-3.1,0-4.6,3.3-4.6,6.2c0,3.1,1.8,5.8,4.6,5.8C208.9,188.7,210.9,186.2,210.9,183.1z"/>
</g>
<g>
	<path class="st1" d="M133.7,73.8L126.5,0h0l-7.3,75.1C123.9,74.5,128.7,74.1,133.7,73.8z"/>
	<path class="st2" d="M151.2,73.3l0-73.3l-24.7,0v0l7.2,73.8C139.4,73.5,145.2,73.3,151.2,73.3z"/>
	<path class="st0" d="M119.2,75.1L126.5,0v0L61.8,0l0,89.1C77.1,82.5,96.8,77.5,119.2,75.1z"/>
	<g>
		<path class="st0" d="M98.8,108.5c0.9,0.2,4.1,1.1,4.1,3.4v36.3h10.8v-41H98.8V108.5z"/>
		<path class="st0" d="M13.9,107.2v1.3c1.3,0.3,4.1,1.1,3,3.6l-16.1,36h8.5l5-11.2h17.8l4.4,11.2h11.2l-16-41H13.9z M16.6,131.8
			l7.2-16.1l6.3,16.1H16.6z"/>
		<path class="st0" d="M179.4,107.2v1.3c1.3,0.3,4.1,1.1,3,3.6l-16.1,36h8.5l5-11.2h17.8l4.4,11.2h11.2l-16-41H179.4z M182.1,131.8
			l7.2-16.1l6.3,16.1H182.1z"/>
		<path class="st0" d="M150.7,148.2l17.1-41h-8.1l-12.5,30l-11.9-30h-15.2v1.3c1.8,0.3,3.7,1.1,4.6,3.4l14.4,36.3H150.7z"/>
		<path class="st0" d="M75.8,148.2l17.1-41h-8.1l-12.5,30l-11.9-30H45.2v1.3c1.8,0.3,3.7,1.1,4.6,3.4l14.4,36.3H75.8z"/>
	</g>
</g>
</svg>
