<?xml version="1.0" encoding="utf-8"?>
<!-- Generator: Adobe Illustrator 18.1.1, SVG Export Plug-In . SVG Version: 6.00 Build 0)  -->
<svg version="1.1" id="Layer_1" xmlns="http://www.w3.org/2000/svg" xmlns:xlink="http://www.w3.org/1999/xlink" x="0px" y="0px"
	 viewBox="-800 943.4 100 99.8" enable-background="new -800 943.4 100 99.8" xml:space="preserve">
<g>
	<path d="M-713,992.3c0,20.5-16.6,37-37.1,37c-20.4,0-37-16.5-37-37c0-20.4,16.6-37,37-37C-729.6,955.3-713,971.9-713,992.3z
		 M-774,1016.4c2.2,2.2,4.7,4,7.3,5.5l8.4-15.8c2.4,1.5,5.3,2.3,8.4,2.3c9,0,16-7.1,16-16c0-4.4-1.7-8.4-4.5-11.2l15.1-9.6
		c-0.8-1.1-1.7-2.2-2.7-3.1c-2.3-2.3-4.7-4.1-7.4-5.7l-8.4,15.8c-2.3-1.4-5.2-2.2-8.1-2.2c-8.9,0-16,7.1-16,16c0,4.2,1.6,8.1,4.2,11
		l-15.2,9.6C-776,1014.2-775,1015.2-774,1016.4z M-756.8,992.3c0-3.9,3.1-7,6.9-7c3.9,0,7,3.1,7,7c0,3.7-3.1,6.9-7,6.9
		C-753.6,999.2-756.8,996-756.8,992.3z M-753.4,992.3c0,2.1,1.4,3.4,3.4,3.4c2.1,0,3.6-1.4,3.6-3.4c0-2.1-1.5-3.6-3.6-3.6
		C-752,988.8-753.4,990.3-753.4,992.3z"/>
</g>
</svg>
