<?xml version="1.0" encoding="utf-8"?>
<!-- Generator: Adobe Illustrator 18.1.1, SVG Export Plug-In . SVG Version: 6.00 Build 0)  -->
<svg version="1.1" id="Ebene_1" xmlns="http://www.w3.org/2000/svg" xmlns:xlink="http://www.w3.org/1999/xlink" x="0px" y="0px"
	 viewBox="-800 943.2 100 100" enable-background="new -800 943.2 100 100" xml:space="preserve">
<g>
	<path d="M-726.8,1006.4l1.9,9.9h-47.6l1.9-9.9H-726.8 M-738.5,1014.5c1.2,0,2.1-1,2.1-2.1c0-1.2-1-2.1-2.1-2.1
		c-1.2,0-2.1,1-2.1,2.1C-740.7,1013.5-739.7,1014.5-738.5,1014.5 M-758.7,1014.5c1.2,0,2.1-1,2.1-2.1c0-1.2-1-2.1-2.1-2.1
		s-2.1,1-2.1,2.1C-760.8,1013.5-759.9,1014.5-758.7,1014.5 M-731.4,1015.4c1.2,0,2.1-1,2.1-2.1c0-1.2-1-2.1-2.1-2.1
		c-1.2,0-2.1,1-2.1,2.1C-733.6,1014.5-732.6,1015.4-731.4,1015.4 M-766,1015.4c1.2,0,2.1-1,2.1-2.1c0-1.2-1-2.1-2.1-2.1
		c-1.2,0-2.1,1-2.1,2.1C-768.1,1014.5-767.2,1015.4-766,1015.4"/>
</g>
<path d="M-713,999.8v-27.3c0-1.3-1-2.3-2.3-2.3H-782c-1.3,0-2.3,1-2.3,2.3v27.3h-0.7v11.8h0.7v1.7c0,1.3,1,2.3,2.3,2.3h8.4l1.9-9.8
	l0.1-0.7h0.7h44.3h0.7l0.1,0.7l1.9,9.8h8.4c1.3,0,2.3-1,2.3-2.3v-1.7h0.7v-11.8H-713z M-763.7,994.8c-2.5,0-4.5-2-4.5-4.5
	c0-2.5,2-4.5,4.5-4.5c2.5,0,4.5,2,4.5,4.5C-759.2,992.8-761.2,994.8-763.7,994.8z M-740.5,993.9h-16.5v-7.2h16.4L-740.5,993.9
	L-740.5,993.9z M-733.6,994.8c-2.5,0-4.5-2-4.5-4.5c0-2.5,2-4.5,4.5-4.5c2.5,0,4.5,2,4.5,4.5C-729.1,992.8-731.1,994.8-733.6,994.8z
	 M-717.5,982.3c0,0.6-0.5,1.2-1.2,1.2h-60.1c-0.6,0-1.2-0.5-1.2-1.2v-6.6c0-0.6,0.5-1.2,1.2-1.2h60.1c0.6,0,1.2,0.5,1.2,1.2V982.3z"
	/>
</svg>
